<svg width="121" height="120" xmlns="http://www.w3.org/2000/svg" xmlns:xlink="http://www.w3.org/1999/xlink" overflow="hidden"><g transform="translate(-47 -29)"><path d="M49 50.5004C49 39.7306 57.7306 31 68.5004 31L146.5 31C157.269 31 166 39.7306 166 50.5004L166 128.5C166 139.269 157.269 148 146.5 148L68.5004 148C57.7306 148 49 139.269 49 128.5Z" stroke="#0C7270" stroke-width="2" stroke-miterlimit="8" fill="#FFFFFF" fill-rule="evenodd"/><path d="M67.26 69.0997C65.7121 67.3704 65.8592 64.7138 67.5884 63.1659L86.4638 46.2706C88.1931 44.7227 90.8497 44.8698 92.3976 46.5991L150.178 111.151C151.726 112.881 151.579 115.537 149.85 117.085L130.974 133.98C129.245 135.528 126.588 135.381 125.04 133.652Z" stroke="#0C7270" stroke-width="3" stroke-miterlimit="8" fill="#FFFFFF" fill-rule="evenodd"/><path d="M86.5001 46.5001 149.275 117.803" stroke="#0C7270" stroke-width="3" stroke-miterlimit="8" fill="none" fill-rule="evenodd"/><path d="M87.8081 58.2151 90.1369 60.8856C90.4585 61.2543 90.4202 61.8139 90.0515 62.1354L74.0646 76.077 70.5713 72.0712 86.5582 58.1296C86.927 57.8081 87.4865 57.8463 87.8081 58.2151Z" stroke="#0C7270" stroke-width="3" stroke-miterlimit="8" fill="#FFFFFF" fill-rule="evenodd"/><path d="M95.8309 67.3884 98.1597 70.0589C98.4813 70.4276 98.443 70.9872 98.0743 71.3088L82.0873 85.2503 78.5941 81.2445 94.581 67.303C94.9497 66.9814 95.5093 67.0197 95.8309 67.3884Z" stroke="#0C7270" stroke-width="3" stroke-miterlimit="8" fill="#FFFFFF" fill-rule="evenodd"/><path d="M103.854 76.5617 106.182 79.2322C106.504 79.601 106.466 80.1605 106.097 80.4821L90.1101 94.4236 86.6168 90.4178 102.604 76.4763C102.973 76.1548 103.532 76.193 103.854 76.5617Z" stroke="#0C7270" stroke-width="3" stroke-miterlimit="8" fill="#FFFFFF" fill-rule="evenodd"/><path d="M111.876 85.735 114.205 88.4055C114.527 88.7742 114.488 89.3338 114.12 89.6553L98.1328 103.597 94.6395 99.5911 110.626 85.6495C110.995 85.328 111.555 85.3662 111.876 85.735Z" stroke="#0C7270" stroke-width="3" stroke-miterlimit="8" fill="#FFFFFF" fill-rule="evenodd"/><path d="M119.899 94.9083 122.228 97.5788C122.549 97.9475 122.511 98.5071 122.143 98.8287L106.156 112.77 102.662 108.764 118.649 94.8229C119.018 94.5013 119.578 94.5396 119.899 94.9083Z" stroke="#0C7270" stroke-width="3" stroke-miterlimit="8" fill="#FFFFFF" fill-rule="evenodd"/><path d="M127.922 104.082 130.251 106.752C130.572 107.121 130.534 107.68 130.165 108.002L114.178 121.944 110.685 117.938 126.672 103.996C127.041 103.675 127.6 103.713 127.922 104.082Z" stroke="#0C7270" stroke-width="3" stroke-miterlimit="8" fill="#FFFFFF" fill-rule="evenodd"/><path d="M135.945 113.255 138.274 115.925C138.595 116.294 138.557 116.854 138.188 117.175L122.201 131.117 118.708 127.111 134.695 113.17C135.064 112.848 135.623 112.886 135.945 113.255Z" stroke="#0C7270" stroke-width="3" stroke-miterlimit="8" fill="#FFFFFF" fill-rule="evenodd"/><path d="M123.262 56.1414C125.032 54.519 127.783 54.6386 129.405 56.4087L141.156 69.2281C142.778 70.9981 142.658 73.7483 140.888 75.3708L84.7639 126.815C82.9938 128.438 80.2437 128.318 78.6212 126.548L66.8707 113.729C65.2482 111.959 65.3679 109.209 67.1379 107.586Z" stroke="#0C7270" stroke-width="3" stroke-miterlimit="8" fill="#FFFFFF" fill-rule="evenodd"/><path d="M70.5001 106.5 87.4408 125.931" stroke="#0C7270" stroke-width="3" stroke-miterlimit="8" fill="none" fill-rule="evenodd"/><path d="M73.5001 104.5 90.4408 123.931" stroke="#0C7270" stroke-width="3" stroke-miterlimit="8" fill="none" fill-rule="evenodd"/><path d="M0 0 54.2582 50.1519" stroke="#0C7270" stroke-width="3" stroke-miterlimit="8" fill="none" fill-rule="evenodd" transform="matrix(1 0 0 -1 81.5001 112.652)"/><path d="M143.268 48.2701 152.076 46.7786 149.948 55.4542Z" stroke="#0C7270" stroke-width="3" stroke-miterlimit="8" fill="#FFFFFF" fill-rule="evenodd"/><path d="M125.5 54.5001C128.345 52.9231 131.191 51.3462 134.357 50.3462 137.524 49.3462 144.5 48.5001 144.5 48.5001L144.5 48.5001" stroke="#0C7270" stroke-width="3" stroke-miterlimit="8" fill="none" fill-rule="evenodd"/><path d="M0 5.64693C2.97695 4.16274 5.95398 2.67863 9.26722 1.73752 12.5805 0.796324 19.8797 0 19.8797 0L19.8797 0" stroke="#0C7270" stroke-width="3" stroke-miterlimit="8" fill="none" fill-rule="evenodd" transform="matrix(0.134606 -0.990899 -0.990899 -0.134606 147.416 74.3576)"/><path d="M105.5 47.0001 111.279 44.2785 114 38.5001 116.722 44.2785 122.5 47.0001 116.722 49.7216 114 55.5001 111.279 49.7216Z" stroke="#0C7270" stroke-width="3" stroke-miterlimit="8" fill="#FFFFFF" fill-rule="evenodd"/><path d="M93.5001 132.5 99.2785 129.618 102 123.5 104.722 129.618 110.5 132.5 104.722 135.382 102 141.5 99.2785 135.382Z" stroke="#0C7270" stroke-width="3" stroke-miterlimit="8" fill="#FFFFFF" fill-rule="evenodd"/></g></svg>