<svg width="699" height="323" xmlns="http://www.w3.org/2000/svg" xmlns:xlink="http://www.w3.org/1999/xlink" overflow="hidden"><g transform="translate(-47 52)"><path d="M51.8608 66.988C49.7228 64.5994 49.9259 60.9299 52.3145 58.7918L78.3867 35.4547C80.7753 33.3167 84.4449 33.5198 86.5829 35.9084L163.654 122.012C165.792 124.4 165.589 128.07 163.2 130.208L137.128 153.545C134.739 155.683 131.07 155.48 128.932 153.091Z" stroke="#3AC6AB" stroke-width="3" stroke-miterlimit="8" fill="#FFFFFF" fill-rule="evenodd"/><path d="M77.5001 35.5001 164.21 130.906" stroke="#3AC6AB" stroke-width="3" stroke-miterlimit="8" fill="none" fill-rule="evenodd"/><path d="M78.9236 51.4882 82.0397 55.0615C82.47 55.5549 82.4188 56.3036 81.9254 56.7339L59.8142 76.0162 55.14 70.6562 77.2513 51.3739C77.7446 50.9437 78.4934 50.9949 78.9236 51.4882Z" stroke="#3AC6AB" stroke-width="3" stroke-miterlimit="8" fill="#FFFFFF" fill-rule="evenodd"/><path d="M90.0053 63.7626 93.1214 67.3358C93.5517 67.8292 93.5005 68.5779 93.0071 69.0082L70.8958 88.2905 66.2217 82.9306 88.3329 63.6483C88.8263 63.218 89.5751 63.2692 90.0053 63.7626Z" stroke="#3AC6AB" stroke-width="3" stroke-miterlimit="8" fill="#FFFFFF" fill-rule="evenodd"/><path d="M101.087 76.0369 104.203 79.6101C104.633 80.1035 104.582 80.8523 104.089 81.2825L81.9775 100.565 77.3033 95.2049 99.4146 75.9226C99.908 75.4923 100.657 75.5435 101.087 76.0369Z" stroke="#3AC6AB" stroke-width="3" stroke-miterlimit="8" fill="#FFFFFF" fill-rule="evenodd"/><path d="M112.169 88.3112 115.285 91.8845C115.715 92.3779 115.664 93.1266 115.17 93.5569L93.0592 112.839 88.385 107.479 110.496 88.1969C110.99 87.7667 111.738 87.8178 112.169 88.3112Z" stroke="#3AC6AB" stroke-width="3" stroke-miterlimit="8" fill="#FFFFFF" fill-rule="evenodd"/><path d="M123.25 100.586 126.366 104.159C126.797 104.652 126.746 105.401 126.252 105.831L104.141 125.113 99.4667 119.754 121.578 100.471C122.071 100.041 122.82 100.092 123.25 100.586Z" stroke="#3AC6AB" stroke-width="3" stroke-miterlimit="8" fill="#FFFFFF" fill-rule="evenodd"/><path d="M134.332 112.86 137.448 116.433C137.878 116.927 137.827 117.675 137.334 118.106L115.223 137.388 110.548 132.028 132.66 112.746C133.153 112.315 133.902 112.367 134.332 112.86Z" stroke="#3AC6AB" stroke-width="3" stroke-miterlimit="8" fill="#FFFFFF" fill-rule="evenodd"/><path d="M145.414 125.134 148.53 128.707C148.96 129.201 148.909 129.95 148.416 130.38L126.304 149.662 121.63 144.302 143.741 125.02C144.235 124.59 144.983 124.641 145.414 125.134Z" stroke="#3AC6AB" stroke-width="3" stroke-miterlimit="8" fill="#FFFFFF" fill-rule="evenodd"/><path d="M128.365 47.7886C130.734 45.6177 134.413 45.7778 136.584 48.1462L152.307 65.2992C154.478 67.6676 154.318 71.3475 151.949 73.5184L74.1489 144.832C71.7805 147.003 68.1006 146.843 65.9297 144.474L50.207 127.321C48.036 124.953 48.1961 121.273 50.5645 119.102Z" stroke="#3AC6AB" stroke-width="3" stroke-miterlimit="8" fill="#FFFFFF" fill-rule="evenodd"/><path d="M54.5001 116.5 77.9001 142.5" stroke="#3AC6AB" stroke-width="3" stroke-miterlimit="8" fill="none" fill-rule="evenodd"/><path d="M58.5001 113.5 81.9001 139.5" stroke="#3AC6AB" stroke-width="3" stroke-miterlimit="8" fill="none" fill-rule="evenodd"/><path d="M0 0 74.9457 67.1057" stroke="#3AC6AB" stroke-width="3" stroke-miterlimit="8" fill="none" fill-rule="evenodd" transform="matrix(1 0 0 -1 69.5001 124.606)"/><path d="M155.624 38.6054 167.645 36.3898 164.561 48.218Z" stroke="#3AC6AB" stroke-width="3" stroke-miterlimit="8" fill="#FFFFFF" fill-rule="evenodd"/><path d="M130.5 46.5001C134.543 44.3974 138.587 42.2949 143.087 40.9616 147.587 39.6282 157.5 38.5001 157.5 38.5001L157.5 38.5001" stroke="#3AC6AB" stroke-width="3" stroke-miterlimit="8" fill="none" fill-rule="evenodd"/><path d="M0 7.8C3.98331 5.74992 7.96672 3.69995 12.4 2.4 16.8334 1.09995 26.6 0 26.6 0L26.6 0" stroke="#3AC6AB" stroke-width="3" stroke-miterlimit="8" fill="none" fill-rule="evenodd" transform="matrix(0.134606 -0.990899 -0.990899 -0.134606 161.266 73.4181)"/><text font-family="Berlin Sans FB,Berlin Sans FB_MSFontService,sans-serif" font-weight="400" font-size="153" transform="translate(195.17 144)">artfolio</text><path d="M102.5 36.5001 110.998 32.6579 115 24.5001 119.002 32.6579 127.5 36.5001 119.002 40.3422 115 48.5001 110.998 40.3422Z" stroke="#3AC6AB" stroke-width="3" stroke-miterlimit="8" fill="#FFFFFF" fill-rule="evenodd"/><path d="M86.5001 150.5 94.6579 146.658 98.5001 138.5 102.342 146.658 110.5 150.5 102.342 154.342 98.5001 162.5 94.6579 154.342Z" stroke="#3AC6AB" stroke-width="3" stroke-miterlimit="8" fill="#FFFFFF" fill-rule="evenodd"/></g></svg>