<?xml version="1.0" encoding="utf-8"?>

<svg version="1.0" id="svgRoot" xmlns:svg="http://www.w3.org/2000/svg"
	 xmlns="http://www.w3.org/2000/svg" xmlns:xlink="http://www.w3.org/1999/xlink" x="0px" y="0px" viewBox="0 0 588.77 528.39"
	 style="enable-background:new 0 0 588.77 528.39;" xml:space="preserve">
<style type="text/css">
	.st0{fill-rule:evenodd;clip-rule:evenodd;fill:#1B1918;}
	.st1{fill:none;}
	.st2{fill-rule:evenodd;clip-rule:evenodd;fill:#004394;}
</style>
<g>
	<g id="rootGroup">
		<g id="Layer1000">
			<path class="st0" d="M456.84,364.46l7.09-7.09l-2.74-7.15l11.18-11.18l7.15,2.74l7.12-7.12l-48.02-18.33
				c0.53,0.3,1.03,0.67,1.47,1.11c1.36,1.36,2.24,2.75,2.81,4.17c0.56,1.39,0.81,2.81,0.9,4.25c0,0.02,0,0.04,0.01,0.06
				c0.02,0.35,0,0.75-0.07,1.18c-0.08,0.58-0.24,1.21-0.47,1.86L456.84,364.46z M430.67,326.7c2.03,2.03,4.74,1.91,6.83,0.88
				c1.12,0.61,1.47,1.63,1.03,3.08c-0.43,1.44-0.43,2.2,0.01,2.29c2.4,0.35,4.59-4.62,4.45-6.97c-0.17-2.77-0.93-5.39-3.48-7.95
				c-2.36-2.36-6.54-2.38-8.89-0.03l0.04,0C428.28,320.38,428.29,324.32,430.67,326.7z M458,341.83l-3.89-9.92l9.89,3.93L458,341.83
				z M487.34,333.96l6.55-6.55l-10.76-10.76l-6.39-6.36l0,0l-1.4-1.4l-7.61-7.61l3.7-3.7c1.59-1.59,3.69-2.75,5.37-2.77
				c1.77,0.03,3.25,0.65,4.43,1.83c2.49,2.49,2.67,6.53,0.27,8.93l-1.1,1.1l2.57,7.03l20.34,4.29l8.01-8.01l-19.42-4.24
				c1.13-2.58,1.36-4.18,0.89-6.92c-0.57-3.32-1.95-6.09-4.15-8.28l-0.85-0.85c-3.61-3.61-6.6-4.25-10.57-4.25
				c-3.92,0.02-8.23,1.59-11.88,5.24l-10.66,10.66L487.34,333.96z M478.13,277.89l6.5,6.5l8.04-8.04l26.14,26.14l6.58-6.58
				l-26.14-26.14l8.02-8.02l-6.5-6.5L478.13,277.89z"/>
			<path class="st0" d="M329.56,84.12l72.9,72.9c1.75,3.42,3.36,6.9,4.81,10.45c2.26,5.52,4.15,11.2,5.59,17.03L312.49,84.12
				l-67.05-67.05l-0.01-0.01l-67.05,67.05l-24.53,24.53h-17.07l24.53-24.53L245.43,0c172.49,80.55,306.13,239.64,35.04,390.66
				c-10.42,5.8-2.13,15.64,6.07,9.51c248.76-185.86,93.28-304.69,3.82-355.24L329.56,84.12z M284.63,404.36
				c-4.78,15.44-17.66,9.38-27.58,30.38c-3.75,7.93-28.23-25.37-19.55-26.58c22.97-3.21,21.06-17.27,37.14-17.27
				c0.26,0.03,0.51,0.07,0.75,0.11c-1.97,2.04-2.81,4.28-2.82,6.37l-0.01,0c0,1.49,0.45,2.89,1.25,4.08
				c0.77,1.14,1.86,2.08,3.17,2.7C279.11,405.15,281.81,405.38,284.63,404.36z M442.44,197.01l44.16,44.16l4.27,4.27l-4.27,4.27
				L249.7,486.6l-4.27,4.27l-4.27-4.27L136.73,382.16l2.83,0.02h0.13l13.68-0.16v0.03h0.13v-0.03l0.15,0l91.78,91.78L473.8,245.43
				l-31.27-31.27C442.89,208.41,442.86,202.69,442.44,197.01z M114.77,360.2L4.27,249.7L0,245.43l4.27-4.27l77.33-77.33
				c5.1-0.05,10.56,0.37,15.39,1.68l-79.92,79.92L119.53,347.9l-2.95,7.61L114.77,360.2z"/>
			<path class="st1" d="M79.26,117.08h280.8v256.56H79.26V117.08z"/>
			<path class="st0" d="M461.22,395.16l-11.74-15.86l7.09-7.09l0.71,0.99l-6.16,6.16l4.63,6.24l5.82-5.82l0.73,1.01l-5.8,5.8
				l5.64,7.65L461.22,395.16z M465.94,383.01c-1.59-1.59-2.49-3.34-2.72-5.26c-0.23-1.92,0.26-3.48,1.46-4.68
				c0.96-0.96,2.08-1.38,3.36-1.26c1.28,0.12,2.51,0.78,3.69,1.96c1.61,1.61,2.53,3.36,2.77,5.26c0.24,1.9-0.25,3.45-1.46,4.66
				c-1,1-2.13,1.44-3.38,1.32C468.41,384.9,467.17,384.24,465.94,383.01z M465.54,374.12c-0.9,0.9-1.21,2.11-0.96,3.64
				c0.26,1.53,1.04,2.95,2.35,4.26c0.95,0.95,1.88,1.48,2.8,1.61c0.92,0.12,1.74-0.17,2.45-0.88c0.91-0.91,1.23-2.12,0.97-3.65
				c-0.26-1.52-1.07-2.96-2.42-4.31c-0.91-0.91-1.83-1.42-2.76-1.53C467.04,373.14,466.23,373.43,465.54,374.12z M479.21,377.18
				l-0.92,0.92l-7.73-10.49l0.89-0.89l2.02,2.74c-0.2-1.78-0.25-3.09-0.14-3.92c0.1-0.84,0.37-1.47,0.8-1.9
				c0.14-0.14,0.31-0.27,0.49-0.36c0.19-0.1,0.39-0.17,0.61-0.22l0.75,0.81c-0.22,0.06-0.41,0.14-0.59,0.24
				c-0.18,0.1-0.33,0.21-0.45,0.33c-0.25,0.25-0.43,0.59-0.54,1.03c-0.11,0.43-0.18,1.03-0.2,1.81c0,1.16,0.08,2.09,0.26,2.78
				c0.18,0.69,0.49,1.35,0.94,1.96L479.21,377.18z M484.11,372.28l-7.75-10.47l0.95-0.95l1.14,1.6c0.03-1.1,0.18-2.06,0.46-2.87
				c0.28-0.8,0.7-1.49,1.26-2.05c0.6-0.6,1.22-0.93,1.86-0.97c0.64-0.04,1.3,0.19,2,0.7c-0.01-1.19,0.12-2.22,0.4-3.09
				c0.27-0.87,0.68-1.58,1.24-2.13c0.7-0.7,1.45-1.04,2.26-1.02c0.8,0.02,1.58,0.41,2.33,1.15c0.17,0.17,0.35,0.37,0.56,0.63
				c0.21,0.25,0.48,0.6,0.81,1.04l4.67,6.24l-0.91,0.91l-4.88-6.53c-0.26-0.36-0.49-0.64-0.67-0.86c-0.19-0.22-0.34-0.39-0.46-0.51
				c-0.49-0.49-0.99-0.75-1.51-0.78c-0.53-0.03-1,0.16-1.43,0.59c-0.54,0.54-0.93,1.26-1.17,2.16c-0.24,0.9-0.32,1.94-0.25,3.13
				l5.72,7.46l-0.93,0.93l-4.87-6.54c-0.25-0.32-0.45-0.59-0.63-0.8c-0.17-0.22-0.31-0.37-0.42-0.48c-0.52-0.52-1.05-0.8-1.59-0.85
				c-0.54-0.05-1.02,0.14-1.44,0.57c-0.55,0.55-0.94,1.27-1.17,2.16c-0.24,0.89-0.32,1.94-0.25,3.12l5.61,7.58L484.11,372.28z
				 M505.77,350.62l-0.95,0.95l-0.83-1.11c-0.11,0.91-0.34,1.72-0.66,2.42c-0.32,0.7-0.75,1.33-1.28,1.86
				c-0.93,0.93-2.02,1.35-3.28,1.27c-1.26-0.08-2.43-0.66-3.51-1.74c-0.8-0.8-1.39-1.73-1.78-2.82c-0.39-1.07-0.54-2.2-0.44-3.37
				c0.08-1.11,0.37-2.16,0.87-3.13c0.5-0.97,1.28-1.98,2.33-3.03l1.76-1.76L505.77,350.62z M503.04,349.13l-5.22-7.03
				c-0.25,0.21-0.44,0.37-0.56,0.48c-0.12,0.11-0.23,0.21-0.32,0.3c-1.65,1.65-2.53,3.44-2.65,5.37c-0.11,1.93,0.55,3.61,1.98,5.04
				c0.87,0.87,1.78,1.34,2.73,1.42c0.95,0.08,1.79-0.25,2.52-0.97c0.51-0.51,0.88-1.14,1.13-1.92
				C502.91,351.05,503.04,350.16,503.04,349.13z M506.75,342.77c0.23,0.29,0.44,0.55,0.63,0.77c0.19,0.22,0.36,0.4,0.51,0.56
				c0.55,0.55,1.08,0.85,1.59,0.9c0.51,0.04,0.99-0.16,1.44-0.61c0.26-0.26,0.47-0.59,0.65-1.01c0.18-0.42,0.33-0.94,0.46-1.56
				l0.79,0.79c-0.09,0.56-0.24,1.05-0.44,1.48c-0.21,0.43-0.47,0.81-0.81,1.15c-0.68,0.68-1.43,1.02-2.23,1
				c-0.8-0.02-1.57-0.39-2.29-1.12c-0.24-0.24-0.49-0.51-0.74-0.81c-0.25-0.3-0.49-0.61-0.73-0.94l-3.98-5.37l-1.64,1.64l-0.61-0.8
				l1.64-1.64l-1.67-2.29l0.93-0.93l1.67,2.29l2.51-2.51l0.61,0.81l-2.5,2.5L506.75,342.77z M513.2,324.89l7.78,10.52l-0.96,0.96
				l-1.19-1.64c-0.05,1.15-0.23,2.14-0.54,2.97c-0.31,0.84-0.75,1.54-1.32,2.11c-0.7,0.7-1.46,1.02-2.28,0.97
				c-0.82-0.05-1.63-0.46-2.41-1.25c-0.16-0.16-0.34-0.37-0.56-0.64c-0.22-0.27-0.45-0.57-0.7-0.91l-4.67-6.27l0.95-0.95l4.87,6.57
				c0.22,0.3,0.43,0.56,0.61,0.79c0.18,0.22,0.35,0.41,0.5,0.56c0.51,0.51,1.02,0.77,1.55,0.8c0.53,0.03,1.02-0.19,1.47-0.64
				c0.55-0.55,0.96-1.29,1.22-2.22c0.26-0.92,0.37-2,0.31-3.24l-5.61-7.56L513.2,324.89z M524.32,332.07l-0.92,0.92l-7.73-10.49
				l0.89-0.89l2.02,2.74c-0.2-1.78-0.25-3.09-0.14-3.92c0.1-0.84,0.37-1.47,0.8-1.9c0.14-0.14,0.31-0.27,0.49-0.36
				c0.19-0.1,0.39-0.17,0.61-0.22l0.75,0.81c-0.22,0.06-0.41,0.14-0.59,0.24c-0.18,0.1-0.33,0.21-0.45,0.33
				c-0.25,0.25-0.43,0.59-0.54,1.03c-0.11,0.43-0.18,1.03-0.2,1.81c0,1.16,0.08,2.09,0.26,2.78c0.18,0.69,0.49,1.35,0.94,1.96
				L524.32,332.07z M536.25,320.14l-0.95,0.95l-0.83-1.11c-0.11,0.91-0.34,1.72-0.66,2.42c-0.32,0.7-0.75,1.33-1.28,1.86
				c-0.93,0.93-2.02,1.35-3.28,1.27c-1.26-0.08-2.43-0.66-3.5-1.74c-0.8-0.8-1.39-1.73-1.78-2.82c-0.39-1.07-0.54-2.2-0.44-3.37
				c0.08-1.11,0.37-2.16,0.87-3.13c0.5-0.97,1.28-1.98,2.33-3.03l1.76-1.76L536.25,320.14z M533.52,318.65l-5.22-7.03
				c-0.25,0.21-0.44,0.37-0.56,0.48c-0.12,0.11-0.23,0.21-0.32,0.3c-1.65,1.65-2.53,3.44-2.65,5.37c-0.11,1.93,0.55,3.61,1.98,5.04
				c0.87,0.87,1.78,1.34,2.73,1.42c0.95,0.08,1.79-0.25,2.52-0.97c0.51-0.51,0.88-1.14,1.13-1.92
				C533.39,320.57,533.52,319.68,533.52,318.65z M536.86,317.16l-0.24-1.16c0.88-0.01,1.65-0.13,2.31-0.37
				c0.66-0.24,1.23-0.59,1.69-1.05c0.58-0.58,0.91-1.2,0.99-1.88c0.08-0.67-0.1-1.23-0.55-1.68c-0.6-0.6-1.95-0.68-4.04-0.25
				l-0.23,0.05c-1.63,0.33-2.76,0.45-3.39,0.37c-0.63-0.08-1.16-0.34-1.59-0.77c-0.64-0.64-0.91-1.44-0.8-2.39
				c0.11-0.95,0.59-1.84,1.43-2.68c0.51-0.51,1.07-0.93,1.69-1.26c0.61-0.33,1.29-0.57,2.03-0.72l0.74,1.08
				c-0.84,0.17-1.58,0.4-2.2,0.69c-0.63,0.29-1.14,0.64-1.54,1.04c-0.55,0.55-0.87,1.13-0.96,1.74c-0.09,0.61,0.06,1.11,0.45,1.51
				c0.48,0.48,1.75,0.51,3.82,0.09l0.23-0.05c1.71-0.35,2.9-0.48,3.57-0.37c0.67,0.1,1.26,0.4,1.76,0.91
				c0.69,0.69,0.98,1.53,0.87,2.53c-0.11,0.99-0.6,1.93-1.47,2.8c-0.65,0.65-1.34,1.12-2.1,1.43
				C538.56,317.07,537.74,317.2,536.86,317.16z"/>
			<path class="st2" d="M302.08,476.25c-2.05-1.26-4.02-2.19-5.89-2.78c-1.87-0.59-3.64-0.89-5.3-0.91
				c-1.66-0.02-3.19,0.12-4.61,0.42c-3.32,0.75-6.32,2.31-9.02,4.68l-22.66,22.66l4.93,4.93c2.08-2.23,5.39-4.57,8.28-2.13
				l22.27,18.83l0.87,1.96l0.8,1.81l1.18,2.68l0.94-0.94l1.77-1.74l1.76-1.81l0.02-0.02l12.76-12.83c2.33-2.86,3.92-5.9,4.78-9.11
				c0.39-1.38,0.62-2.87,0.69-4.48c0.07-1.61-0.12-3.28-0.54-5.03c-0.43-1.74-1.17-3.54-2.24-5.39c-1.07-1.86-2.55-3.73-4.46-5.64
				C306.24,479.23,304.14,477.51,302.08,476.25z M333.93,487.38l-23.24-23.24l-8.01,8.01l23.24,23.24L333.93,487.38z M309.09,462.54
				l-8.01-8.01l-8.01,8.01l8.01,8.01L309.09,462.54z M343.87,477.43l-9.15-9.15l4.75-4.75c3.76-3.76,5.89-8.22,6.12-13.03
				c0.13-4.65-1.47-8.7-4.75-11.99c-3.26-3.26-7.33-4.88-12.02-4.79c-4.77,0.16-9.15,2.21-12.86,5.91l-12.95,12.95l32.84,32.86
				L343.87,477.43z M332.51,446.85c2.25,2.25,1.58,6.18-0.79,8.55l-4.63,4.6l-7.77-7.77l4.63-4.63
				C326.3,445.26,330.25,444.59,332.51,446.85z M362.51,458.8l22.64-22.64l-7.97-7.97l-14.63,14.63l-24.88-24.88l-8.01,8.01
				L362.51,458.8z M361.65,403.28c-0.11,6.66,2.14,12.33,6.69,16.89c4.57,4.57,10.23,6.81,16.87,6.66
				c6.76-0.36,12.14-2.48,17.2-7.52c5.04-5.04,7.17-10.42,7.53-17.21c0.18-6.64-2.04-12.31-6.63-16.9
				c-4.57-4.57-10.25-6.8-16.92-6.66c-6.85,0.34-12.26,2.44-17.29,7.46C364.09,391.02,361.99,396.42,361.65,403.28z M386.03,390.29
				c3.65-0.24,6.59,0.79,8.95,3.15c2.39,2.39,3.42,5.33,3.15,8.95c-0.26,3.63-1.11,6.11-3.81,8.81c-2.74,2.74-5.22,3.59-8.81,3.83
				c-3.63,0.25-6.56-0.8-8.94-3.18c-2.35-2.35-3.4-5.28-3.18-8.94c0.22-3.59,1.06-6.07,3.82-8.83
				C379.92,391.38,382.4,390.54,386.03,390.29z M387.49,367.95l32.93,32.93l8.01-8.01l-12.13-12.13l21.61,2.59l-2.62-21.58
				l12.13,12.13l8.01-8.01l-32.93-32.93l-1.65,1.65l5.03,36.72l-36.75-5L387.49,367.95z M278.34,491.32
				c0.77-0.87,1.69-1.76,2.76-2.66c1.07-0.9,2.27-1.72,3.62-2.44c1.35-0.72,2.79-1.15,4.34-1.28c1.54-0.13,3.18,0.14,4.9,0.81
				c1.72,0.67,3.51,1.93,5.34,3.77c1.87,1.87,3.14,3.68,3.79,5.42c0.66,1.74,0.92,3.38,0.79,4.93c-0.13,1.54-0.55,2.98-1.26,4.31
				c-0.71,1.33-1.52,2.54-2.44,3.62c-0.92,1.08-1.81,2.01-2.69,2.78c-0.87,0.77-1.53,1.39-1.99,1.85l-9.46-9.46l-9.56-9.66
				C276.95,492.86,277.57,492.19,278.34,491.32z"/>
		</g>
	</g>
	<svg:script>
		<![CDATA[                                  
var svgElement = document.getElementById("svgRoot"); 
var gElement = document.getElementById("rootGroup"); 
var b = gElement.getBBox();                            
svgElement.setAttribute("width", b.width);           
svgElement.setAttribute("height", b.height);         
svgElement.setAttribute("viewBox", [b.x,b.y,b.width,b.height]); 

			]]>
	</svg:script>
</g>
</svg>
