<?xml version="1.0" encoding="utf-8"?>
<!-- Generator: Adobe Illustrator 26.4.1, SVG Export Plug-In . SVG Version: 6.00 Build 0)  -->
<svg version="1.0" id="katman_1" xmlns="http://www.w3.org/2000/svg" xmlns:xlink="http://www.w3.org/1999/xlink" x="0px" y="0px"
	 viewBox="0 0 841.89 595.28" style="enable-background:new 0 0 841.89 595.28;" xml:space="preserve">
<style type="text/css">
	.st0{fill:#1F2023;}
</style>
<path class="st0" d="M77.4,255.2c-18.02,0-33.22,14.72-33.22,32.73c0,18.01,15.2,32.61,33.22,32.61c9.72,0,17.01-3.15,22.75-9.13
	c5.9-5.9,7.79-14.23,7.79-20.93c0-2.07-0.17-4-0.49-5.6H77.4v9h21.29c-0.64,5.02-2.32,8.64-4.87,11.19
	c-3.11,3.11-7.9,6.57-16.43,6.57c-13.15,0-23.48-10.57-23.48-23.73c0-13.16,10.33-23.85,23.48-23.85c7.09,0,12.23,2.86,16.06,6.45
	l6.33-6.33C94.45,259.1,87.36,255.2,77.4,255.2z M249.94,257.39v61.93h9.25v-61.93H249.94z M501.08,260.92
	c-3.77,0-7.02,1.34-9.73,3.89c-2.71,2.55-4.14,5.58-4.14,9.25c0,2.66,1.37,5.82,4.14,9.49c-3.08,1.86-5.43,4.39-7.18,7.42
	s-2.68,6.07-2.68,9.37c0,5.69,2.04,10.48,6.08,14.36c4.04,3.88,8.93,5.84,14.72,5.84c5.1,0,9.54-1.66,13.26-5.11l3.89,5.11
	l5.48-4.14l-5.35-6.94l6.69-10.59l-5.72-3.53l-5.11,8.52l-18.98-24.7c-1.22-1.59-1.83-3.3-1.83-5.11c0-1.91,0.6-3.41,1.83-4.5
	c1.22-1.09,2.82-1.58,4.62-1.58c2.82,0,4.96,1.98,6.45,5.96l6.33-3.41c-0.9-2.76-2.54-4.98-4.75-6.81
	C506.9,261.88,504.27,260.92,501.08,260.92L501.08,260.92z M576.03,260.92c-8.4,0-15.49,2.83-21.17,8.52
	c-5.69,5.69-8.52,12.79-8.52,21.29c0,8.51,2.83,15.61,8.52,21.29c5.69,5.69,12.77,8.52,21.17,8.52c4.62,0,8.84-0.84,12.78-2.68
	c3.93-1.84,7.25-4.41,9.86-7.54l-5.11-5.11c-4.84,5.53-10.67,8.4-17.52,8.4c-6.22,0-11.54-2.13-15.82-6.33
	c-4.28-4.2-6.45-9.75-6.45-16.55c0-6.8,2.17-12.23,6.45-16.43c4.28-4.2,9.6-6.33,15.82-6.33c6.7,0,11.94,2.34,15.82,7.18l5.11-4.87
	C591.59,264.07,584.64,260.92,576.03,260.92L576.03,260.92z M339.61,262.25l-21.54,57.07h8.15l5.6-15.45h23.97l5.48,15.45h8.15
	l-21.54-57.07C347.89,262.25,339.61,262.25,339.61,262.25z M647.94,262.25v57.07h7.3v-57.07H647.94z M408.24,268.22v12.05h-6.81
	v6.69h6.81v20.44c0,3.99,1.13,7.07,3.29,9.25c2.15,2.18,5.28,3.29,9.37,3.29c2.34,0,4.25-0.41,5.84-1.1l-2.56-6.21
	c-0.9,0.43-1.96,0.61-3.29,0.61c-3.51,0-5.35-2.08-5.35-6.33v-19.96h9.61v-6.69h-9.61v-12.05H408.24L408.24,268.22z M668.87,268.22
	v12.05h-6.81v6.69h6.81v20.44c0,3.99,1.13,7.07,3.29,9.25c2.15,2.18,5.28,3.29,9.37,3.29c2.34,0,4.25-0.41,5.84-1.1l-2.56-6.21
	c-0.9,0.43-1.96,0.61-3.29,0.61c-3.51,0-5.23-2.08-5.23-6.33v-19.96h9.49v-6.69h-9.49v-12.05H668.87z M343.63,271.26h0.24
	l9.37,25.67h-18.98C334.26,296.93,343.63,271.26,343.63,271.26z M132.15,278.44c-11.64,0-21.05,8.85-21.05,21.05
	c0,12.12,9.41,21.05,21.05,21.05c11.64,0,21.17-8.93,21.17-21.05C153.32,287.29,143.79,278.44,132.15,278.44z M178.27,278.44
	c-11.64,0-21.17,8.85-21.17,21.05c0,12.12,9.53,21.05,21.17,21.05c11.64,0,21.17-8.93,21.17-21.05
	C199.44,287.29,189.91,278.44,178.27,278.44z M223.41,278.44c-10.52,0-20.2,9.29-20.2,21.17c0,11.8,9.68,20.93,20.2,20.93
	c5.02,0,9-2.19,11.07-4.75h0.37v3.04c0,8.05-4.26,12.29-11.19,12.29c-5.66,0-9.28-4-10.71-7.42l-8.03,3.29
	c2.31,5.58,8.53,12.53,18.74,12.53c10.84,0,19.96-6.48,19.96-22.02v-37.72h-8.76v3.41h-0.37
	C232.41,280.71,228.43,278.44,223.41,278.44L223.41,278.44z M283.52,278.44c-10.84,0-19.83,8.54-19.83,21.05
	c0,11.8,8.97,21.05,20.93,21.05c9.65,0,15.21-5.82,17.52-9.25l-7.18-4.87c-2.39,3.51-5.64,5.84-10.34,5.84
	c-4.7,0-8.07-2.1-10.22-6.33l28.11-11.68l-0.97-2.43C299.77,287.12,294.44,278.44,283.52,278.44L283.52,278.44z M445.59,278.92
	c-4.2,0-7.9,1.13-10.95,3.29c-3.06,2.15-4.5,4.94-4.5,8.4c0,3.03,1.05,5.4,3.29,7.18c2.23,1.78,4.56,3.01,7.06,3.65l7.91,1.95
	c3.56,0.9,5.35,2.56,5.35,5.11c0,1.65-0.73,3.01-2.19,4.02c-1.46,1.01-3.31,1.58-5.6,1.58c-4.99,0-8.51-2.53-10.59-7.42l-6.57,2.8
	c1.33,3.19,3.48,5.78,6.33,7.91c2.84,2.12,6.35,3.16,10.71,3.16c4.52,0,8.2-1.19,11.07-3.53s4.38-5.25,4.38-8.76
	c0-2.6-0.92-4.86-2.68-6.94c-1.76-2.07-4.49-3.53-8.15-4.38l-7.67-1.83c-3.46-0.79-5.23-2.39-5.23-4.62c0-1.54,0.82-2.75,2.31-3.65
	c1.49-0.9,3.3-1.34,5.48-1.34c4.52,0,7.45,1.78,8.88,5.23l6.45-2.68c-1.17-2.92-3.13-5.12-5.84-6.69
	C452.13,279.79,449.05,278.92,445.59,278.92L445.59,278.92z M777.9,278.92c-5.58,0-10.16,2.11-13.75,6.21
	c-3.59,4.09-5.35,8.92-5.35,14.6c0,6.01,1.78,11.03,5.48,14.97c3.69,3.93,8.46,5.84,14.36,5.84c4.25,0,7.91-1,10.83-3.04
	c2.92-2.05,5.05-4.64,6.33-7.67l-6.57-2.68c-1.86,4.46-5.45,6.69-10.71,6.69c-3.24,0-6.1-1.12-8.52-3.41
	c-2.42-2.28-3.68-5.44-3.89-9.37H797v-1.34c0-6.32-1.75-11.31-5.23-15.09C788.29,280.87,783.69,278.92,777.9,278.92L777.9,278.92z
	 M393.39,279.29c-2.76,0-5.35,0.65-7.67,1.95c-2.31,1.3-3.9,3.07-4.75,5.35h-0.24v-6.33h-7.06v39.06h7.3v-21.42
	c0-3.56,1.15-6.35,3.41-8.4c2.26-2.05,5.13-3.04,8.64-3.04c0.96,0,1.91,0.02,2.92,0.12v-7.18
	C394.99,279.31,394.19,279.29,393.39,279.29L393.39,279.29z M753.07,279.29c-2.18,0-4.38,0.69-6.69,2.07
	c-2.31,1.38-3.88,3.11-4.62,5.23h-0.37v-6.33h-6.94v39.06h7.3v-21.42c0-3.4,1-6.17,3.04-8.27c2.05-2.1,4.4-3.04,7.06-3.04
	c1.65,0,2.94,0.12,3.89,0.49l2.8-6.81C757.06,279.63,755.25,279.29,753.07,279.29L753.07,279.29z M604.38,280.26v23.85
	c0,5,1.37,9.07,3.89,12.05c2.52,2.98,6.18,4.38,11.07,4.38c2.55,0,5.02-0.65,7.3-1.95c2.28-1.3,3.87-2.88,4.99-4.75H632v5.48h7.06
	v-39.06h-7.42v21.54c0,3.19-0.89,5.95-2.8,8.4c-1.91,2.44-4.39,3.65-7.42,3.65c-6.43,0-9.61-3.67-9.61-10.95v-22.63H604.38
	L604.38,280.26z M691.75,280.26v23.85c0,5,1.25,9.07,3.77,12.05c2.52,2.98,6.18,4.38,11.07,4.38c2.55,0,5.02-0.65,7.3-1.95
	c2.28-1.3,3.99-2.88,5.11-4.75h0.24v5.48h7.06v-39.06H719v21.54c0,3.19-1.01,5.95-2.92,8.4c-1.91,2.44-4.39,3.65-7.42,3.65
	c-6.43,0-9.61-3.67-9.61-10.95v-22.63C699.05,280.26,691.75,280.26,691.75,280.26z M777.77,285.62c3.72,0,6.51,1.02,8.4,3.04
	c1.89,2.02,2.88,4.22,3.04,6.45h-22.63c0.74-2.87,2.14-5.23,4.14-6.94C772.71,286.47,775.06,285.62,777.77,285.62z M283.88,286.59
	c3.67,0,6.75,1.87,7.79,4.5l-18.86,7.79C272.57,290.75,279.18,286.59,283.88,286.59z M132.15,286.71c6.38,0,11.92,5.2,11.92,12.78
	c0,7.49-5.55,12.78-11.92,12.78c-6.38,0-11.8-5.28-11.8-12.78C120.35,291.91,125.78,286.71,132.15,286.71L132.15,286.71z
	 M178.27,286.71c6.38,0,11.92,5.2,11.92,12.78c0,7.49-5.55,12.78-11.92,12.78c-6.38,0-11.92-5.28-11.92-12.78
	C166.34,291.91,171.89,286.71,178.27,286.71L178.27,286.71z M224.26,286.83c6.3,0,11.19,5.36,11.19,12.78
	c0,7.33-4.9,12.65-11.19,12.65c-6.38,0-11.68-5.32-11.68-12.65C212.58,292.2,217.89,286.83,224.26,286.83z M495.36,288.9
	l16.18,21.17c-2.39,2.55-5.53,3.77-9.25,3.77c-3.93,0-7.24-1.22-9.98-3.77c-2.74-2.55-4.14-5.85-4.14-9.73
	c0-2.28,0.64-4.38,1.95-6.45C491.43,291.82,493.18,290.13,495.36,288.9L495.36,288.9z"/>
</svg>
