<?xml version="1.0" encoding="UTF-8"?>
<svg id="katman_1" data-name="katman 1" xmlns="http://www.w3.org/2000/svg" version="1.1" xmlns:xlink="http://www.w3.org/1999/xlink" viewBox="0 0 841.89 595.28">
  <defs>
    <style>
      .cls-1 {
        fill: #000;
      }

      .cls-1, .cls-2 {
        stroke-width: 0px;
      }

      .cls-2 {
        fill: none;
      }

      .cls-3 {
        clip-path: url(#clippath);
      }
    </style>
    <clipPath id="clippath">
      <rect class="cls-2" x="65.51" y="253.84" width="710.96" height="87.15"/>
    </clipPath>
  </defs>
  <g class="cls-3">
    <g>
      <path class="cls-1" d="M339.03,288.35c-11.94-.31-25.05-.78-25.05-9.37,0-6.09,6.55-8.9,18.75-8.9,15.18,0,32.93,4.76,43.63,12.65l3.98-16.71c-12.44-7.88-28.36-12.18-45.94-12.18-20.74,0-38.48,6.24-38.48,26.08s19.24,25.3,41.96,25.93c17.75.47,26.21,1.25,26.21,8.9,0,5.78-6.14,10-21.07,10-18.91,0-32.18-5-45.12-12.96l-3.98,16.55c10.62,7.96,32.02,12.65,47.44,12.65,24.22,0,40.81-9.53,40.81-27.33,0-20.3-18.75-24.68-43.13-25.3h0Z"/>
      <path class="cls-1" d="M121.4,306c-9.12,0-16.92-14.37-21.07-50.45h-34.83v83.72h18.25v-64.97h1.66c5.14,35.61,20.57,49.04,35.99,49.04s31.02-13.43,35.99-49.04h1.66v64.97h18.41v-83.71h-34.84c-4.15,36.08-11.94,50.45-21.23,50.45h0Z"/>
      <path class="cls-1" d="M228.72,255.56l-46.61,83.72h20.23l11.74-21.24h48.35l11.74,21.24h21.07l-46.78-83.72h-19.74ZM223.16,301.63l15.1-27.33,15.1,27.33h-30.22,0Z"/>
      <path class="cls-1" d="M432.6,288.35c-11.94-.31-25.05-.78-25.05-9.37,0-6.09,6.47-8.9,18.75-8.9,15.26,0,33.01,4.69,43.63,12.65l3.98-16.71c-12.44-7.81-28.36-12.18-45.95-12.18-20.74,0-38.48,6.24-38.48,26.08s19.24,25.3,41.96,25.93c17.75.47,26.21,1.25,26.21,8.9,0,5.78-6.14,10-21.07,10-18.91,0-32.18-5-45.12-12.96l-3.98,16.55c10.62,7.96,32.02,12.65,47.44,12.65,24.22,0,40.81-9.53,40.81-27.33,0-20.3-18.75-24.68-43.13-25.3h0Z"/>
      <path class="cls-1" d="M680.57,255.56v16.24h38.82v67.47h18.24v-67.47h38.82v-16.24h-95.88Z"/>
      <path class="cls-1" d="M519.52,255.56l-46.61,83.72h20.23l11.74-21.24h48.35l11.74,21.24h21.07l-46.78-83.72h-19.74ZM513.96,301.63l15.11-27.33,15.1,27.33h-30.22,0Z"/>
      <path class="cls-1" d="M646.26,306.94c20.24-1.56,30.36-10,30.36-25.46,0-16.24-12.61-25.93-33.34-25.93h-52.58v83.72h18.25v-32.01c24.22-.31,33.67,13.27,43.63,28.27l2.49,3.75h22.23l-7.96-11.55c-4.98-6.72-14.27-17.18-23.05-20.77h0ZM635.32,291.32h-26.38v-19.53h26.21c14.76,0,22.72.31,22.72,9.68s-7.96,9.84-22.56,9.84Z"/>
    </g>
  </g>
</svg>