<?xml version="1.0" encoding="utf-8"?>
<!-- Generator: Adobe Illustrator 25.0.1, SVG Export Plug-In . SVG Version: 6.00 Build 0)  -->
<svg version="1.0" id="katman_1" xmlns="http://www.w3.org/2000/svg" xmlns:xlink="http://www.w3.org/1999/xlink" x="0px" y="0px"
	 viewBox="0 0 560 400" style="enable-background:new 0 0 560 400;" xml:space="preserve">
<style type="text/css">
	.st0{fill:#EE4023;}
	.st1{fill:#231F20;}
	.st2{fill-rule:evenodd;clip-rule:evenodd;fill:#0DB04B;}
	.st3{fill:#426AB2;}
</style>
<g transform="matrix(1.54321 0 0 1.54321 -76.8673 -57.7161)">
	<path class="st0" d="M326.7,137.8l-31.9,56h64.4L326.7,137.8z"/>
	<path class="st1" d="M284.3,146c2.2,2.2,3.8,4.9,3.3,8.3c-0.3,2.1-1.5,4.1-3.6,4.9c-1.6,0.8-3.9,0.4-5.3-0.5c-3.8-2-4.7-6-6.3-9.4
		c-1.8-2.3-4.7-3.3-7.6-2.5c-5.4,1.6-6.7,7.4-7.7,12.1c-1.4,6.8-1.4,14.9,0.8,21.2c1.6,4.1,5.6,7.7,10.1,7.8
		c5.9,0.6,11.2-1.4,15-5.9l0.7-0.9c1.3,1.1,2.6,2.2,3.7,3.4c-6.8,9-17.5,12.3-28.6,10c-7.6-1.4-15.2-6.6-18.4-14
		c-3.4-7.2-3-16.9,0.5-24c4.1-9.3,13.7-14.3,23.1-15.3C271.5,140.5,278.7,141.7,284.3,146"/>
	<circle class="st2" cx="196.6" cy="168.1" r="28.1"/>
	<path class="st3" d="M103.2,142.1h52.2v51.5h-52.2L103.2,142.1z"/>
</g>
</svg>
