<?xml version="1.0" encoding="utf-8"?>
<!-- Generator: Adobe Illustrator 24.3.0, SVG Export Plug-In . SVG Version: 6.00 Build 0)  -->
<svg version="1.0" id="katman_1" xmlns="http://www.w3.org/2000/svg" xmlns:xlink="http://www.w3.org/1999/xlink" x="0px" y="0px"
	 viewBox="0 0 841.89 595.28" style="enable-background:new 0 0 841.89 595.28;" xml:space="preserve">
<style type="text/css">
	.st0{fill:#00A596;}
	.st1{fill:#E12364;}
	.st2{fill:#FFFFFF;}
</style>
<g>
	<g>
		<path class="st0" d="M296.65,249.68v224.55l-223.9-64.21V185.47L296.65,249.68z"/>
		<path class="st1" d="M147.39,185.44v224.58l223.9-64.21V121.24L147.39,185.44z"/>
		<path class="st2" d="M196.53,254.78l-5.68,1.64l-14.55-22.08h-0.4v26.25l-5.47,1.54v-35.27l6.92-2.01l13.37,20.51h0.4v-24.31
			l5.47-1.58C196.59,219.48,196.53,254.78,196.53,254.78z M217.9,248.66v-3.71h-0.43c-0.91,3.08-3.39,5.43-6.52,6.18
			c-4.14,1.2-8-1.05-9.48-6.18c-2.32-8.18,1.02-17.14,8.15-19.21c2.75-1.22,5.97-0.13,7.41,2.5h0.34v-4.01l5.84-1.67v24.71
			L217.9,248.66z M212.31,246.59c2.9-0.83,4.39-4.26,4.6-8.09c0.18-2.04,0.02-4.1-0.49-6.08c-0.19-2-1.97-3.47-3.97-3.28
			c-0.3,0.03-0.59,0.09-0.88,0.19c-1.79,0.56-3.19,1.95-3.77,3.74c-1.09,3.2-1.19,6.66-0.28,9.91c0.77,2.93,2.38,4.29,4.73,3.61
			C212.24,246.59,212.31,246.59,212.31,246.59z M230.25,237.7v-12.63l-3.77,1.17v-4.66l3.77-1.02v-8.86l5.9-1.7v8.86l5.74-1.67v4.54
			l-5.78,1.64v12.35c-0.01,0.62,0.06,1.25,0.22,1.85c0.31,1.14,1.14,1.61,2.56,1.2c2.29-0.65,2.29-2.59,1.76-4.51
			c-0.08-0.25-0.17-0.5-0.28-0.74l3.09-0.74c0.15,0.31,0.28,0.63,0.37,0.96c1.5,3.64-0.24,7.81-3.88,9.31
			c-0.51,0.21-1.04,0.36-1.58,0.45C233.65,244.77,230.25,242.86,230.25,237.7z M253.72,202.95v5.9l-5.96,1.7v-5.93L253.72,202.95z
			 M247.79,240.01v-24.71l5.87-1.67v24.71L247.79,240.01z M284.02,229.7v-24.71l5.19-1.48v5.13h0.34c0.83-3.65,3.53-6.59,7.1-7.72
			c5.03-1.42,7.5,1.45,7.54,6.42v16.68l-5.9,1.7v-15.9c0-2.93-1.02-4.69-3.43-3.98c-2.41,0.71-5.06,3.64-5.03,8.8V228
			C289.82,228,284.02,229.7,284.02,229.7z M325.19,217.9v-3.74h-0.43c-0.91,3.08-3.39,5.43-6.52,6.18c-4.14,1.2-8-1.05-9.48-6.18
			c-2.32-8.21,1.02-17.17,8.18-19.21c2.73-1.22,5.94-0.15,7.38,2.47h0.37v-3.98l5.81-1.67v24.71L325.19,217.9z M319.6,215.8
			c2.9-0.83,4.39-4.23,4.63-8.09c0.16-2,0.01-4.01-0.43-5.96c-0.19-2-1.97-3.47-3.97-3.28c-0.3,0.03-0.59,0.09-0.88,0.19
			c-1.79,0.57-3.2,1.95-3.8,3.74c-1.09,3.2-1.19,6.66-0.28,9.91C315.64,215.12,317.25,216.48,319.6,215.8z M335.41,214.94v-35.39
			l6.02-1.7v35.42C341.43,213.27,335.41,214.94,335.41,214.94z M182.87,274.54c-5.13,1.42-7.81,5.71-8.21,12.17
			c-0.21,2.76,0.07,5.53,0.83,8.18c0.4,3.63,3.67,6.24,7.3,5.84c0.53-0.06,1.06-0.18,1.56-0.37c4.28-0.96,7.24-4.88,6.98-9.26v-1.73
			l-7.13,2.07v-4.79l13.4-3.86v18.19l-4.6,1.33v-5h-0.37c-1.15,4.16-4.5,7.36-8.71,8.31c-7.91,2.25-13.03-2.38-14.89-8.93
			c-3.09-11.24,1.27-23.93,13.19-27.36c7.26-2.07,12.35,0.68,13.71,5.81c0.26,0.88,0.4,1.8,0.43,2.72l-5.78,3.09
			c0.04-1.04-0.08-2.09-0.37-3.09C189.33,274.85,187.01,273.37,182.87,274.54L182.87,274.54z M218.92,294.89v-3.8h-0.43
			c-0.92,3.07-3.4,5.42-6.52,6.18c-4.14,1.17-8-1.05-9.48-6.33c-2.32-8.18,1.02-17.14,8.18-19.21c2.74-1.23,5.96-0.14,7.38,2.5h0.37
			v-3.8l5.65-1.67v24.71C224.07,293.47,218.92,294.89,218.92,294.89z M213.33,292.82c2.9-0.83,4.39-4.26,4.63-8.09
			c0.16-2.01,0.01-4.03-0.43-5.99c-0.19-2-1.97-3.47-3.97-3.28c-0.3,0.03-0.59,0.09-0.88,0.19c-1.8,0.56-3.21,1.95-3.8,3.74
			c-1.11,3.24-1.19,6.74-0.25,10.04C209.37,292.15,210.98,293.5,213.33,292.82z M229.14,291.96v-35.42l5.9-1.67v35.39
			C235.04,290.26,229.14,291.96,229.14,291.96z M240.04,288.84v-35.42l5.9-1.7v35.42C245.94,287.14,240.04,288.84,240.04,288.84z
			 M271.79,272.19c-0.31,5.28-4.1,9.71-9.26,10.84c-4.54,1.82-9.7-0.39-11.53-4.93c-0.16-0.41-0.29-0.82-0.4-1.25
			c-1.79-6.39-0.28-16.18,9.54-18.99c5.4-1.58,9.26,0.49,10.53,5.4c0.46,1.7,0.71,3.46,0.74,5.22l-15.16,4.35
			c0.12,0.95,0.32,1.89,0.59,2.81c0.27,2.23,2.31,3.83,4.54,3.55c0.34-0.04,0.67-0.12,0.99-0.25c3.01-0.83,4.97-3.72,4.63-6.83
			C267,272.13,271.79,272.19,271.79,272.19z M260.79,261.79c-3.09,0.9-4.63,3.55-4.6,7.75l9.26-2.69c0-0.91-0.12-1.81-0.37-2.69
			c-0.25-1.69-1.82-2.85-3.51-2.6C261.31,261.6,261.04,261.68,260.79,261.79z M275.49,278.74v-24.71l5.47-1.58v4.82h0.28
			c0.37-3.31,2.64-6.09,5.81-7.1c2.09-0.8,4.43,0.24,5.23,2.33c0.09,0.25,0.16,0.5,0.21,0.76c0.46,1.78,0.46,3.65,0,5.44l-5.28,2.22
			c0.32-1.49,0.32-3.02,0-4.51c-0.09-0.78-0.79-1.34-1.57-1.26c-0.12,0.01-0.24,0.04-0.35,0.08c-3.09,0.86-3.83,5.4-3.8,10.72v11.15
			L275.49,278.74L275.49,278.74z M302.3,235.51v5.9l-5.99,1.7v-5.87C296.31,237.23,302.3,235.51,302.3,235.51z M296.34,272.57
			v-24.71l5.87-1.67v24.71L296.34,272.57z M327.78,256.14c-0.29,5.29-4.08,9.73-9.26,10.84c-4.54,1.82-9.7-0.39-11.53-4.93
			c-0.16-0.41-0.29-0.82-0.4-1.25c-1.79-6.39-0.28-16.18,9.54-18.99c5.44-1.58,9.26,0.49,10.56,5.4c0.45,1.71,0.69,3.46,0.74,5.22
			l-15.16,4.35c0.12,0.95,0.31,1.88,0.56,2.81c0.29,2.25,2.35,3.84,4.6,3.55c0.33-0.04,0.65-0.12,0.96-0.24
			c2.96-0.9,4.85-3.78,4.51-6.86L327.78,256.14z M316.72,245.73c-3.09,0.9-4.63,3.55-4.6,7.75l9.26-2.69
			c-0.03-0.91-0.16-1.81-0.4-2.69c-0.26-1.69-1.83-2.85-3.52-2.59C317.21,245.56,316.96,245.63,316.72,245.73z M349.46,238.78
			l-3.61,2.53c-0.21-0.42-0.44-0.82-0.71-1.2c-1.29-1.53-3.44-2.04-5.28-1.24c-2.63,0.77-3.43,2.16-3.09,3.58
			c0.34,1.42,1.79,2.01,5.19,1.85c5.03-0.22,7.57,0.53,8.65,4.42c1.42,5-1.54,9.48-8.31,11.43c-5.65,1.61-9.08,0-10.81-2.07
			c-0.59-0.74-1.04-1.58-1.36-2.47l4.26-2.75c0.23,0.7,0.54,1.38,0.93,2.01c1.32,1.97,3.87,2.69,6.02,1.7
			c3.09-0.86,4.32-2.41,3.77-4.48s-2.22-2.07-6.18-1.95c-3.28,0.61-6.48-1.37-7.41-4.57c-1.24-4.35,1.24-8.62,7.04-10.28
			c4.79-1.36,8.15-0.28,9.76,1.88C348.75,237.67,349.14,238.2,349.46,238.78z M194.58,336.71c2.01,7.04-1.91,12.97-10.72,15.44
			s-13.9-1.33-15.84-5.74c-0.14-0.32-0.25-0.65-0.34-0.99l4.82-4.08c0.2,0.67,0.45,1.33,0.74,1.98c1.34,3.76,5.48,5.72,9.24,4.37
			c0.12-0.04,0.25-0.09,0.37-0.14c5.4-1.54,6.18-4.6,5.53-6.67c-0.83-3.09-2.75-3.49-7.94-3.49s-9.79-1.05-11.21-6.18
			c-1.76-6.18,2.29-12.35,9.73-14.45c7.44-2.1,12.35,0,13.9,4.73l-4.69,3.89c-0.11-0.42-0.25-0.84-0.43-1.24
			c-1.53-2.79-4.92-3.97-7.84-2.72c-3.95,1.11-4.97,3.61-4.29,5.99c0.68,2.38,2.35,2.9,7.88,3.09
			C190.53,330.63,193.38,332.45,194.58,336.71z M198.1,338.13c-2.13-7.54,0.56-16.09,9.02-18.53c6.18-1.76,9.79,1.08,11.03,5.4
			l0.19,0.71l-4.73,2.69c-0.1-0.69-0.25-1.37-0.43-2.04c-0.29-1.96-2.11-3.31-4.07-3.02c-0.27,0.04-0.53,0.11-0.78,0.21
			c-2.7,0.87-4.56,3.34-4.63,6.18c-0.35,2.41-0.2,4.88,0.46,7.23c0.83,2.87,2.75,4.39,5.65,3.55c2.9-0.83,4.23-3.37,4.51-7.44h4.85
			c-0.16,5.35-3.75,9.99-8.89,11.49c-4.55,1.89-9.78-0.26-11.67-4.81C198.38,339.22,198.22,338.68,198.1,338.13z M248.16,325.65
			v-12.63l-3.68,1.02v-4.42l3.61-1.05v-8.93l5.9-1.7v8.86l5.78-1.67v4.48l-5.78,1.64v12.35c-0.01,0.62,0.06,1.24,0.19,1.85
			c0.34,1.14,1.17,1.61,2.59,1.2c2.29-0.65,2.29-2.63,1.76-4.51c-0.08-0.26-0.17-0.52-0.28-0.77l3.09-0.71
			c0.16,0.31,0.28,0.63,0.37,0.96c1.5,3.64-0.24,7.81-3.89,9.31c-0.52,0.21-1.06,0.36-1.61,0.45
			C251.87,332.73,248.16,330.81,248.16,325.65z M265.52,328.15V292.7l5.93-1.61v35.33C271.45,326.43,265.52,328.15,265.52,328.15z
			 M292.33,320.43v-3.71h-0.43c-0.92,3.07-3.4,5.42-6.52,6.18c-4.14,1.17-8-1.08-9.48-6.18c-2.32-8.18,1.02-17.14,8.15-19.21
			c2.75-1.22,5.97-0.13,7.41,2.5h0.34v-4.05l5.81-1.79v24.71C297.61,318.89,292.33,320.43,292.33,320.43z M286.74,318.36
			c2.9-0.83,4.39-4.26,4.6-8.09c0.17-2.01,0.03-4.03-0.43-5.99c-0.19-2-1.97-3.47-3.97-3.28c-0.3,0.03-0.59,0.09-0.88,0.19
			c-1.79,0.56-3.19,1.95-3.77,3.74c-1.09,3.2-1.19,6.66-0.28,9.91C282.75,317.69,284.39,319.04,286.74,318.36z M302.61,317.5v-24.71
			l5.22-1.48v5.03h0.37c0.81-3.65,3.51-6.59,7.07-7.72c5.03-1.42,7.54,1.45,7.54,6.42v16.68l-5.9,1.67v-15.75
			c0-3.09-0.99-4.69-3.4-3.98c-2.41,0.71-5.03,3.61-5.03,8.77v13.37C308.48,315.8,302.61,317.5,302.61,317.5z M344.02,305.61v-3.71
			h-0.43c-0.94,3.08-3.45,5.43-6.58,6.18c-4,1.27-8.27-0.94-9.54-4.94c-0.13-0.4-0.22-0.82-0.28-1.23
			c-2.5-8.8,1.17-17.29,8.28-19.33c4.05-1.17,6.67,0,7.81,2.38h0.37v-14.64l5.65-1.61v35.39
			C349.3,304.1,344.02,305.61,344.02,305.61z M338.34,303.6c3.15-1.41,5.08-4.65,4.82-8.09c0.2-2,0.07-4.03-0.37-5.99
			c-0.21-2.05-2.05-3.54-4.1-3.33c-0.34,0.04-0.68,0.12-0.99,0.24c-1.8,0.52-3.24,1.86-3.89,3.61c-1.28,3.29-1.47,6.91-0.52,10.32
			C334.08,303.11,335.72,304.31,338.34,303.6z M269.84,234.39c-4.54,1.73-9.63-0.54-11.36-5.08c-0.19-0.5-0.34-1.03-0.44-1.56
			c-2.46-7.72,1.81-15.97,9.52-18.43c0.11-0.03,0.22-0.07,0.33-0.1c4.5-1.74,9.56,0.5,11.3,5c0.21,0.54,0.36,1.1,0.46,1.67
			c2.4,7.81-1.98,16.09-9.79,18.49C269.86,234.39,269.85,234.39,269.84,234.39z M268.27,213.36c-1.97,0.58-3.5,2.13-4.05,4.11
			c-0.83,3.03-0.83,6.23,0,9.26c0.83,3.09,2.66,4.32,5.25,3.58c1.95-0.57,3.47-2.11,4.01-4.08c0.84-3.03,0.84-6.23,0-9.26
			C272.65,213.89,270.86,212.62,268.27,213.36z M233.74,337.79c-4.53,1.76-9.63-0.49-11.39-5.02c-0.19-0.49-0.34-1.01-0.44-1.53
			c-2.46-7.72,1.81-15.97,9.52-18.43c0.11-0.03,0.22-0.07,0.33-0.1c4.52-1.74,9.6,0.52,11.33,5.05c0.21,0.56,0.37,1.13,0.47,1.72
			C245.85,327.24,241.47,335.4,233.74,337.79z M232.16,316.73c-1.99,0.57-3.53,2.14-4.08,4.14c-0.83,3.03-0.83,6.23,0,9.27
			c0.83,3.09,2.66,4.35,5.25,3.61c1.99-0.56,3.54-2.14,4.08-4.14c0.84-3.03,0.84-6.23,0-9.26
			C236.43,317.1,234.76,315.99,232.16,316.73z"/>
		<path class="st0" d="M491.31,284.36v-22.85l-21.37-35.79h11.89l15.66,26.93h0.62l15.6-26.93h9.42l-21.37,35.95v22.7H491.31
			L491.31,284.36z M516.17,264.07c0-12.82,8.34-21.31,20.69-21.31c12.35,0,20.69,8.49,20.69,21.31c0,12.82-8.25,21.37-20.69,21.37
			C524.41,285.44,516.17,276.95,516.17,264.07z M526.05,264.07c0,9.64,4.11,14.89,10.81,14.89c6.7,0,10.9-5.25,10.9-14.89
			s-3.95-14.82-10.9-14.82C529.91,249.25,526.05,254.5,526.05,264.07z M598.41,243.84v40.52h-8.43v-7.32h-0.68
			c-1.97,5.28-7.13,8.68-12.75,8.4c-9.57,0-13.59-5.16-13.59-13.43v-28.17h9.51v27.49c-0.48,3.6,2.05,6.91,5.66,7.39
			c0.5,0.07,1.01,0.08,1.51,0.03c5.5,0,9.26-3.49,9.26-12.35v-22.54H598.41L598.41,243.84z M606.13,284.36v-40.52h8.71v8.25h0.62
			c1.41-5.08,5.81-8.77,11.06-9.26c5,0,9.27,2.47,9.27,9.88c0.04,2.3-0.46,4.57-1.45,6.64h-7.72c0.55-1.75,0.81-3.57,0.77-5.4
			c0-3.09-1.17-4.39-4.11-4.39c-5.4,0-7.72,6.39-7.72,16.28v18.53C615.55,284.36,606.13,284.36,606.13,284.36z M670.21,253.63
			l-6.42,2.32c-0.21-4.24-3.81-7.51-8.05-7.31c-0.2,0.01-0.4,0.03-0.59,0.05c-3.46,0-6.64,1.33-6.64,4.63c0,2.25,0.77,3.4,3.49,4.57
			c2.72,1.17,11.12,2.38,14.42,4.01c4.38,1.81,7.01,6.32,6.42,11.03c0,7.35-6.18,12.51-16.77,12.51c-11.43,0-16.74-6.39-17.51-13.43
			l6.79-1.91c0.62,5.71,3.24,9.26,10.56,9.26c5.25,0,8.18-1.79,8.18-5.34c0.28-1.91-0.76-3.78-2.53-4.54
			c-2.47-1.24-11.83-2.63-15.29-4.42c-4.35-1.76-6.98-6.21-6.42-10.87c0-6.89,6.18-11.58,15.23-11.58S668.79,247.4,670.21,253.63
			L670.21,253.63z M700.7,275.41V250.7h-6.55v-6.86h6.55v-14.92h9.57v14.92h11.83v6.79h-11.83v24c0,2.93,1.39,3.95,3.95,3.95
			c3.77,0,4.23-2.01,4.23-5.4c0.04-1.24-0.04-2.48-0.25-3.71l5.4,0.77c0.63,1.65,0.97,3.39,0.99,5.16c0,5.65-3.09,10.04-11.74,10.04
			C705.85,285.44,700.7,282.91,700.7,275.41L700.7,275.41z M727.81,264.07c0-12.82,8.34-21.31,20.69-21.31s20.66,8.49,20.66,21.31
			c0,12.82-8.25,21.37-20.66,21.37S727.81,276.95,727.81,264.07z M737.69,264.07c0,9.64,4.08,14.89,10.81,14.89
			s10.87-5.25,10.87-14.89s-3.92-14.82-10.87-14.82S737.69,254.5,737.69,264.07z M502.58,364.66v-6.18h-0.56
			c-2.45,4.74-7.42,7.63-12.75,7.41c-8.34,0-17.36-6.18-17.36-21.37s8.96-21.31,17.91-21.31c5.27-0.51,10.27,2.45,12.35,7.32h0.62
			v-24.52h9.26v58.68L502.58,364.66z M502.02,344.37c0-10.44-4.94-14.82-10.35-14.82c-6.79,0-10.04,5.4-10.04,14.82
			c0,9.42,3.4,14.82,10.1,14.82S502.02,354,502.02,344.37z M529.14,306.01v9.26h-9.79v-9.26H529.14z M519.5,364.69v-40.55h9.48
			v40.52L519.5,364.69z M566.88,333.93l-6.39,2.32c-0.21-4.24-3.81-7.51-8.05-7.31c-0.2,0.01-0.4,0.03-0.59,0.05
			c-3.49,0-6.64,1.33-6.64,4.63c0,2.25,0.77,3.4,3.46,4.57c2.69,1.17,11.12,2.38,14.45,4.01c4.37,1.82,6.98,6.33,6.39,11.03
			c0,7.35-6.18,12.35-16.74,12.35c-11.43,0-16.77-6.39-17.54-13.43l6.79-1.91c0.62,5.71,3.09,9.26,10.59,9.26
			c5.25,0,8.18-1.79,8.18-5.34c0.28-1.92-0.77-3.79-2.56-4.54c-2.47-1.24-11.8-2.63-15.44-4.42c-4.33-1.77-6.95-6.22-6.39-10.87
			c0-6.89,6.18-11.58,15.19-11.58C560.61,322.75,565.52,327.69,566.88,333.93L566.88,333.93z M573.05,344.37
			c0-12.82,7.57-21.31,19.77-21.31c8.7-0.6,16.26,5.89,16.99,14.58l-7.41,3.09c-0.93-6.64-3.64-10.9-9.26-10.9
			c-6.33,0-10.04,5.03-10.04,14.61c0,9.57,3.77,14.67,10.19,14.67c6.95,0,9.27-4.57,10.35-10.96l7.41,3.3
			c-1.51,8.68-9.27,14.85-18.07,14.36C580.96,365.74,573.05,357.25,573.05,344.37z M614.69,344.37c0-12.82,8.34-21.31,20.69-21.31
			c12.35,0,20.69,8.49,20.69,21.31c0,12.82-8.25,21.37-20.69,21.37C622.93,365.74,614.69,357.25,614.69,344.37z M624.57,344.37
			c0,9.64,4.11,14.89,10.81,14.89c6.7,0,10.9-5.25,10.9-14.89s-3.95-14.82-10.9-14.82C628.43,329.54,624.57,334.79,624.57,344.37z
			 M671.45,364.66l-15.01-40.52h9.94l9.6,28.72h0.62l9.82-28.78h8.71L680,364.6L671.45,364.66L671.45,364.66z M715.83,359.5
			c7.04,0,9.88-3.95,11.06-10.13l8.03,2.72c-1.95,8.03-8.18,13.59-19.39,13.65c-12.04,0-19.77-8.49-19.77-21.37
			s7.88-21.31,19.7-21.31s18.99,8.09,19.15,22.76h-28.97C706.04,354.78,709.9,359.5,715.83,359.5L715.83,359.5z M715.46,329.54
			c-5.19,0-8.65,4.01-9.57,11.03h18.75C724.1,333.56,721.54,329.54,715.46,329.54z M740.38,364.66v-40.52h8.71v8.25h0.62
			c1.39-5.08,5.78-8.77,11.03-9.26c5.03,0,9.26,2.47,9.26,9.88c0.04,2.3-0.46,4.58-1.48,6.64h-7.72c0.55-1.75,0.81-3.57,0.77-5.4
			c0-3.09-1.14-4.39-4.08-4.39c-5.4,0-7.72,6.39-7.72,16.28v18.53L740.38,364.66L740.38,364.66z M421.05,121.48h4.63v352.93h-4.63
			V121.48z"/>
	</g>
</g>
</svg>
