<?xml version="1.0" encoding="UTF-8"?>
<svg id="katman_1" xmlns="http://www.w3.org/2000/svg" version="1.1" viewBox="0 0 841.89 595.28">
  <!-- Generator: Adobe Illustrator 29.1.0, SVG Export Plug-In . SVG Version: 2.1.0 Build 142)  -->
  <defs>
    <style>
      .st0 {
        fill: #090a0a;
      }
    </style>
  </defs>
  <g id="logo__bottom">
    <path class="st0" d="M87.53,443.44l2.33-2.78c3.5,3.22,6.84,4.75,11.51,4.75s7.49-2.41,7.49-5.72v-.12c0-3.1-1.69-4.83-8.73-6.36-7.73-1.69-11.27-4.19-11.27-9.7v-.08c0-5.23,4.67-9.14,11.03-9.14,4.95,0,8.33,1.37,11.79,4.15l-2.17,2.9c-3.14-2.54-6.24-3.62-9.7-3.62-4.43,0-7.12,2.33-7.12,5.43v.08c0,3.18,1.69,4.99,9.1,6.52,7.49,1.69,10.95,4.35,10.95,9.5v.08c0,5.76-4.79,9.5-11.47,9.5-5.35,0-9.66-1.73-13.72-5.35"/>
    <path class="st0" d="M133.54,431.65v-.08c0-9.5,7.12-17.35,16.98-17.35,6.08,0,9.78,2.09,13.08,5.31l-2.58,2.78c-2.9-2.7-5.96-4.59-10.54-4.59-7.41,0-13,6.04-13,13.76v.08c0,7.77,5.55,13.85,13,13.85,4.63,0,7.61-1.77,10.83-4.83l2.5,2.45c-3.46,3.54-7.36,5.88-13.44,5.88-9.66,0-16.82-7.61-16.82-17.27Z"/>
    <path class="st0" d="M196.46,411.81l-5.11-6.2h5.07l3.1,6.2h-3.06ZM185.19,414.75h24.27v3.46h-20.45v11.43h18.31v3.46h-18.31v11.75h20.69v3.46h-24.51v-33.57Z"/>
    <path class="st0" d="M231.92,414.75h3.54l21.17,26.93v-26.93h3.66v33.57h-3.02l-21.65-27.53v27.53h-3.7v-33.57Z"/>
    <path class="st0" d="M284.39,414.75h24.27v3.46h-20.49v11.47h18.31v3.46h-18.31v11.71h20.69v3.46h-24.47v-33.57Z"/>
    <path class="st0" d="M360.08,414.75h3.54l21.13,26.93v-26.93h3.66v33.57h-2.98l-21.69-27.53v27.53h-3.66v-33.57Z"/>
    <path class="st0" d="M434.3,436.04l-7.61-17.11-7.69,17.11h15.29ZM424.96,414.54h3.54l15.29,33.81h-4.07l-3.94-8.85h-18.27l-3.98,8.85h-3.86l15.29-33.81Z"/>
    <path class="st0" d="M469.61,418.25h-11.31v-3.5h26.4v3.5h-11.31v30.07h-3.78v-30.07Z"/>
    <path class="st0" d="M510.34,414.75h-3.78v33.57h3.78v-33.57Z"/>
    <path class="st0" d="M563.58,431.65v-.08c0-7.61-5.55-13.84-13.24-13.84s-13.12,6.12-13.12,13.76v.08c0,7.61,5.55,13.85,13.24,13.85s13.12-6.12,13.12-13.76ZM533.27,431.65v-.08c0-9.26,6.96-17.35,17.15-17.35s17.07,8.01,17.07,17.27v.08c0,9.26-6.96,17.35-17.15,17.35s-17.06-8.01-17.06-17.27Z"/>
    <path class="st0" d="M590.11,414.75h3.54l21.13,26.93v-26.93h3.7v33.57h-3.02l-21.65-27.53v27.53h-3.7v-33.57Z"/>
    <path class="st0" d="M664.33,436.04l-7.6-17.11-7.69,17.11h15.29ZM654.99,414.54h3.54l15.29,33.81h-4.07l-3.94-8.85h-18.27l-3.99,8.85h-3.9l15.29-33.81h.04Z"/>
    <path class="st0" d="M695.03,414.75h3.79v30.07h18.92v3.5h-22.7v-33.57Z"/>
    <path class="st0" d="M739.12,414.75h24.27v3.46h-20.44v11.47h18.27v3.46h-18.27v11.71h20.69v3.46h-24.51v-33.57Z"/>
  </g>
  <g id="logo__top">
    <path class="st0" d="M475.63,352.16h.32c-.12-.04-.24-.08-.32,0Z"/>
    <path class="st0" d="M285.26,176.8l.24,84.88h66.61v-20.53h-42.06v-13.04h38.07v-18.31h-38.07v-12.36l42.06-.12v-20.53h-66.85Z"/>
    <path class="st0" d="M696.77,176.8l.2,84.88h66.65v-20.53h-42.06v-13.04h38.07v-18.31h-38.07v-12.36l42.06-.12v-20.53h-66.85Z"/>
    <path class="st0" d="M172.5,286.16l.24,84.92h66.61v-20.57h-42.06v-13h38.07v-18.31h-38.07v-12.36l42.06-.16v-20.53h-66.85Z"/>
    <path class="st0" d="M594.06,338.32c8.25-3.46,16.38-9.7,16.38-24.31,0-16.22-14.41-27.85-30.47-27.85h-46.85v84.88h24.79v-26.04h14.09l15.01,26.04h28.54l-21.49-32.76v.04ZM571.32,325.77h-13.36v-21.77h13.36c9.06,0,14.17,3.3,14.17,10.63,0,6.88-5.11,11.15-14.17,11.15Z"/>
    <path class="st0" d="M504.59,176.8v22.26h27.09l.12,62.63h24.79v-62.63h28.66v-22.26h-80.66Z"/>
    <path class="st0" d="M624.28,286.16v22.26h29.46l.12,62.67h24.75v-62.67h29.43v-22.26h-83.76Z"/>
    <path class="st0" d="M77.91,176.8v22.26h30.11l.12,62.63h24.79v-62.63h28.74v-22.26h-83.76Z"/>
    <path class="st0" d="M659.4,228.93c8.25-3.46,16.38-9.7,16.38-24.31,0-16.22-14.41-27.85-30.47-27.85h-44.19v84.88h24.79v-26.04h11.47l15.02,26.04h28.54l-21.49-32.76-.04.04ZM636.9,216.37h-11.02v-21.77h11.02c9.06,0,14.05,3.3,14.05,10.63,0,6.88-4.99,11.15-14.05,11.15Z"/>
    <path class="st0" d="M238.54,176.8v30.67h-35.1v-30.67h-24.91v84.88h24.91v-31.96h35.1v31.96h24.91v-84.88h-24.91Z"/>
    <path class="st0" d="M763.58,337.8h-34.21v33.24h34.21v-33.24Z"/>
    <path class="st0" d="M313.03,145.65l-6,22.5h14.93l19.04-22.5h-27.97Z"/>
    <path class="st0" d="M420.89,216.73h-34.21v33.24h34.21v-33.24Z"/>
    <path class="st0" d="M489.36,216.73h-34.21v33.24h34.21v-33.24Z"/>
    <path class="st0" d="M455.15,183.48h-34.21v33.24h34.21v-33.24Z"/>
    <path class="st0" d="M492.06,280.76h-108.07l-14.41,66.13h34.97l6.24-36.02h54.45l6.28,36.02h34.98l-14.45-66.13Z"/>
    <path class="st0" d="M318.8,286.16h-.36v46.08l-36.3-46.08h-22.66l.08,85h24.31v-47.57l37.59,47.49h21.37v-84.92h-24.03Z"/>
    <path class="st0" d="M128.23,319.6c-11.71-3.7-17.83-5.19-17.87-10.02,0-3.58,2.05-5.72,8.94-5.72,7.97,0,18.23,3.06,24.11,8.69l11.91-17.02c-6.32-5.27-20.49-11.59-36.06-11.59-21.05,0-34.61,9.34-34.61,24.75,0,17.11,13.48,23.83,29.5,28.05,11.59,3.02,14.41,4.83,14.41,9.3,0,4.79-4.15,7.2-10.87,7.2-9.58,0-19.08-5.11-27.09-12.15l-11.75,16.98c8.29,9.54,22.7,15.5,39.68,15.33,21.05-.2,35.82-9.34,35.82-26.24s-11.07-22.78-26.04-27.53"/>
  </g>
</svg>