<?xml version="1.0" encoding="utf-8"?>
<!-- Generator: Adobe Illustrator 24.3.0, SVG Export Plug-In . SVG Version: 6.00 Build 0)  -->
<svg version="1.0" id="katman_1" xmlns="http://www.w3.org/2000/svg" xmlns:xlink="http://www.w3.org/1999/xlink" x="0px" y="0px"
	 viewBox="0 0 841.89 595.28" style="enable-background:new 0 0 841.89 595.28;" xml:space="preserve">
<style type="text/css">
	.st0{clip-path:url(#SVGID_2_);}
	.st1{fill:#010202;}
</style>
<g>
	<defs>
		<rect id="SVGID_1_" x="76.31" y="235.07" width="689.38" height="124.16"/>
	</defs>
	<clipPath id="SVGID_2_">
		<use xlink:href="#SVGID_1_"  style="overflow:visible;"/>
	</clipPath>
	<g class="st0">
		<path class="st1" d="M256.09,262.06l-36.75,75.27h16.39l6.85-14.62h43.93l6.85,14.62h16.5l-36.75-75.27h-17.04H256.09z
			 M248.8,309.58l15.75-33.65l15.86,33.65H248.8z"/>
		<path class="st1" d="M383.91,325.7c-7.18,0-8.36-3.33-8.36-9.68V295.6h22.5v-13.12h-22.5v-15.8h-14.68v15.8h-5.04
			c-16.5,0-25.39,9.35-28.83,19.78l0.32-19.78h-14.68v54.83h14.68v-2.9c0-13.55,6.85-38.81,28.93-38.81h4.61v22.26
			c0,12.47,6.1,20.53,21,20.53c5.04,0,11.14-0.43,17.79-2.9l-1.07-12.47C393.13,325.06,387.34,325.71,383.91,325.7L383.91,325.7z"/>
		<path class="st1" d="M728.19,298.4c0-3.23,5.04-4.51,10.29-4.51c8.36,0,14.67,3.23,19.07,6.99l6.75-10.54
			c-4.07-3.65-12-8.93-25.29-8.93c-16.07,0-25.72,7.42-25.72,18.17c0,20.97,37.5,13.44,37.5,21.4c0,3.23-4.82,4.95-12.22,4.95
			c-8.57,0-16.07-3.23-20.36-6.99l-6.74,10.54c4.07,3.65,12.22,8.93,26.78,8.93c15.53,0,27.43-6.13,27.43-18.6
			C765.68,298.51,728.18,306.14,728.19,298.4L728.19,298.4z"/>
		<path class="st1" d="M711.79,282.49h-17.14l-26.14,28.6v-49.03h-14.79v75.27h14.79v-8.5l11.14-11.93l15.64,20.43h17.89
			l-23.99-30.65L711.79,282.49z"/>
		<path class="st1" d="M622.54,294.31c8.25,0,13.72,3.23,17.89,7.2l6.96-11.18c-4.18-3.65-11.04-8.93-24.86-8.93
			c-18.21,0-30.75,11.4-30.75,28.49s12.53,28.49,30.75,28.49c13.93,0,20.68-5.27,24.86-8.93l-6.96-11.18
			c-4.18,3.98-9.64,7.2-17.89,7.2c-9.32,0-15.75-5.59-15.75-15.59C606.79,299.91,613.22,294.31,622.54,294.31z"/>
		<path class="st1" d="M484.21,298.83c6.43-2.26,11.57-7.53,11.57-16.77c0-12.8-8.46-20-23.25-20h-47.25v75.27h50.57
			c14.47,0,23.68-7.85,23.68-21.08C499.52,307.43,493.84,301.19,484.21,298.83L484.21,298.83z M440.17,275.18h29.57
			c7.82,0,11.04,2.9,11.04,8.71c0,6.45-3.21,9.14-11.04,9.14h-29.57V275.18z M473.6,324.2h-33.43v-18.28h33.43
			c7.6,0,10.71,3.76,10.71,8.71C484.31,320.33,481.31,324.2,473.6,324.2z"/>
		<path class="st1" d="M557.18,281.41c-18.32,0-30.22,11.4-30.22,28.49s11.89,28.49,30.22,28.49s30-11.4,30-28.49
			S575.28,281.41,557.18,281.41z M557.18,325.49c-9.32,0-15.22-5.59-15.22-15.59c0-10,5.9-15.59,15.22-15.59
			c9.32,0,15,5.59,15,15.59C572.18,319.9,566.28,325.49,557.18,325.49z"/>
		<path class="st1" d="M520.64,262.06h-14.68v75.27h14.68V262.06z"/>
		<path class="st1" d="M78.07,320.55c0,0-0.02,0-0.02,0l0.1,0.02c0,0-0.02-0.04-0.04-0.06L78.07,320.55L78.07,320.55z"/>
		<path class="st1" d="M200.72,284.3c-2.38-2.16-5.9-2.47-8.76-1.01l-0.14,0.06c-0.57,0.3-1.01,0.59-1.42,0.88
			c-0.1,0.07-0.2,0.14-0.29,0.21l-0.27,0.21c-0.09,0.07-0.17,0.14-0.26,0.2c-0.08,0.07-0.16,0.14-0.24,0.2
			c-0.61,0.53-1.11,1.02-1.55,1.5c-0.49,0.53-0.9,1.02-1.29,1.5c-0.39,0.48-0.73,0.95-1.07,1.42c-0.66,0.92-1.24,1.81-1.8,2.7
			c-1.1,1.76-2.07,3.47-3,5.18c-0.93,1.7-1.8,3.39-2.65,5.06c-0.85,1.67-1.68,3.34-2.5,5c-0.8,1.62-1.6,3.25-2.4,4.87
			c-0.06-0.26-0.13-0.53-0.19-0.79l-0.39-1.59c-0.25-1.06-0.5-2.12-0.75-3.2c-0.99-4.29-1.93-8.63-2.88-13
			c-0.94-4.37-1.89-8.75-2.86-13.15c-0.97-4.4-1.98-8.82-3.07-13.26c-0.6-2.42-1.21-4.85-1.89-7.3c-0.17-0.61-0.34-1.23-0.51-1.84
			l-0.28-0.97c-0.17-0.59-0.34-1.17-0.52-1.75c-0.7-2.33-1.47-4.65-2.3-6.85c-0.42-1.1-0.86-2.17-1.32-3.19
			c-0.46-1.02-0.95-1.99-1.45-2.88c-0.13-0.22-0.25-0.44-0.39-0.65c-0.06-0.11-0.13-0.22-0.19-0.32l-0.2-0.31
			c-0.26-0.4-0.53-0.79-0.8-1.16c-0.27-0.36-0.55-0.71-0.83-1.02c-0.28-0.32-0.56-0.61-0.85-0.88s-0.57-0.52-0.86-0.75
			s-0.58-0.44-0.87-0.64c-0.59-0.39-1.17-0.71-1.79-0.96c-0.62-0.26-1.25-0.47-1.96-0.6c-0.36-0.07-0.73-0.13-1.13-0.16
			c-0.2-0.02-0.41-0.02-0.62-0.03c-0.11,0-0.21,0-0.32,0c-0.11,0-0.22,0-0.32,0.01l-0.43,0.03c-0.14,0.02-0.29,0.03-0.42,0.05
			c-0.27,0.04-0.52,0.09-0.76,0.14c-0.47,0.11-0.89,0.24-1.29,0.4c-0.2,0.08-0.39,0.16-0.59,0.25c-0.19,0.09-0.38,0.19-0.56,0.29
			c-0.37,0.2-0.74,0.43-1.1,0.71c-0.73,0.53-1.44,1.19-2.12,2.05c-0.34,0.43-0.68,0.89-1,1.4c-0.32,0.51-0.64,1.08-0.94,1.67
			l-0.11,0.22c-0.04,0.07-0.07,0.14-0.11,0.22l-0.21,0.44c-0.07,0.15-0.14,0.3-0.2,0.46l-0.1,0.23l-0.1,0.24
			c-0.26,0.63-0.52,1.29-0.77,1.96l-0.18,0.51l-0.18,0.52c-0.12,0.34-0.23,0.7-0.35,1.05c-0.22,0.71-0.44,1.43-0.65,2.16
			c-0.42,1.46-0.81,2.95-1.18,4.46c-0.19,0.75-0.36,1.51-0.54,2.26c-0.09,0.38-0.18,0.76-0.26,1.14c-0.05,0.26-0.12,0.5-0.17,0.76
			c-0.7,3.16-1.33,6.28-1.93,9.4c-1.19,6.23-2.24,12.44-3.25,18.63c-1,6.2-1.96,12.38-2.91,18.54c-0.6,3.93-1.2,7.86-1.8,11.79
			l-0.22-0.91c-0.09-0.36-0.18-0.72-0.26-1.09c-0.18-0.73-0.36-1.46-0.56-2.2c-0.4-1.49-0.84-3-1.42-4.64
			c-0.08-0.21-0.15-0.41-0.23-0.62l-0.25-0.64l-0.28-0.67l-0.15-0.35l-0.08-0.17l-0.04-0.08c0,0-0.02-0.05-0.04-0.09l-0.18-0.36
			l-0.09-0.19l-0.05-0.09l-0.05-0.1l-0.2-0.39c-0.04-0.06-0.07-0.12-0.11-0.19l-0.12-0.21l-0.24-0.42l-0.02-0.02l-0.02-0.03
			l-0.04-0.05l-0.07-0.12l-0.15-0.22l-0.15-0.22c0,0-0.05-0.08-0.09-0.12l-0.09-0.12c-0.12-0.17-0.24-0.33-0.36-0.5
			c-0.12-0.15-0.23-0.3-0.36-0.43l-0.09-0.11l-0.12-0.12c-0.08-0.08-0.15-0.16-0.23-0.24l-0.12-0.12l-0.06-0.05l-0.07-0.07
			c-0.1-0.09-0.2-0.18-0.3-0.26l-0.15-0.12l-0.08-0.06l-0.04-0.03l-0.05-0.04c-0.12-0.09-0.26-0.19-0.38-0.27
			c-0.06-0.05-0.13-0.08-0.19-0.13l-0.1-0.06l-0.05-0.03l-0.06-0.04c-0.15-0.09-0.32-0.18-0.48-0.26c-0.08-0.04-0.16-0.09-0.24-0.12
			l-0.12-0.06l-0.14-0.06c-0.19-0.08-0.38-0.15-0.57-0.22c-0.09-0.03-0.19-0.07-0.29-0.1c-0.1-0.03-0.21-0.06-0.32-0.09
			c-0.21-0.05-0.43-0.11-0.64-0.15c-0.21-0.04-0.44-0.08-0.66-0.1c-0.22-0.02-0.45-0.04-0.67-0.05c-0.25,0-0.5,0-0.75,0.01
			c-0.12,0-0.26,0.02-0.37,0.03s-0.23,0.02-0.35,0.05c-0.23,0.03-0.46,0.08-0.69,0.12c-0.2,0.05-0.4,0.1-0.6,0.16
			c-0.1,0.03-0.2,0.06-0.29,0.09c-0.05,0.02-0.09,0.03-0.13,0.05l-0.12,0.05c-0.17,0.06-0.33,0.13-0.49,0.21l-0.12,0.05l-0.1,0.05
			c-0.07,0.03-0.14,0.07-0.2,0.1c-0.13,0.07-0.27,0.15-0.4,0.22c-0.11,0.06-0.22,0.13-0.32,0.2l-0.16,0.11
			c-0.05,0.04-0.11,0.08-0.15,0.1c-0.09,0.06-0.18,0.12-0.26,0.19l-0.13,0.1l-0.06,0.05l-0.05,0.05c-0.07,0.05-0.14,0.12-0.21,0.18
			l-0.1,0.09c0,0-0.07,0.06-0.1,0.09c-0.12,0.11-0.23,0.22-0.34,0.33c-0.4,0.4-0.68,0.74-0.92,1.05l-0.16,0.22l-0.15,0.2l-0.07,0.1
			l-0.06,0.09l-0.12,0.19c-0.31,0.47-0.53,0.87-0.73,1.22c-0.19,0.36-0.36,0.69-0.5,1c-0.29,0.62-0.53,1.18-0.76,1.71
			c-0.22,0.53-0.43,1.05-0.61,1.54c-0.38,1-0.73,1.95-1.06,2.88c-0.32,0.9-0.65,1.8-0.98,2.71l-0.2,0.55l-0.18-0.19l-0.29-0.33
			c-0.19-0.22-0.39-0.44-0.59-0.66c-0.39-0.44-0.78-0.9-1.16-1.35c-0.39-0.46-0.77-0.91-1.14-1.36l-0.23-0.29l-0.12-0.15
			c0,0-0.3-0.33-0.31-0.35h-0.02c-3.77-4.02-11.16-3.68-13.6,2.64c-0.99,2.57-0.34,5.5,1.35,7.66l0.03,0.05l0.24,0.3l0.23,0.29
			c0.45,0.55,0.89,1.09,1.34,1.61c0.45,0.53,0.9,1.06,1.37,1.58c0.23,0.26,0.46,0.53,0.7,0.78l0.36,0.4
			c0.16,0.17,0.32,0.35,0.48,0.52c0.22,0.23,0.44,0.47,0.66,0.71l0.33,0.35l0.33,0.35l0.67,0.69c0.23,0.22,0.46,0.45,0.69,0.67
			c0.22,0.22,0.46,0.44,0.69,0.66l0.35,0.33l0.17,0.16l0.18,0.15c0.23,0.21,0.47,0.41,0.7,0.62c0.12,0.11,0.24,0.2,0.36,0.29
			l0.36,0.29c0.12,0.09,0.24,0.19,0.36,0.29c0.12,0.09,0.24,0.18,0.36,0.27l0.36,0.27l0.18,0.13l0.09,0.07c0,0,0.06,0.04,0.09,0.06
			l0.73,0.48c0.06,0.04,0.12,0.08,0.19,0.12l0.19,0.1l0.36,0.21l0.36,0.21c0.12,0.06,0.25,0.12,0.36,0.18l0.36,0.17l0.19,0.09
			c0.06,0.02,0.12,0.05,0.19,0.08c0.24,0.1,0.49,0.2,0.73,0.29c0.24,0.07,0.48,0.14,0.72,0.21c0.96,0.23,1.89,0.32,2.84,0.26
			c0.21-0.02,0.44-0.04,0.67-0.07c0.39-0.05,0.8-0.14,1.17-0.24c0.19-0.05,0.37-0.11,0.55-0.17c0.09-0.03,0.18-0.06,0.26-0.09
			c0.08-0.03,0.18-0.07,0.26-0.1c0.34-0.14,0.67-0.29,0.99-0.47c0.32-0.18,0.63-0.36,0.93-0.57c0.6-0.42,1.18-0.91,1.73-1.49
			c0.28-0.29,0.54-0.59,0.8-0.92c0.26-0.33,0.52-0.67,0.76-1.03c0.14-0.2,0.27-0.43,0.4-0.64c0.02,0.07,0.03,0.13,0.05,0.2
			c0.57,2.76,1.14,5.54,1.74,8.24c0.08,0.33,0.15,0.67,0.22,1.01c0.08,0.33,0.15,0.67,0.23,1l0.12,0.5l0.05,0.25l0.06,0.24
			c0.08,0.33,0.15,0.65,0.23,0.98c0.04,0.16,0.08,0.33,0.12,0.49c0.04,0.15,0.08,0.32,0.12,0.47l0.24,0.95
			c0.02,0.08,0.04,0.15,0.06,0.23l0.06,0.23c0.04,0.15,0.09,0.31,0.12,0.46l0.12,0.46c0.04,0.15,0.08,0.31,0.12,0.45
			c0.08,0.29,0.17,0.59,0.26,0.88c0.04,0.15,0.08,0.29,0.12,0.44l0.13,0.42c0.09,0.28,0.18,0.56,0.26,0.85
			c0.05,0.15,0.08,0.27,0.13,0.4l0.13,0.4c0.05,0.13,0.09,0.26,0.13,0.4c0.05,0.13,0.09,0.27,0.13,0.39
			c0.09,0.25,0.19,0.5,0.28,0.74l0.14,0.37l0.14,0.34l0.28,0.68c0.05,0.12,0.09,0.22,0.14,0.33l0.14,0.31
			c0.05,0.1,0.09,0.21,0.14,0.31l0.07,0.15c0.02,0.05,0.05,0.09,0.07,0.15c0.09,0.19,0.19,0.38,0.29,0.57l0.07,0.14
			c0.02,0.05,0.05,0.1,0.07,0.14l0.15,0.26c0.09,0.17,0.19,0.34,0.29,0.51l0.29,0.46l0.15,0.23c0.02,0.04,0.05,0.08,0.07,0.11
			l0.07,0.1c0.09,0.14,0.19,0.28,0.29,0.42l0.05,0.07l0.05,0.06l0.1,0.13l0.21,0.26c0.07,0.09,0.14,0.16,0.21,0.23l0.21,0.22
			c0.27,0.29,0.55,0.53,0.81,0.74l0.1,0.08l0.1,0.07l0.2,0.14c0.07,0.05,0.13,0.09,0.2,0.14l0.2,0.13c0.07,0.05,0.13,0.09,0.2,0.12
			l0.2,0.11c0,0,0.07,0.04,0.1,0.05l0.1,0.05l0.2,0.09l0.19,0.09l0.1,0.05c0,0,0.06,0.03,0.1,0.05l0.2,0.08l0.1,0.04l0.1,0.03
			l0.2,0.07c0.07,0.02,0.13,0.04,0.2,0.06c0.13,0.04,0.27,0.08,0.41,0.11c0.28,0.07,0.56,0.13,0.87,0.16
			c0.3,0.04,0.63,0.06,0.98,0.07c0.09,0,0.21,0,0.37,0c0.37-0.02,0.57-0.03,0.77-0.05c0.19-0.02,0.35-0.05,0.49-0.07
			c0.3-0.05,0.56-0.12,0.83-0.19c0.26-0.09,0.52-0.16,0.77-0.26c0.13-0.05,0.26-0.11,0.39-0.16c0.13-0.06,0.26-0.13,0.39-0.19
			c0.26-0.12,0.53-0.29,0.8-0.47c0.07-0.05,0.14-0.09,0.2-0.14c0.07-0.05,0.14-0.1,0.21-0.15c0.07-0.05,0.14-0.11,0.21-0.16
			c0.07-0.06,0.14-0.12,0.21-0.19c0.07-0.06,0.14-0.12,0.22-0.19c0.07-0.07,0.15-0.13,0.22-0.21c0.07-0.08,0.15-0.15,0.22-0.22
			l0.11-0.12c0.04-0.04,0.07-0.08,0.11-0.12c0.07-0.09,0.15-0.17,0.22-0.26l0.11-0.14c0.04-0.05,0.08-0.09,0.11-0.14
			c0.08-0.1,0.15-0.2,0.22-0.31s0.15-0.22,0.22-0.33c0.29-0.46,0.59-1.01,0.87-1.64c0.28-0.64,0.55-1.37,0.8-2.19l0.09-0.31
			l0.05-0.15l0.05-0.16c0.06-0.22,0.12-0.43,0.19-0.65l0.18-0.67c0.06-0.22,0.12-0.47,0.17-0.7c0.23-0.94,0.45-1.92,0.66-2.93
			c0.42-2.02,0.83-4.14,1.21-6.3c0.19-1.08,0.38-2.17,0.56-3.26c0.19-1.09,0.37-2.19,0.55-3.3c0.5-3.05,0.98-6.13,1.46-9.21
			c0.34-2.23,0.69-4.46,1.03-6.69c0.47-3.08,0.94-6.16,1.41-9.24c0.94-6.15,1.89-12.28,2.88-18.39c1-6.1,2.03-12.19,3.18-18.19
			c0.57-3,1.17-5.99,1.83-8.91l0.08-0.38c0.08,0.26,0.15,0.53,0.22,0.79c0.16,0.56,0.32,1.12,0.47,1.69
			c0.62,2.26,1.21,4.57,1.78,6.89c1.04,4.25,2.02,8.56,2.98,12.89c0.96,4.33,1.89,8.69,2.84,13.07c0.95,4.38,1.9,8.78,2.92,13.21
			c0.25,1.11,0.52,2.22,0.78,3.33l0.4,1.67c0.08,0.3,0.15,0.6,0.22,0.91c0.13,0.52,0.26,1.04,0.39,1.56
			c0.56,2.16,1.14,4.32,1.79,6.41c0.32,1.05,0.66,2.07,1.01,3.06c0.36,0.99,0.73,1.95,1.14,2.84c0.29,0.63,0.58,1.22,0.9,1.77
			c0.31,0.55,0.63,1.05,0.97,1.51c0.33,0.46,0.68,0.87,1.03,1.24c0.35,0.37,0.7,0.69,1.07,0.98c0.36,0.29,0.72,0.53,1.09,0.75
			c0.37,0.22,0.74,0.41,1.13,0.57s0.79,0.3,1.24,0.43c0.22,0.05,0.46,0.12,0.72,0.15c0.13,0.02,0.26,0.05,0.4,0.06
			c0.14,0.02,0.29,0.04,0.42,0.04c0.16,0.02,0.32,0.02,0.48,0.03c0.15,0,0.29,0,0.43-0.01c0.25-0.02,0.52-0.03,0.77-0.05
			c0.12,0,0.24-0.02,0.36-0.04l0.18-0.03l0.18-0.03c0.23-0.05,0.46-0.1,0.69-0.16c0.46-0.13,0.91-0.29,1.38-0.5
			c0.46-0.22,0.94-0.47,1.41-0.8c0.48-0.33,0.96-0.71,1.45-1.16c0.48-0.46,0.97-0.98,1.44-1.57c0.95-1.18,1.87-2.61,2.75-4.13
			c0.44-0.75,0.87-1.54,1.31-2.33c0.42-0.79,0.85-1.59,1.27-2.4c0.83-1.62,1.65-3.26,2.47-4.9c0.82-1.66,1.64-3.32,2.45-4.99
			c0.8-1.63,1.6-3.24,2.41-4.83c0.8-1.59,1.62-3.15,2.44-4.66c0.82-1.51,1.66-2.99,2.5-4.33c0.42-0.67,0.84-1.3,1.24-1.87
			c0.2-0.28,0.4-0.54,0.58-0.78c0.19-0.23,0.36-0.43,0.49-0.58c0.05-0.05,0.09-0.09,0.13-0.13c4.24-3.06,5.39-9.17,1.07-13.07V284.3
			z M101.14,311.97v-0.02V311.97z"/>
	</g>
</g>
</svg>
