<?xml version="1.0" encoding="UTF-8" standalone="no"?>
<svg
   xmlns:dc="http://purl.org/dc/elements/1.1/"
   xmlns:cc="http://creativecommons.org/ns#"
   xmlns:rdf="http://www.w3.org/1999/02/22-rdf-syntax-ns#"
   xmlns:svg="http://www.w3.org/2000/svg"
   xmlns="http://www.w3.org/2000/svg"
   id="svg8"
   version="1.1"
   viewBox="0 0 30.356157 6.7206736"
   height="25.40097"
   width="114.73193">
  <defs
     id="defs2" />
  <metadata
     id="metadata5">
    <rdf:RDF>
      <cc:Work
         rdf:about="">
        <dc:format>image/svg+xml</dc:format>
        <dc:type
           rdf:resource="http://purl.org/dc/dcmitype/StillImage" />
        <dc:title></dc:title>
      </cc:Work>
    </rdf:RDF>
  </metadata>
  <g
     transform="translate(-47.291125,8.9630196)"
     id="layer1">
    <g
       transform="matrix(0.35277777,0,0,-0.35277777,48.119709,-2.9326067)"
       id="g3702">
      <path
         id="path3704"
         style="fill:#ed1c24;fill-opacity:1;fill-rule:nonzero;stroke:none"
         d="m 0,0 c -0.575,-0.166 -0.112,0.317 -0.112,0.317 1.715,1.516 4.665,1.9 4.665,1.9 C 3.463,1.128 0,0 0,0 m 30.872,6.732 c 1.231,0.451 1.523,0.255 1.523,0.255 L 29.718,5.07 c -0.097,1.157 1.154,1.662 1.154,1.662 m 51.96,4.37 c -0.765,1.091 -0.882,0.854 -0.882,0.854 -2.01,-0.216 -8.762,-1.185 -8.762,-1.185 l 0.617,0.709 c 0.074,0.334 -0.215,0.975 -0.215,0.975 -0.574,0.472 -0.761,0 -0.761,0 L 71.465,10.463 69.03,10.011 C 68.479,9.988 68.218,9.702 68.218,9.702 l -0.62,-0.687 c -0.36,-0.497 0.57,-0.449 0.57,-0.449 L 70.553,8.967 68.005,5.318 C 65.352,2.069 63.756,2.826 63.756,2.826 c -0.145,0.76 1.905,3.06 1.905,3.06 0.716,0.448 0.148,0.781 0.148,0.781 -0.529,0.288 -0.408,0.905 -0.408,0.905 0.121,0.449 0.051,0.566 0.051,0.566 -0.623,0.711 -1.534,0.12 -1.534,0.12 -1.476,-1.282 -6.012,-4.506 -6.012,-4.506 -0.529,0.665 1.956,7.775 1.956,7.775 0.426,0.809 -0.264,0.904 -0.264,0.904 -0.691,0.165 -0.811,-0.12 -0.811,-0.12 -0.716,-2.416 -7.281,-9.506 -7.281,-9.506 -1.336,-0.83 -1.049,0.898 -1.049,0.898 0.832,6.712 7.853,11.384 7.853,11.384 0.454,0.377 0.787,0.045 0.787,0.045 0.596,-0.593 -0.38,-1.28 -0.38,-1.28 -0.525,-0.261 -0.191,-0.759 -0.191,-0.759 0.31,-0.405 0.498,-0.286 0.498,-0.286 0.787,0.146 0.959,2.256 0.959,2.256 0.07,1.658 -1.554,1.232 -1.554,1.232 C 52.197,14.114 49.187,5.91 49.187,5.91 48.758,5.149 46.467,3.682 46.467,3.682 45.585,3.256 45.915,4.157 45.915,4.157 c 0.287,0.781 0.05,1.874 0.05,1.874 C 45.536,7.76 44.099,6.597 44.099,6.597 43.411,6.124 41.888,4.796 41.888,4.796 41.981,5.269 41.833,7.023 41.833,7.023 41.62,8.211 40.331,7.593 40.331,7.593 39.665,7.381 37.892,5.959 37.892,5.959 38.326,7.639 36.911,7.308 36.911,7.308 36.079,7.143 34.193,5.294 34.193,5.294 31.591,2.71 29.49,2.784 29.49,2.784 28.438,2.805 29.129,3.847 29.129,3.847 l 4.204,2.869 c 0.738,0.45 0.17,0.856 0.17,0.856 C 29.704,9.537 28.083,4.25 28.083,4.25 27.819,3.872 26.6,3.161 26.6,3.161 25.261,2.351 25.882,5.031 26.028,5.839 26.171,6.645 25.525,7.023 25.525,7.023 24.641,7.474 24.189,7.047 24.189,7.047 23.14,6.196 21.038,5.078 21.038,5.078 21.512,8.092 19.725,6.955 19.725,6.955 16.93,4.584 14.087,3.302 14.087,3.302 13.801,3.443 15.067,6.955 15.067,6.955 14.541,8.757 12.99,7.071 12.99,7.071 11.318,5.672 8.569,4.749 8.569,4.749 11.221,8.282 6.135,8.733 6.135,8.733 1.575,9.372 1.075,9.584 1.075,9.584 0.073,9.868 0.836,10.56 0.836,10.56 c 3.603,3.316 6.803,3.744 6.803,3.744 4.321,0.709 4.825,-0.832 4.825,-0.832 0.335,-0.615 -0.24,-0.852 -0.24,-0.852 -0.618,-0.38 0.097,-0.88 0.097,-0.88 0.815,-0.426 1.027,0.571 1.027,0.571 0.571,2.511 -1.671,3.318 -1.671,3.318 C 6.876,17.125 1.218,12.832 1.218,12.832 -0.982,11.198 -0.643,9.868 -0.643,9.868 -0.643,8.658 3.842,7.95 3.842,7.95 7.307,7.381 7.211,6.385 7.211,6.385 7.019,4.201 5.229,3.563 5.229,3.563 2.959,3.136 1.241,2.425 1.241,2.425 -1.17,1.404 -1.504,-0.228 -1.504,-0.228 c -0.429,-1.092 0.738,-0.975 0.738,-0.975 4.538,0.832 8.12,4.292 8.12,4.292 0.787,0.376 5.899,3.035 5.899,3.035 C 13.944,6.5 13.515,5.98 13.515,5.98 12.655,4.489 12.634,3.492 12.634,3.492 12.51,1.096 13.872,1.762 13.872,1.762 15.354,2.212 19.725,5.816 19.725,5.816 20.085,5.485 18.553,3.94 18.553,3.94 17.671,2.874 18.195,2.021 18.195,2.021 c 0.358,-0.567 1.002,0.048 1.002,0.048 1.6,1.659 4.588,3.579 4.588,3.579 0.64,0.426 0.548,-0.212 0.548,-0.212 -0.048,-0.785 0.047,-2.085 0.047,-2.085 -0.143,-0.829 0.98,-1.493 0.98,-1.493 0.598,-0.454 1.168,0.044 1.168,0.044 0.695,0.57 1.386,1.142 1.386,1.142 -0.408,-1.211 1.122,-1.235 1.122,-1.235 3.008,-0.071 7.285,3.959 7.285,3.959 C 36.99,6.15 36.675,5.507 36.675,5.507 36.536,5.173 35.316,3.396 35.316,3.396 34.884,2.592 35.341,2.069 35.341,2.069 35.696,1.62 35.961,2 35.961,2 c 0.811,1.136 3.655,4.031 3.655,4.031 1.099,0.924 0.883,0.043 0.883,0.043 -0.36,-2.178 -0.168,-2.985 -0.168,-2.985 0.474,-1.187 0.931,-0.901 0.931,-0.901 0.332,0.756 2.815,3.225 2.815,3.225 0.718,0.618 0.336,-0.924 0.336,-0.924 -0.432,-2.373 0.837,-2.42 0.837,-2.42 1.409,0.119 3.578,2.492 3.578,2.492 -0.09,-3.486 1.891,-3.298 1.891,-3.298 2.604,0.357 6.35,6.405 6.35,6.405 -1.672,-4.842 0.478,-4.884 0.478,-4.884 1.599,-0.145 2.815,1.3 2.815,1.3 1.004,1.234 3.515,2.727 3.515,2.727 0.545,0.165 0.354,-0.38 0.354,-0.38 L 62.915,4.133 c -1.19,-2.845 1.078,-2.659 1.078,-2.659 1.767,0.049 4.061,2.466 4.061,2.466 -0.218,-2.486 1.815,-2.154 1.815,-2.154 2.579,0.402 4.413,3.152 4.413,3.152 0.023,1.066 -0.449,0.613 -0.449,0.613 -2.014,-2.059 -3.87,-2.559 -3.87,-2.559 -1.508,-0.282 -1.051,0.76 -1.051,0.76 0.668,1.945 3.367,5.502 3.367,5.502 2.026,0.924 10.147,1.326 10.147,1.326 0.856,0.025 0.406,0.522 0.406,0.522" />
    </g>
    <g
       transform="matrix(0.35277777,0,0,-0.35277777,76.525376,-8.3348698)"
       id="g3706">
      <path
         id="path3708"
         style="fill:#ed1c24;fill-opacity:1;fill-rule:nonzero;stroke:none"
         d="m 0,0 c 0.747,0 1.348,-0.602 1.348,-1.342 0,-0.742 -0.601,-1.34 -1.348,-1.34 -0.748,0 -1.352,0.598 -1.352,1.34 C -1.352,-0.602 -0.748,0 0,0 m 0.006,-3.003 c 0.937,0 1.703,0.758 1.703,1.687 0,0.933 -0.766,1.692 -1.703,1.692 -0.94,0 -1.7,-0.759 -1.7,-1.692 0,-0.929 0.76,-1.687 1.7,-1.687" />
    </g>
    <g
       transform="matrix(0.35277777,0,0,-0.35277777,76.412733,-8.0942426)"
       id="g3710">
      <path
         id="path3712"
         style="fill:#ed1c24;fill-opacity:1;fill-rule:nonzero;stroke:none"
         d="M 0,0 H 0.275 C 0.413,0 0.499,-0.004 0.528,-0.006 0.584,-0.013 0.626,-0.037 0.659,-0.074 0.689,-0.106 0.704,-0.153 0.704,-0.21 0.704,-0.262 0.696,-0.302 0.669,-0.338 0.648,-0.372 0.614,-0.396 0.569,-0.409 0.533,-0.424 0.431,-0.429 0.263,-0.429 H 0 Z m 0,-0.699 h 0.077 c 0.082,0 0.139,-0.007 0.174,-0.019 0.037,-0.013 0.072,-0.038 0.105,-0.073 0.03,-0.034 0.094,-0.117 0.183,-0.25 l 0.253,-0.364 h 0.41 l -0.209,0.328 c -0.086,0.132 -0.145,0.227 -0.195,0.275 -0.049,0.051 -0.113,0.099 -0.186,0.144 0.149,0.02 0.261,0.072 0.338,0.155 0.077,0.084 0.116,0.187 0.116,0.314 C 1.066,-0.09 1.04,0 0.991,0.079 0.94,0.157 0.87,0.21 0.792,0.241 0.709,0.269 0.569,0.287 0.392,0.287 H -0.339 V -1.405 H 0 Z" />
    </g>
    <g
       transform="matrix(0.35277777,0,0,-0.35277777,53.838728,-6.6228426)"
       id="g3714">
      <path
         id="path3716"
         style="fill:#ed1c24;fill-opacity:1;fill-rule:nonzero;stroke:none"
         d="M 0,0 C 0.612,0.063 0.595,0.983 0.595,0.983 0.588,1.354 0.309,1.55 0.309,1.55 -0.24,1.745 -0.715,1.525 -0.715,1.525 -1.123,1.384 -0.917,0.73 -0.917,0.73 -0.741,-0.016 0,0 0,0" />
    </g>
  </g>
</svg>
