<svg width="222" height="196" xmlns="http://www.w3.org/2000/svg" xmlns:xlink="http://www.w3.org/1999/xlink" overflow="hidden"><g transform="translate(-751 -435)"><path d="M15.0759 27.0724C14.2505 27.8979 13.1613 28.1482 12.6472 27.6319L-0.660567 14.3252C-1.17477 13.8096-0.92442 12.7231-0.0989968 11.8976L11.0707 0.728116C11.8961-0.0966112 12.9786-0.346969 13.4995 0.168602L26.8004 13.4754C27.3214 13.9916 27.071 15.0782 26.2457 15.9029L15.0759 27.0724" fill="#F48515" fill-rule="evenodd" transform="matrix(1 0 0 -1 945 603)"/><path d="M14.4643 139.762-0.829965 124.468 123.877-0.237563 139.17 15.0565 14.4643 139.762" fill="#F04624" fill-rule="evenodd" transform="matrix(1 0 0 -1 810 580)"/><path d="M19.2629 14.8106-0.737159 19.6528 4.10512-0.347203Z" fill="#E2C083" fill-rule="evenodd" transform="matrix(1 0 0 -1 805 455)"/><path d="M8.02178 133.762-0.832868 124.907 124.311-0.238401 133.167 8.61639 8.02178 133.762" fill="#F48515" fill-rule="evenodd" transform="matrix(1 0 0 -1 813 577)"/><path d="M7.25178 5.69539-0.748216 7.63276 1.18841-0.367238Z" fill="#121210" fill-rule="evenodd" transform="matrix(1 0 0 -1 805 443)"/><path d="M29.064 15.4024 13.5441-0.118364-0.935986 14.3609 14.5819 29.8816 29.064 15.4024" fill="#FBD845" fill-rule="evenodd" transform="matrix(1 0 0 -1 935 595)"/><path d="M-0.898858-0.121787 14.1011 14.8783Z" stroke="#F48515" stroke-width="3.41785" stroke-miterlimit="8" fill="none" fill-rule="evenodd" transform="matrix(1 0 0 -1 938.5 583.5)"/><path d="M-0.962637-0.117268 15.0375 14.8827Z" stroke="#F48515" stroke-width="3.41785" stroke-miterlimit="8" fill="none" fill-rule="evenodd" transform="matrix(1 0 0 -1 940.5 586.5)"/><path d="M10.9802 26.5525C9.9618 27.1202 8.84154 27.0706 8.48168 26.4412L-0.796877 10.2024C-1.15674 9.57288-0.621739 8.6023 0.398126 8.03446L14.2052 0.34305C15.2236-0.224686 16.3439-0.175076 16.7039 0.454313L25.9783 16.6933C26.3381 17.3226 25.8085 18.2933 24.7901 18.8611L10.9802 26.5525" fill="#7ECB2A" fill-rule="evenodd" transform="matrix(1 0 0 -1 929 630)"/><path d="M9.89211 104.852-0.787375 86.1051 153.534-0.147858 164.213 18.5993 9.89211 104.852" fill="#3FB83D" fill-rule="evenodd" transform="matrix(1 0 0 -1 763 614)"/><path d="M20.3172 17.786-0.682796 17.1091 9.5601-0.214Z" fill="#E2C083" fill-rule="evenodd" transform="matrix(1 0 0 -1 753 527)"/><path d="M5.35769 96.8523-0.785012 86.0441 153.072-0.147752 159.215 10.6604 5.35769 96.8523" fill="#7ECB2A" fill-rule="evenodd" transform="matrix(1 0 0 -1 765 610)"/><path d="M7.34092 6.77767-0.659183 6.5144 3.2434-0.222431Z" fill="#121210" fill-rule="evenodd" transform="matrix(1 0 0 -1 753 516)"/><path d="M27.109 18.2809 16.5554-0.0628054-0.891131 9.59342 9.66108 27.9372 27.109 18.2809" fill="#FBD845" fill-rule="evenodd" transform="matrix(1 0 0 -1 917 624)"/><path d="M-0.921524-0.0703328 10.0786 18.9297Z" stroke="#F48515" stroke-width="3.41785" stroke-miterlimit="8" fill="none" fill-rule="evenodd" transform="matrix(1 0 0 -1 920.5 616.5)"/><path d="M-0.841788-0.0671647 9.15821 18.9329Z" stroke="#F48515" stroke-width="3.41785" stroke-miterlimit="8" fill="none" fill-rule="evenodd" transform="matrix(1 0 0 -1 924.5 618.5)"/></g></svg>