<svg width="110" height="110" xmlns="http://www.w3.org/2000/svg" xmlns:xlink="http://www.w3.org/1999/xlink" overflow="hidden"><g transform="translate(-579 -71)"><path d="M688 126C688 155.824 663.599 180 633.5 180 603.401 180 579 155.824 579 126 579 96.1771 603.4 72 633.5 72 663.599 72.0009 688 96.178 688 126Z" fill="#2FB7C4" fill-rule="evenodd"/><path d="M657.807 101 639.931 116.241 640.456 122.255 636.122 127.618 636 133 657.594 115.84C657.594 115.84 660.611 111.973 657.807 101Z" fill="#DBDBDB" fill-rule="evenodd"/><path d="M623.868 130.506C620.096 126.548 612.623 127.367 607.172 132.336 601.723 137.304 600.362 144.538 604.134 148.495 607.904 152.452 615.375 151.633 620.827 146.665 626.277 141.697 627.637 134.462 623.868 130.506ZM617.822 143.51C614.772 146.291 610.589 146.749 608.477 144.534 606.367 142.32 607.127 138.27 610.179 135.489 613.229 132.708 617.414 132.25 619.524 134.464 621.635 136.68 620.872 140.729 617.822 143.51Z" fill="#FCD972" fill-rule="evenodd"/><path d="M629.062 150.322C629.669 157.765 634.609 163.428 640.101 162.975 645.588 162.521 649.546 156.121 648.938 148.679 648.331 141.235 643.388 135.572 637.901 136.025 632.41 136.479 628.454 142.879 629.062 150.322ZM638.384 141.957C641.457 141.703 644.223 144.874 644.562 149.04 644.901 153.205 642.687 156.789 639.615 157.042 636.542 157.296 633.776 154.126 633.437 149.96 633.096 145.794 635.312 142.211 638.384 141.957Z" fill="#FCD972" fill-rule="evenodd"/><path d="M640 121.975 636.588 93C627.371 99.2112 627 104.077 627 104.077L627.876 135 635.745 133.212 635.905 127.038 640 121.975ZM634.734 124.168C633.896 123.836 633.48 122.874 633.805 122.016 634.13 121.158 635.072 120.733 635.91 121.064 636.749 121.395 637.166 122.359 636.842 123.216 636.516 124.075 635.573 124.5 634.734 124.168Z" fill="#FFFFFF" fill-rule="evenodd"/></g></svg>