<svg width="110" height="110" xmlns="http://www.w3.org/2000/svg" xmlns:xlink="http://www.w3.org/1999/xlink" overflow="hidden"><g transform="translate(-712 -74)"><path d="M821 129C821 158.823 796.825 183 767 183 737.177 183 713 158.823 713 129 713 99.1767 737.177 75 767 75 796.825 75 821 99.1767 821 129Z" fill="#25505B" fill-rule="evenodd"/><path d="M741 130 739.829 130C738.819 130 738 129.105 738 128L738 128C738 126.895 738.819 126 739.829 126L741 126 741 130Z" fill="#CCCCCC" fill-rule="evenodd"/><path d="M794.978 125 764 125 764 128.145 794.978 128.145C795.389 128.145 795.724 128.429 795.724 128.778L795.724 140.683C795.724 141.033 795.389 141.317 794.978 141.317L769.402 141.317C767.415 141.317 765.765 142.679 765.443 144.462 765.406 144.669 765.382 144.879 765.382 145.095L765.382 157 768.658 157 768.658 145.095C768.658 144.745 768.993 144.462 769.403 144.462L794.979 144.462C796.966 144.462 798.616 143.099 798.939 141.317 798.977 141.11 799 140.899 799 140.683L799 128.778C798.999 126.695 797.195 125 794.978 125Z" fill="#CCCCCC" fill-rule="evenodd"/><path d="M794 134.543C794 135.9 792.929 137 791.606 137L743.394 137C742.071 137 741 135.9 741 134.543L741 120.457C741 119.099 742.071 118 743.394 118L791.606 118C792.929 118 794 119.1 794 120.457L794 134.543Z" fill="#2FB7C4" fill-rule="evenodd"/><path d="M794 128 794 134.59C794 135.921 792.929 137 791.606 137L743.394 137C742.071 137 741 135.921 741 134.59L741 128 794 128Z" fill="#AFDDE0" fill-rule="evenodd"/><path d="M772 175.558C772 176.908 770.915 178 769.574 178L763.426 178C762.086 178 761 176.907 761 175.558L761 152.442C761 151.093 762.086 150 763.426 150L769.574 150C770.915 150 772 151.093 772 152.442L772 175.558Z" fill="#F5503B" fill-rule="evenodd"/><path d="M767 150 769.656 150C770.951 150 772 151.093 772 152.442L772 175.558C772 176.908 770.951 178 769.656 178L767 178 767 150Z" fill="#CC4331" fill-rule="evenodd"/><path d="M791 115 791 105.469 791 98.3494C791 94.7065 788.498 91.7524 785.411 91.7524 782.325 91.7524 779.823 94.7065 779.823 98.3494 779.823 98.3494 779.829 103.256 779.823 105.469 779.822 105.791 778.561 105.791 778.563 105.469 778.589 102.773 778.563 97.1369 778.563 97.1369 778.563 90.9857 773.684 86 767.667 86 761.649 86 756.771 90.9866 756.771 97.1369 756.771 97.1369 756.687 103.618 756.771 105.469 756.781 105.689 755.922 105.689 755.909 105.469 755.865 104.701 755.909 104.082 755.909 104.082 755.909 100.738 753.019 98.0284 749.455 98.0284 745.89 98.0284 743 100.739 743 104.082L743 105.469 743 115 791 115Z" fill="#2FB7C4" fill-rule="evenodd"/></g></svg>