<svg width="110" height="110" xmlns="http://www.w3.org/2000/svg" xmlns:xlink="http://www.w3.org/1999/xlink" overflow="hidden"><g transform="translate(-711 -196)"><path d="M820 250.999C820 280.823 795.599 305 765.5 305 735.401 305 711 280.823 711 250.999 711 221.176 735.401 197 765.5 197 795.599 197 820 221.176 820 250.999Z" fill="#F5EDB6" fill-rule="evenodd"/><path d="M761.73 233 752.486 267.159C751.092 272.307 752.793 277.376 756.337 279.501L755.386 283.014 759.078 284 760.016 280.534C764.215 280.561 768.343 276.992 769.755 271.77L779 237.611 761.73 233Z" fill="#AFDDE0" fill-rule="evenodd"/><path d="M781.128 230.143 784.119 219.095C785.39 214.398 782.585 209.567 777.854 208.304 773.124 207.041 768.257 209.826 766.985 214.522L763.994 225.57 760.118 224.537 758 232.36 782.882 239 785 231.176 781.128 230.143Z" fill="#25505B" fill-rule="evenodd"/><path d="M757 283.43 759.128 284 760.074 280.494C764.309 280.521 768.471 276.91 769.895 271.628L776 249 757 283.43Z" fill="#2FB7C4" fill-rule="evenodd"/><path d="M770 235.647 782.818 239 785 231.099 781.01 230.055 784.091 218.897C785.401 214.155 782.511 209.275 777.638 208L770 235.647Z" fill="#132C30" fill-rule="evenodd"/><path d="M757.944 291.216C757.583 292.501 756.203 293.262 754.862 292.917 753.521 292.571 752.727 291.252 753.087 289.967 753.447 288.683 756.804 286 756.804 286 756.804 286 758.305 289.934 757.944 291.216Z" fill="#2FB7C4" fill-rule="evenodd"/></g></svg>