<svg width="110" height="110" xmlns="http://www.w3.org/2000/svg" xmlns:xlink="http://www.w3.org/1999/xlink" overflow="hidden"><g transform="translate(-579 -321)"><path d="M688 375.999C688 405.823 663.823 430 634 430 604.176 430 580 405.823 580 375.999 580 346.176 604.177 322 634 322 663.823 322 688 346.176 688 375.999Z" fill="#FFBD6C" fill-rule="evenodd"/><path d="M636 343 634.607 343C634.272 343 634 343.329 634 343.737L634 353 636 353 636 343Z" fill="#FFFFFF" fill-rule="evenodd"/><path d="M636 343 637.393 343C637.729 343 638 343.329 638 343.737L638 353 636 353 636 343Z" fill="#DEDEDE" fill-rule="evenodd"/><path d="M619 365 619 408.674C619 408.674 624.457 413.146 636 414L636 367.13C636 367.129 620.889 366.705 619 365Z" fill="#E2B4D2" fill-rule="evenodd"/><path d="M630.543 350 619 364.837C619 364.837 620.259 367.2 636 366.986L636 350 630.543 350Z" fill="#BEBEBF" fill-rule="evenodd"/><path d="M653 365 653 408.674C653 408.674 647.544 413.146 636 414L636 367.13C636.001 367.129 651.111 366.705 653 365Z" fill="#B38EA6" fill-rule="evenodd"/><path d="M641.457 350 653 364.837C653 364.837 651.741 367.2 636 366.986L636 350 641.457 350Z" fill="#909091" fill-rule="evenodd"/><path d="M634 345C634.553 345 635 345.671 635 346.499 635 347.329 634.553 348 634 348" fill-rule="evenodd"/><path d="M629.329 347C629.329 347 601.877 348.966 598.336 349.838 598.136 349.888 597.941 349.944 597.749 350.004 597.543 349.876 597.318 349.768 597.076 349.687 595.54 349.171 593.909 349.84 593.433 351.182 593.223 351.777 593.275 352.403 593.531 352.961 592.443 353.095 591.501 353.756 591.145 354.763 590.629 356.22 591.536 357.847 593.171 358.395 593.557 358.526 593.951 358.581 594.334 358.575 594.547 359.561 595.324 360.442 596.443 360.818 598.078 361.367 599.822 360.633 600.337 359.174 600.372 359.08 600.398 358.985 600.421 358.887 600.504 358.869 600.587 358.856 600.671 358.834 603.558 358.125 623.113 351.35 629.382 348.631 630.803 348.015 629.329 347 629.329 347Z" fill="#FFFFFF" fill-rule="evenodd"/></g></svg>