<svg width="110" height="110" xmlns="http://www.w3.org/2000/svg" xmlns:xlink="http://www.w3.org/1999/xlink" overflow="hidden"><g transform="translate(-445 -70)"><path d="M553.129 113.03C559.843 142.241 541.605 171.365 512.393 178.079 483.182 184.793 454.058 166.555 447.344 137.343 440.63 108.131 458.868 79.008 488.08 72.294 517.292 65.58 546.415 83.818 553.129 113.03Z" fill="#2AA2AE" fill-rule="evenodd"/><path d="M536.903 124.053C536.364 102.685 513.077 94.6548 491.953 96.1809 478.842 97.1288 467.749 106.854 464.631 117.53 461.541 127.816 470.801 131.762 470.801 131.762 476.177 134.258 484.194 131.391 486.665 136.506 488.036 139.341 487.121 142.552 488.134 145.4 490.087 150.884 494.615 153.164 500.767 154 500.865 154 500.963 154.001 501.061 154 520.438 153.693 535.154 146.613 536.903 129.686 537.096 127.818 536.95 125.931 536.903 124.053ZM500.452 146.598C497.05 146.598 494.292 143.814 494.292 140.381 494.292 136.949 497.05 134.166 500.452 134.166 503.852 134.166 506.609 136.95 506.609 140.381 506.609 143.814 503.852 146.598 500.452 146.598Z" fill="#F5EDB6" fill-rule="evenodd"/><path d="M482 120.001C482 122.762 479.761 125 477 125 474.239 125 472 122.762 472 120.001 472 117.24 474.239 115 477 115 479.761 115 482 117.24 482 120.001Z" fill="#FF543E" fill-rule="evenodd"/><path d="M495 109C495 111.76 492.762 114 490 114 487.238 114 485 111.761 485 109 485 106.239 487.238 104 490 104 492.761 104.001 495 106.239 495 109Z" fill="#F9A84B" fill-rule="evenodd"/><path d="M510 108.501C510 111.538 507.762 114 505 114 502.238 114 500 111.538 500 108.501 500 105.462 502.238 103 505 103 507.762 103 510 105.462 510 108.501Z" fill="#EDE153" fill-rule="evenodd"/><path d="M526 116.999C526 119.761 523.762 122 521.001 122 518.239 122 516 119.761 516 116.999 516 114.238 518.238 112 521.001 112 523.762 112 526 114.238 526 116.999Z" fill="#00A79C" fill-rule="evenodd"/></g></svg>