<svg width="110" height="110" xmlns="http://www.w3.org/2000/svg" xmlns:xlink="http://www.w3.org/1999/xlink" overflow="hidden"><g transform="translate(-445 -198)"><path d="M554 252.5C554 282.6 529.823 307 500 307 470.177 307 446 282.6 446 252.5 446 222.4 470.177 198 500 198 529.823 198 554 222.401 554 252.5Z" fill="#25505B" fill-rule="evenodd"/><path d="M472.431 231.876 479.544 217.519 528.465 241.753 521.353 256.111Z" fill="#FDFDFD" fill-rule="evenodd"/><path d="M503.983 247.507 511.095 233.149 519.602 237.364 512.49 251.721Z" fill="#5E0F16" fill-rule="evenodd"/><path d="M493.347 242.236 500.459 227.879 508.967 232.093 501.855 246.45Z" fill="#8E1621" fill-rule="evenodd"/><path d="M482.713 236.971 489.825 222.614 498.333 226.829 491.221 241.186Z" fill="#BD1D2D" fill-rule="evenodd"/><path d="M472.078 231.704 479.191 217.346 487.699 221.561 480.587 235.918Z" fill="#CA4B56" fill-rule="evenodd"/><path d="M468.932 245.195 471.952 229.46 525.568 239.751 522.548 255.486Z" fill="#FDFDFD" fill-rule="evenodd"/><path d="M503.497 251.82 506.515 236.085 515.84 237.873 512.821 253.608Z" fill="#EF4136" fill-rule="evenodd"/><path d="M491.842 249.585 494.861 233.85 504.186 235.639 501.167 251.374Z" fill="#F2675D" fill-rule="evenodd"/><path d="M480.186 247.348 483.204 231.613 492.529 233.402 489.511 249.137Z" fill="#F48C85" fill-rule="evenodd"/><path d="M468.532 245.112 471.55 229.377 480.874 231.166 477.856 246.901Z" fill="#F9B3AF" fill-rule="evenodd"/><path d="M467.791 242.998 522.205 238.592 523.498 254.561 469.084 258.967Z" fill="#FDFDFD" fill-rule="evenodd"/><path d="M502.884 240.156 512.348 239.39 513.641 255.359 504.177 256.125Z" fill="#F6931D" fill-rule="evenodd"/><path d="M491.065 241.106 500.528 240.338 501.823 256.307 492.359 257.075Z" fill="#F9A84B" fill-rule="evenodd"/><path d="M479.238 242.059 488.702 241.292 489.995 257.261 480.531 258.028Z" fill="#F9BF77" fill-rule="evenodd"/><path d="M467.409 243.017 476.873 242.251 478.166 258.22 468.702 258.986Z" fill="#FBD4A5" fill-rule="evenodd"/><path d="M467.444 257.152 518.708 238.372 524.22 253.416 472.956 272.197Z" fill="#FDFDFD" fill-rule="evenodd"/><path d="M500.494 245.041 509.41 241.776 514.919 256.82 506.004 260.085Z" fill="#8CC63F" fill-rule="evenodd"/><path d="M489.362 249.121 498.278 245.854 503.79 260.899 494.874 264.165Z" fill="#A3D164" fill-rule="evenodd"/><path d="M478.219 253.202 487.135 249.936 492.646 264.98 483.73 268.246Z" fill="#BADD8C" fill-rule="evenodd"/><path d="M467.077 257.28 475.993 254.014 481.504 269.059 472.589 272.325Z" fill="#D1E8B1" fill-rule="evenodd"/><path d="M470.872 270.866 515.257 239.076 524.586 252.101 480.201 283.891Z" fill="#FDFDFD" fill-rule="evenodd"/><path d="M499.494 250.373 507.213 244.844 516.542 257.87 508.824 263.398Z" fill="#00A79C" fill-rule="evenodd"/><path d="M489.843 257.258 497.562 251.728 506.893 264.753 499.175 270.283Z" fill="#33B8B1" fill-rule="evenodd"/><path d="M480.178 264.196 487.897 258.668 497.225 271.694 489.505 277.222Z" fill="#66CAC3" fill-rule="evenodd"/><path d="M470.551 271.096 478.271 265.567 487.6 278.592 479.881 284.121Z" fill="#99DBD8" fill-rule="evenodd"/><path d="M477.831 283.171 512.11 240.681 524.58 250.741 490.3 293.231Z" fill="#FDFDFD" fill-rule="evenodd"/><path d="M499.938 255.771 505.9 248.381 518.37 258.441 512.408 265.831Z" fill="#1C75BC" fill-rule="evenodd"/><path d="M492.489 265.031 498.451 257.642 510.921 267.702 504.959 275.091Z" fill="#4990C8" fill-rule="evenodd"/><path d="M485.036 274.247 490.998 266.857 503.467 276.917 497.505 284.307Z" fill="#77ACD6" fill-rule="evenodd"/><path d="M477.583 283.475 483.545 276.085 496.015 286.145 490.053 293.535Z" fill="#A3C8E4" fill-rule="evenodd"/><path d="M519.648 250.462C526.445 251.657 533.564 250.613 539.276 246.828 541.262 245.511 545.367 241.427 540.959 240.265 539.035 239.758 536.686 240.233 534.786 240.609 532.921 240.979 530.901 241.427 529.114 242.058 528.44 242.295 528.086 241.301 528.757 241.065 530.796 240.345 533.101 239.834 535.244 239.456 537.281 239.097 539.787 238.664 541.794 239.407 544.421 240.381 544.533 242.893 543.017 244.893 540.659 248.003 536.488 249.892 532.707 250.979 528.429 252.208 523.807 252.261 519.436 251.493 518.728 251.368 518.942 250.338 519.648 250.462Z" fill="#FDE8BD" fill-rule="evenodd"/></g></svg>