<svg width="110" height="110" xmlns="http://www.w3.org/2000/svg" xmlns:xlink="http://www.w3.org/1999/xlink" overflow="hidden"><g transform="translate(-1010 -71)"><path d="M1119 126C1119 155.824 1094.82 180 1065 180 1035.18 180 1011 155.824 1011 126 1011 96.1767 1035.18 72 1065 72 1094.82 72 1119 96.1767 1119 126Z" fill="#FCD972" fill-rule="evenodd"/><path d="M1063.71 168.764C1063.17 170.451 1061.37 171.384 1059.68 170.849L1045.24 166.275C1043.55 165.739 1042.62 163.938 1043.15 162.251L1067.29 86.2365C1067.83 84.5492 1069.63 83.6159 1071.32 84.1508L1085.76 88.7251C1087.45 89.2609 1088.38 91.0621 1087.85 92.7493L1063.71 168.764ZM1076.99 90.8144C1075.28 90.2733 1073.45 91.2174 1072.91 92.9234 1072.37 94.6286 1073.32 96.4505 1075.02 96.9917 1076.73 97.5329 1078.56 96.5888 1079.1 94.8826 1079.64 93.1766 1078.69 91.3556 1076.99 90.8144Z" fill="#E27978" fill-rule="evenodd"/><path d="M1075.43 105.225 1075.97 103.509 1083.69 105.958 1083.15 107.674Z" fill="#666666" fill-rule="evenodd"/><path d="M1073.48 111.23 1074.29 108.657 1082.01 111.105 1081.2 113.679Z" fill="#666666" fill-rule="evenodd"/><path d="M1071.89 116.377 1072.43 114.661 1080.15 117.111 1079.61 118.826Z" fill="#666666" fill-rule="evenodd"/><path d="M1069.94 122.381 1070.76 119.808 1078.48 122.256 1077.66 124.83Z" fill="#666666" fill-rule="evenodd"/><path d="M1068.35 127.53 1068.9 125.814 1076.62 128.263 1076.07 129.979Z" fill="#666666" fill-rule="evenodd"/><path d="M1066.4 133.534 1067.22 130.96 1074.94 133.409 1074.12 135.982Z" fill="#666666" fill-rule="evenodd"/><path d="M1064.82 138.683 1065.36 136.967 1073.08 139.417 1072.54 141.132Z" fill="#666666" fill-rule="evenodd"/><path d="M1062.88 144.672 1063.7 142.098 1071.42 144.547 1070.6 147.121Z" fill="#666666" fill-rule="evenodd"/><path d="M1061.28 149.835 1061.82 148.119 1069.54 150.568 1069 152.284Z" fill="#666666" fill-rule="evenodd"/><path d="M1059.33 155.837 1059.87 154.121 1067.59 156.57 1067.05 158.286Z" fill="#666666" fill-rule="evenodd"/></g></svg>