<svg width="110" height="110" xmlns="http://www.w3.org/2000/svg" xmlns:xlink="http://www.w3.org/1999/xlink" overflow="hidden"><g transform="translate(-848 -321)"><path d="M957 375.999C957 405.823 932.599 430 902.5 430 872.401 430 848 405.823 848 375.999 848 346.176 872.401 322 902.5 322 932.599 322.001 957 346.176 957 375.999Z" fill="#8FC97F" fill-rule="evenodd"/><path d="M879 349 932 349 932 403 879 403Z" fill="#FFFFFF" fill-rule="evenodd"/><path d="M886 351C886 353.209 883.984 355 881.5 355 879.015 355 877 353.209 877 351 877 348.791 879.016 347 881.5 347 883.984 346.999 886 348.79 886 351Z" fill="#FFFFFF" fill-rule="evenodd"/><path d="M893 351C893 353.209 890.985 355 888.5 355 886.015 355 884 353.209 884 351 884 348.791 886.015 347 888.5 347 890.986 346.999 893 348.79 893 351Z" fill="#FFFFFF" fill-rule="evenodd"/><path d="M899 351C899 353.209 897.209 355 895 355 892.79 355 891 353.209 891 351 891 348.791 892.791 347 895 347 897.208 346.999 899 348.79 899 351Z" fill="#FFFFFF" fill-rule="evenodd"/><path d="M917.964 387.008C917.771 384.936 916.814 383.066 915.559 381.66 913.343 379.176 911.494 379.797 910.202 381.451 908.723 383.106 908.353 384.968 910.569 387.451 911.655 388.664 913.139 388.939 914.395 389.314 915.701 389.705 916.758 390.206 916.852 392 917.812 390.297 918.112 388.594 917.964 387.008Z" fill="#4D3E43" fill-rule="evenodd"/><path d="M910.294 380.98C911.089 380.186 911.289 378.997 910.495 378.005 909.301 376.22 892.593 361.742 892.593 361.742 891.798 360.949 890.604 360.751 890.206 361.346 889.809 361.742 890.008 362.932 890.605 363.726 890.605 363.726 901.943 377.608 906.915 381.576 907.91 382.171 909.103 382.171 909.9 381.375L910.294 380.98Z" fill="#4D3E43" fill-rule="evenodd"/><path d="M930.094 345 878.906 345C875.559 345 873 347.519 873 350.812L873 401.187C873 404.48 875.559 407 878.906 407L930.094 407C933.44 407 936 404.48 936 401.187L936 350.812C936 347.519 933.44 345 930.094 345ZM895.05 349.069C896.232 349.069 897.412 350.038 897.412 351.393 897.412 352.749 896.428 353.719 895.05 353.719 893.869 353.719 892.688 352.75 892.688 351.393 892.687 350.038 893.672 349.069 895.05 349.069ZM888.356 349.069C889.537 349.069 890.719 350.038 890.719 351.393 890.719 352.749 889.735 353.719 888.356 353.719 886.977 353.719 885.994 352.75 885.994 351.393 885.993 350.038 887.175 349.069 888.356 349.069ZM881.859 349.069C883.041 349.069 884.221 350.038 884.221 351.393 884.221 352.749 883.237 353.719 881.859 353.719 880.482 353.719 879.497 352.75 879.497 351.393 879.497 350.038 880.678 349.069 881.859 349.069ZM929.11 396.343C929.11 398.476 927.337 400.217 925.173 400.217L883.829 400.217C881.663 400.217 879.893 398.474 879.893 396.343L879.893 361.468C879.893 359.338 881.664 357.594 883.829 357.594L900.563 357.594C904.304 357.594 904.5 357.594 904.5 355.656 904.5 353.138 906.272 351.783 908.437 351.783L925.171 351.783C927.338 351.783 929.109 353.527 929.109 355.656L929.109 396.343 929.11 396.343Z" fill="#FFBD6C" fill-rule="evenodd"/></g></svg>