<svg width="56" height="65" xmlns="http://www.w3.org/2000/svg" xmlns:xlink="http://www.w3.org/1999/xlink" overflow="hidden"><defs><clipPath id="clip0"><rect x="617" y="143" width="56" height="65"/></clipPath></defs><g clip-path="url(#clip0)" transform="translate(-617 -143)"><path d="M656.102 177.233C657.718 179.026 658.374 181.775 658.634 184.314 658.776 185.7 658.812 187.211 658.632 188.589 658.503 189.558 657.948 191.065 658.133 192 658.949 191.475 659.589 190.002 660 189.048 660.509 187.869 660.737 186.586 660.88 185.272 661.083 183.402 661.078 181.514 660.476 179.731 659.64 177.254 657.819 177.258 656 177L656.102 177.233Z" fill="#FFEB97" fill-rule="evenodd"/><path d="M661.537 173.564C660.08 172.399 648.421 179.87 647.283 178.449 646.752 177.785 657.459 168.887 654.297 162.378 649.854 153.231 638.724 155.246 629.652 160.191 618.19 166.439 613.691 181.368 619.603 193.538 625.514 205.707 639.597 210.508 651.059 204.261 662.519 198.014 671.877 181.826 661.537 173.564ZM641.364 176.87C638.917 178.204 635.925 177.209 634.683 174.647 633.44 172.087 634.414 168.93 636.861 167.596 639.307 166.262 642.299 167.258 643.542 169.819 644.786 172.38 643.813 175.537 641.364 176.87Z" fill="#826A02" fill-rule="evenodd"/><path d="M661.606 173.272C660.176 172.126 648.775 179.418 647.656 178.022 647.133 177.37 657.597 168.676 654.485 162.285 650.11 153.303 639.213 155.247 630.339 160.07 619.127 166.164 614.757 180.791 620.578 192.741 626.398 204.691 640.205 209.438 651.419 203.344 662.629 197.249 671.753 181.402 661.606 173.272ZM641.854 176.457C639.46 177.759 636.527 176.774 635.304 174.26 634.078 171.745 635.024 168.652 637.419 167.351 639.81 166.052 642.743 167.035 643.969 169.55 645.192 172.063 644.245 175.157 641.854 176.457Z" fill="#DDC55F" fill-rule="evenodd"/><path d="M621.444 169.189C620.517 170.058 620.06 171.975 619.723 173.253 619.273 174.954 619.005 176.705 619 178.481 618.99 182.47 619.456 186.514 621.5 189.992 622.991 192.53 626.411 193.042 626.159 189.286 625.867 184.931 626.183 180.713 627.658 176.659 628.6 174.073 630.062 171.668 631.594 169.504 632.5 168.224 633.829 166.743 633.988 164.986 634.154 163.163 632.612 162.149 631.236 162.019 629.548 161.862 627.936 162.72 626.486 163.549 624.05 164.942 622.647 167.141 621.053 169.435 621.051 169.601 621.139 169.494 621.175 169.542L621.444 169.189Z" fill="#EFD565" fill-rule="evenodd"/><path d="M620.901 169.919C619.267 172.467 618.848 176.559 619.045 179.676 619.103 180.58 619.845 184.392 620.925 182.462 621.403 181.607 621.466 180.084 621.738 179.106 622.123 177.714 622.607 176.327 623.247 175.07 624.314 172.976 625.618 171.128 627.014 169.319 627.822 168.27 629.037 166.76 628.999 165.21 628.946 162.989 626.243 164.417 625.368 164.879 624.148 165.526 623.269 166.557 622.408 167.696 622.076 168.137 621.637 168.521 621.341 168.953 621.096 169.31 620.828 170.058 620.592 170.201L620.901 169.919Z" fill="#F7DF77" fill-rule="evenodd"/><path d="M647.468 179.194C645.962 180.055 646.713 184.782 646.537 186.349 646.195 189.386 645.14 192.36 643.887 195.034 642.852 197.251 641.459 198.754 639.965 200.571 639.086 201.639 637.858 202.237 637 203.268 637.917 203.734 639.636 203.889 640.679 203.969 642.247 204.087 643.964 203.861 645.47 203.457 648.996 202.51 652.458 200.22 655.164 197.636 658.305 194.635 660.526 191.074 661.517 186.5 662.132 183.659 662.4 180.166 660.826 177.545 659.024 174.547 655.856 176.673 653.673 177.601 652.483 178.107 651.361 178.359 650.098 178.589 649.28 178.738 647.936 178.753 647.272 179.321 647.274 179.488 647.365 179.382 647.4 179.43L647.468 179.194Z" fill="#EFD565" fill-rule="evenodd"/><path d="M653.691 177.865C656.646 180.942 657.029 186.611 656.24 190.761 655.514 194.579 653.387 198.283 651 201 655.72 198.24 659.886 194.544 661.172 188.466 661.874 185.157 663.55 175.952 658.394 176 657.189 176.009 654.282 176.566 653.8 177.906L653.691 177.865Z" fill="#F7DF77" fill-rule="evenodd"/><path d="M630.077 160.274C635.907 157.088 644.611 161.164 646.462 168.251 646.989 170.272 647.521 172.503 647.322 174.61 647.208 175.826 646.757 176.881 646.486 178 647.556 177.616 648.443 176.36 649.231 175.518 649.992 174.705 650.823 173.862 651.466 172.948 652.614 171.321 653.802 169.098 653.971 166.997 654.384 161.889 650.356 157.672 646.209 156.294 644.642 155.773 643.286 156.066 641.721 156.25 640.272 156.421 638.804 156.54 637.45 157.022 636.085 157.51 634.758 158.173 633.394 158.645 632.276 159.032 631.06 159.755 630 160.114L630.077 160.274Z" fill="#DDC55F" fill-rule="evenodd" fill-opacity="0.301961"/><path d="M620.448 176.158C620.016 176.649 619.979 177.892 620.007 178.591 620.055 179.695 620.306 179.85 620.849 180.541 621.779 181.719 621.638 183.332 623.209 183.856 624.686 184.349 626.44 183.513 627.515 182.346 628.665 181.102 628.961 179.47 628.999 177.689 629.098 172.85 624.298 171.763 621.572 174.397 621.197 174.76 620.651 176.152 620.448 176.158L620.448 176.158Z" fill="#16AAD8" fill-rule="evenodd"/><path d="M620.659 176.345C620.359 175.594 621.765 174.427 622.387 174.336 622.816 174.273 623.285 174.516 623.738 174.5 624.276 174.483 624.67 174.283 625.202 174.468 627.392 175.233 627.901 178.762 626.822 180.59 626.451 181.221 625.42 182.344 624.637 182.272 623.969 182.211 623.549 181.131 622.99 180.715 622.444 180.309 621.691 179.905 621.233 179.396 620.651 178.747 620.914 177.979 620.494 177.339 618.974 177.722 621.417 180.287 621.739 180.803 622.668 182.296 622.986 183.167 624.797 182.973 628.079 182.624 629.29 179.943 628.943 176.689 628.716 174.543 626.954 173.074 624.947 173.001 623.943 172.963 620.208 174.315 620.793 175.876L620.659 176.345Z" fill="#16AAD8" fill-rule="evenodd" fill-opacity="0.301961"/><path d="M626.784 189.693C625.472 190.618 626.084 193.442 626.63 194.703 627.356 196.376 627.811 197.793 629.084 199.09 630.138 200.168 631.525 201.214 632.978 200.962 634.044 200.777 635.708 200.446 636.554 199.691 638.761 197.726 638.006 192.928 637.137 190.403 636.253 187.83 634.301 186.777 631.882 187.039 631.226 187.109 626.281 188.727 626.676 189.65L626.784 189.693Z" fill="#20C6A6" fill-rule="evenodd"/><path d="M626.675 188.801C626.07 189.287 625.901 190.673 626.052 191.449 626.147 191.93 626.375 192.343 626.489 192.798 626.623 193.338 626.497 193.813 626.567 194.34 626.778 195.913 628.578 198.254 629.816 199.101 631.049 199.946 633.053 200.193 634.436 199.852 636.507 199.339 637.473 197.915 637.878 195.76 638.31 193.456 637.566 190.363 636.133 188.485 635.007 187.012 633.248 186.929 631.612 187.03 631.827 187.898 633.355 188.109 633.873 188.9 634.292 189.541 634.699 190.249 635.101 190.889 636.19 192.63 635.412 195.172 633.456 195.606 631.258 196.094 629.579 194.681 628.535 192.771 628.045 191.871 627.679 190.95 627.957 189.935 628.143 189.259 628.647 188.687 628.729 187.987 627.869 187.787 627.195 188.283 626.641 188.916L626.675 188.801Z" fill="#20C6A6" fill-rule="evenodd" fill-opacity="0.4"/><path d="M633.187 187.406C631.996 186.681 630.593 190.199 630.347 191.189 629.971 192.704 629.786 194.617 630.863 195.865 632.185 197.397 634.087 195.69 635.143 194.613 635.99 193.751 636.433 192.088 636.23 190.796 637.097 192.345 637.287 195.906 636.514 197.481 635.677 199.185 633.261 200.411 631.535 199.871 629.496 199.233 627.967 197.054 627.023 194.977 626.333 193.451 625.54 191.028 626.328 189.421 627.514 187.004 631.158 186.551 633.211 187.385 633.128 187.311 633.04 187.291 632.938 187.246L633.187 187.406Z" fill="#20C6A6" fill-rule="evenodd" fill-opacity="0.4"/><path d="M641.719 193.737C640.023 194.568 641.772 196.791 642.436 197.677 642.872 198.255 643.089 198.994 643.584 199.544 644.225 200.254 645.259 200.612 646.145 200.841 649.892 201.801 653.088 198.249 652.998 194.661 652.915 191.317 650.163 188.343 646.814 189.127 644.639 189.636 642.753 190.759 641.63 192.676 641.324 193.198 640.875 193.892 641.164 194.515L641.719 193.737Z" fill="#885CBC" fill-rule="evenodd"/><path d="M642.976 191.034C642.296 191.337 642.499 192.796 642.716 193.41 642.987 194.171 643.645 194.41 644.074 195.043 645.214 196.71 646.679 198.21 648.483 196.506 650.851 194.272 649.695 189.002 646.318 189.415 647.977 188.523 649.486 189.091 650.548 190.899 651.562 192.625 652.529 195.044 651.666 197.008 650.416 199.864 646.103 201.235 644.169 198.571 642.828 196.727 640.86 193.157 642.839 191.112L642.976 191.034Z" fill="#885CBC" fill-rule="evenodd" fill-opacity="0.4"/><path d="M645.39 190.262C643.936 191.348 643.66 194.51 644.694 196.04 645.875 197.793 648.618 197.076 649.517 195.347 650.355 193.735 649.536 191.301 648.123 190.25 647.215 189.572 646.01 189.868 644.983 189.971 645.458 188.306 648.5 189.135 649.43 189.861 650.706 190.859 651.95 192.955 651.999 194.639 652.08 197.585 648.909 201.311 646.026 200.979 644.696 200.826 643.745 199.614 643.144 198.42 642.521 197.189 641.368 196.023 641.05 194.659 640.744 193.367 641.901 191.801 642.839 191.146 643.348 190.79 643.889 190.457 644.451 190.183 644.754 190.035 644.866 189.641 645.3 189.921 645.61 190.119 645.641 190.39 645.399 190.646L645.39 190.262Z" fill="#885CBC" fill-rule="evenodd" fill-opacity="0.4"/><path d="M646.377 190.079C645.613 190.572 646.953 190.937 647.186 191.111 647.72 191.513 648.364 192.873 648.412 193.572 648.495 194.779 647.458 194.527 647.241 195.33 646.949 196.403 648.326 195.92 648.74 195.694 650.477 194.752 650.263 192.164 649.04 190.748 648.166 189.738 647.054 189.889 646 190.393L646.377 190.079Z" fill="#A073E0" fill-rule="evenodd"/><path d="M648.12 181.837C648.252 182.627 649.861 182.852 650.373 183.646 650.713 184.173 650.784 184.921 651.119 185.415 651.575 186.089 652.369 186.13 652.817 186.83 653.695 188.199 652.963 191.241 653.085 192.883 653.194 194.309 653.572 197.158 655.275 196.993 657.59 196.772 657.952 194.284 658 192.263 658.066 189.679 659.352 188.393 660.759 186.544 661.839 185.125 662.401 183.323 661.669 181.513 660.956 179.756 659.969 180.378 658.536 180.247 657.819 180.18 657.628 179.836 657.052 179.448 656.417 179.02 655.766 178.984 655.033 179.004 653.719 179.041 652.205 179.58 651.212 180.518 650.07 179.116 647.484 180.158 648.091 182.142 648.259 182.129 648.252 182.024 648.342 181.918L648.12 181.837Z" fill="#AD3636" fill-rule="evenodd"/><path d="M648 181.889C648.147 183.449 649.919 183.477 650.62 184.837 651.003 185.583 651.212 186.138 651.938 186.564 652.631 186.973 653.031 187.053 653.264 187.974 653.879 190.392 651.648 196.129 655.244 196.929 657.766 197.492 658.413 194.581 658.36 192.637 658.334 191.61 658.465 190.473 658.897 189.554 659.222 188.86 659.789 188.457 660.245 187.887 661.117 186.796 662.059 184.805 661.997 183.358 661.903 181.014 660.112 182.212 658.804 181.446 658.253 181.126 658.082 179.784 657.187 180.03 655.966 180.365 658.096 181.628 658.402 181.959 659.147 182.77 659.994 183.667 659.745 184.747 659.377 186.321 658.286 186.352 657.498 187.55 657.043 188.247 656.331 190.628 655.469 189.005 654.88 187.898 655.283 186.608 654.317 185.602 653.669 184.93 652.684 184.964 652.036 184.394 651.659 184.062 651.156 182.796 651.361 182.328 651.572 181.852 652.814 181.962 652.472 181.34 652.433 181.27 651.016 180.667 650.847 180.586 649.993 180.163 647.703 180.555 648.121 182.128L648 181.889Z" fill="#AD3636" fill-rule="evenodd" fill-opacity="0.501961"/><path d="M650.176 180.791C650.088 180.74 650.175 180.618 650.029 180.656 649.598 181.926 651.147 182.968 651.804 183.665 652.507 184.409 653.232 185.323 653.702 186.271 654.657 188.197 654.196 190.388 654.654 192.438 654.887 193.485 655.62 194.674 656.622 193.765 657.381 193.073 657.175 191.328 657.71 190.329 658.294 189.243 659.187 188.631 659.659 187.426 660.029 186.478 660.478 185.374 660.547 184.318 660.595 183.604 660.442 182.554 659.918 182.099 659.39 181.637 658.659 181.85 658.142 181.283 657.654 180.748 657.625 179.938 656.962 179.592 656.415 179.305 655.635 179.506 655.036 179.404 656.851 178.059 657.86 180.506 659.534 180.469 660.329 180.452 660.817 180.199 661.466 181.087 661.932 181.727 661.993 182.497 662 183.253 662.02 185.271 660.987 186.099 660.089 187.557 659.335 188.785 658.574 190.129 658.397 191.66 658.199 193.383 658.434 194.71 657.276 195.96 656.079 197.253 654.401 197.645 654.114 195.336 653.868 193.37 654.01 191.552 654.034 189.592 654.044 188.878 654.102 187.773 653.756 187.169 653.385 186.52 652.654 186.551 652.195 186.018 651.795 185.547 651.716 184.682 651.443 184.189 651.058 183.495 650.62 183.512 649.984 183.055 649.515 182.716 649.072 182.224 649.004 181.559 648.939 180.932 649.676 179.751 650.032 180.669L650.176 180.791Z" fill="#AD3636" fill-rule="evenodd" fill-opacity="0.501961"/><path d="M660.388 193.034C659.056 191.911 658.228 189.241 657.29 187.686 655.695 185.041 653.898 182.506 652.167 179.962 649.421 175.93 647.11 171.596 644.435 167.53 642.598 164.737 640.771 162.021 639.147 159.095 638.14 157.276 637.226 153.782 635.644 152.556 633.801 155.052 632.694 151.219 632.684 149.85 632.668 147.618 632.812 145.541 631 144 632.777 144.156 634.826 144.928 636.343 145.9 638.857 147.512 638.293 150.053 639.871 152.277 641.025 153.907 642.845 154.802 644.104 156.547 646.186 159.437 648.354 162.305 650.452 165.227 657.696 175.311 665.98 184.726 670.976 196.312 672.157 199.048 673.149 203.456 668.954 201.525 666.321 200.311 660.995 195.931 661.21 192.651L660.388 193.034Z" fill="#1B6D96" fill-rule="evenodd" fill-opacity="0.101961"/><path d="M641 160.401C643.568 165.009 647.292 171.031 651.627 177.473 660.589 190.794 668.759 200.853 669.873 199.943 670.988 199.033 664.624 187.495 655.662 174.176 651.321 167.727 647.169 162.047 643.913 158 642.977 158.868 641.899 159.643 641 160.401Z" fill="#7F4505" fill-rule="evenodd"/><path d="M637 154.785C637.562 156.024 638.418 157.28 639.127 158.45 639.756 159.489 640.436 160.493 641.054 161.526 641.588 162.425 642.122 163.362 642.703 164.229 643.329 165.166 644.112 165.174 645.101 164.652 645.8 164.284 646.621 163.479 646.923 162.753 647.26 161.947 646.415 161.221 645.921 160.657 644.38 158.904 642.788 157.181 641.255 155.434 640.852 154.974 640.476 154.507 640.05 154.073 639.872 153.891 639.214 153.021 638.988 153.001 638.7 152.977 637.999 153.69 637.758 153.868 637.379 154.15 636.78 154.501 637.171 155.015L637 154.785Z" fill="#FFC50D" fill-rule="evenodd"/><path d="M639.581 153.182C640.269 154.322 643.663 158.185 644.454 159.103 645.095 159.843 645.757 160.589 646.395 161.313 646.934 161.926 647.202 162.47 646.822 163.276 646.21 164.577 644.714 165.296 643.373 164.884 645.751 163.253 642.506 158.859 641.529 157.301 640.681 155.948 639.781 154.093 638 154.385 638.307 154.157 638.615 153.959 638.92 153.744 639.227 153.527 639.458 153.125 639.736 153 639.771 153.085 639.698 153.041 639.684 153.098 639.684 153.099 639.641 153.148 639.581 153.182Z" fill="#D39D07" fill-rule="evenodd"/><path d="M639.889 152.269C640.075 152.566 640.022 152.988 639.77 153.211L637.899 154.866C637.649 155.089 637.294 155.027 637.11 154.732L637.11 154.732C636.925 154.433 636.979 154.012 637.229 153.789L639.099 152.133C639.352 151.912 639.703 151.973 639.889 152.269L639.889 152.269Z" fill="#D39D07" fill-rule="evenodd"/><path d="M639.033 152.293C639.406 152.879 638.857 153.686 638.495 154.12 638.187 154.489 637.773 154.97 637.378 154.478 637.283 154.359 637.149 153.951 637.017 154.271 636.94 154.468 637.14 154.737 637.252 154.841 637.585 155.153 637.852 154.955 638.154 154.679 638.432 154.424 638.703 154.119 639.002 153.898 639.271 153.699 639.625 153.531 639.836 153.202 640.022 152.919 640.085 152.381 639.838 152.114 639.582 151.829 639.224 152.149 639.015 152.308L639.033 152.293Z" fill="#BC8804" fill-rule="evenodd"/><path d="M638.059 154.651C638.488 155.351 638.837 156.103 639.214 156.841 639.648 157.682 640.112 158.498 640.534 159.347 640.977 160.231 641.436 161.1 641.864 161.992 642.195 162.677 642.539 163.381 642.957 164 643.188 163.799 642.418 162.443 642.306 162.184 641.993 161.466 641.645 160.773 641.334 160.052 640.825 158.871 640.38 157.656 639.968 156.423 639.762 155.803 639.632 155.197 639.476 154.567 639.333 153.99 639.138 153.854 638.721 154.156 638.575 154.261 638.121 154.73 638 154.64L638.059 154.651Z" fill="#FFD876" fill-rule="evenodd"/><path d="M639.069 154.367C639.527 154.702 639.977 154.993 640.378 155.417 640.833 155.894 641.233 156.423 641.633 156.952 642.375 157.933 643.122 158.985 643.725 160.08 644.137 160.836 644.626 161.886 644.455 162.806 644.354 163.345 643.916 163.873 643.508 164.159 643.025 164.496 642.793 164.209 642.348 164.049 642.306 164.393 642.76 164.838 643.031 164.926 643.425 165.051 643.904 165.01 644.3 164.861 645.138 164.545 646.331 163.468 645.914 162.372 645.645 161.661 645.11 160.998 644.642 160.44 644.165 159.871 643.712 159.285 643.248 158.705 642.494 157.76 641.727 156.831 641.002 155.851 640.644 155.368 640.257 154.919 639.896 154.433 639.78 154.275 639.653 153.96 639.433 154.004 639.315 154.027 639.042 154.328 639 154.453L639.069 154.367Z" fill="#BC8804" fill-rule="evenodd"/><path d="M646.052 163.468C648.951 167.703 651.957 171.863 654.509 176.336 655.524 178.115 656.767 180.046 657.335 182.075 657.52 182.73 657.434 185.042 656.293 184.224 658.744 187.672 661.178 190.95 663.85 194.119 665.058 195.553 666.338 196.886 667.637 198.2 668.164 198.729 668.963 199.6 668.999 198.385 669.042 197.025 667.647 194.95 667.052 193.806 662.577 185.207 657.51 176.816 651.709 169.15 650.784 167.93 649.791 166.834 648.92 165.559 648.43 164.845 646.847 161.968 646 163.389L646.052 163.468Z" fill="#E8A754" fill-rule="evenodd" fill-opacity="0.4"/><path d="M647.382 163.314C650.299 167.531 653.605 172.108 656.252 176.731 657.306 178.568 658.64 180.449 659.315 182.502 659.762 183.86 659.314 184.542 658.365 185.378 659.065 187.127 660.724 188.897 661.957 190.252 663.505 191.957 664.805 193.933 666.31 195.689 666.77 196.229 667.833 197.93 668.587 197.997 669.753 198.097 668.103 195.605 667.866 195.165 666.079 191.832 664.308 188.475 662.441 185.204 661.096 182.845 659.761 180.494 658.22 178.267 657.023 176.53 655.718 174.834 654.601 173.036 652.777 170.095 650.833 166.926 648.498 164.443 648.065 163.982 647.318 163.56 647 163L647.382 163.314Z" fill="#E8A754" fill-rule="evenodd" fill-opacity="0.6"/><path d="M644.208 164.996C644.124 165.458 644.918 166.472 645.207 166.957 645.681 167.75 646.157 168.579 646.604 169.396 647.563 171.15 648.796 172.774 649.91 174.425 650.966 175.995 652.025 177.566 653.084 179.137 653.675 180.013 654.269 180.872 654.896 181.708 655.452 182.447 656.19 183.604 657 184 653.863 178.572 650.147 173.576 647.657 167.713 647.27 166.793 646.876 164.82 646.198 164.178 645.749 163.752 645.587 164.188 645.079 164.464 644.797 164.616 644.008 164.994 644 164.809L644.208 164.996Z" fill="#DD7812" fill-rule="evenodd" fill-opacity="0.6"/><path d="M636.744 154C636.343 153.598 635.401 153.928 634.83 153.673 633.735 153.178 632.773 151.784 632.625 150.591 632.438 149.102 633.381 147.915 632.762 146.388 632.336 145.335 631.615 144.882 631 144.074 631.501 143.831 631.987 144.239 632.411 144.518 633.212 145.041 633.805 145.116 634.712 145.325 636.432 145.719 638.318 147.775 638.823 149.504 639.149 150.618 639.053 152.037 638.291 152.907 637.847 153.413 636.881 154.427 636.317 153.644L636.744 154Z" fill="#D38D42" fill-rule="evenodd"/><path d="M636.899 154C636.323 153.464 635.282 153.848 634.576 153.511 633.511 153.005 633.117 151.969 633.075 150.779 633.536 151.894 634.246 153.379 635.623 152.963 635.577 152.507 635.293 152.057 635.13 151.622 634.841 150.846 634.898 150.101 634.74 149.293 634.507 148.096 633.977 146.696 633.396 145.824 634.313 147.202 634.759 148.663 635.086 150.312 635.211 150.94 635.364 151.878 635.847 152.316 636.51 152.917 636.31 152.225 636.22 151.64 635.954 149.872 635.778 148.373 634.78 146.892 634.253 146.113 633.28 145.06 632.423 144.756 632.986 145.329 633.843 145.568 634.443 146.167 635.199 146.926 635.724 147.926 636.025 148.994 636.198 149.609 636.405 153.272 637.39 152.236 638.586 150.981 636.69 147.751 635.767 146.91 635.151 146.348 634.383 145.976 633.741 145.442 633.155 144.957 632.679 144.35 632 144 632.501 144.52 633.366 144.695 633.993 145.008 634.819 145.424 635.622 146.057 636.222 146.808 636.764 147.486 637.324 148.332 637.685 149.14 637.92 149.673 638.003 150.35 638.334 150.807 639.016 150.047 637.583 147.852 637.132 147.182 638.354 148.667 639.444 149.838 638.818 151.946 638.521 152.944 637.675 154.39 636.486 153.881L636.899 154Z" fill="#D38D42" fill-rule="evenodd"/><path d="M631.308 143.561C632.388 144.935 634.004 145.667 635.096 147.061 635.912 148.104 636.933 150.247 635.678 151.408 634.888 152.138 634.217 151.351 633.653 150.723 633.177 150.193 632.625 150.084 632.69 151.081 632.791 152.64 634.319 153.347 635.446 153.487 635.716 153.521 636.044 153.505 636.307 153.59 636.537 153.662 636.761 153.951 636.981 153.988 637.684 154.105 638.411 153.362 638.724 152.694 639.683 150.641 637.948 147.002 636.472 145.644 635.666 144.904 634.536 144.623 633.54 144.403 632.953 144.275 632.577 144.059 632.126 143.629 631.903 143.413 630.969 142.514 631.001 143.348L631.308 143.561Z" fill="#D38D42" fill-rule="evenodd" fill-opacity="0.301961"/><path d="M648.076 165.05C649.292 166.122 650.613 168.654 651.606 170.232 652.866 172.235 654.42 174.026 655.843 175.88 657.906 178.567 659.647 181.429 661.406 184.389 662.691 186.546 663.796 188.752 664.866 191.034 665.271 191.901 665.604 192.801 665.867 193.75 666.014 194.279 666.739 195.901 666.991 194.336 667.111 193.582 666.028 192.044 665.696 191.382 665.202 190.388 664.679 189.412 664.079 188.477 662.942 186.708 661.871 184.873 660.761 183.091 659.655 181.317 658.786 179.396 657.537 177.707 656.404 176.171 655.244 174.669 654.163 173.1 653.104 171.564 652.092 169.994 650.97 168.491 650.311 167.61 649.098 164.994 648 165L648.076 165.05Z" fill="#DD7812" fill-rule="evenodd" fill-opacity="0.6"/><path d="M644.118 165.018C644.547 166.997 646.423 168.999 647.495 170.663 648.633 172.43 649.565 174.49 651 176 649.579 173.614 648.222 171.016 646.997 168.487 646.116 166.677 646.181 164.64 644 165.054L644.118 165.018Z" fill="#F4831E" fill-rule="evenodd"/></g></svg>