<svg width="66" height="58" xmlns="http://www.w3.org/2000/svg" xmlns:xlink="http://www.w3.org/1999/xlink" overflow="hidden"><defs><clipPath id="clip0"><rect x="510" y="265" width="66" height="58"/></clipPath></defs><g clip-path="url(#clip0)" transform="translate(-510 -265)"><path d="M570.812 284.155 566.421 284.127C567.209 283.537 567.729 282.542 567.735 281.41 567.746 279.586 566.415 278.097 564.766 278.087L551.075 278C549.426 277.99 548.081 279.459 548.072 281.284 548.066 282.416 548.577 283.418 549.358 284.018L545.343 283.992C543.016 283.977 541.118 286.052 541.105 288.626L541 308.634C540.987 311.208 542.862 313.306 545.189 313.321L546.491 313.329C547.123 313.85 548.14 314.316 549.436 314.699L548.759 314.694C547.857 314.688 547.121 315.397 547.117 316.277 547.113 317.157 547.84 317.875 548.742 317.881L567.058 318C567.96 318.005 568.695 317.296 568.699 316.416 568.703 315.536 567.976 314.817 567.074 314.813L566.397 314.808C567.698 314.442 568.719 313.989 569.356 313.477L570.658 313.485C572.985 313.499 574.883 311.427 574.896 308.852L575 288.845C575.014 286.268 573.139 284.17 570.812 284.155Z" fill="#73389E" fill-rule="evenodd"/><path d="M569 276.67C568.99 278.633 568.553 281.011 566.761 281L551.425 280.952C549.634 280.941 546.989 281.257 547 279.295L547.015 276.531C547.025 274.57 548.487 272.989 550.278 273L565.776 273.098C567.566 273.109 569.01 274.71 569 276.67L569 276.67Z" fill="#E88A11" fill-rule="evenodd"/><path d="M568 273.573C567.997 274.4 563.516 275.039 557.993 274.998 552.47 274.958 547.996 274.255 548 273.427 548.003 272.6 552.484 271.962 558.008 272.002 563.531 272.042 568.004 272.745 568 273.573Z" fill="#EA7A00" fill-rule="evenodd"/><path d="M564.242 282.181C563.774 283.552 563.114 284.484 563.093 286.057 563.063 288.228 562.608 289.974 561.839 291.989 560.189 296.309 558.074 300.664 554.817 303.812 552.598 305.957 549.676 307.287 546.735 307.575 545.093 307.735 542.041 307.662 541.195 305.704 540.643 307.019 541.363 309.697 542.114 310.772 543.317 312.497 545.153 312.375 546.755 313.308 548.51 314.33 550.411 314.519 552.434 314.646 554.93 314.802 557.402 314.984 559.908 314.999 563.731 315.023 568.019 314.692 571.229 312.287 573.563 310.538 573.986 306.403 574.355 303.627 574.681 301.172 574.575 298.728 574.7 296.241 574.84 293.414 575.771 288.494 573.435 286.429 571.423 284.652 568.696 285.193 566.217 285.04 566.177 284.197 567.547 283.146 566.778 282.322 566.341 281.855 564.57 281.946 564.149 282.279L564.242 282.181Z" fill="#D10D03" fill-rule="evenodd" fill-opacity="0.4"/><path d="M565.956 282C565.65 283.077 565 284.408 565.413 285.55 565.625 286.139 566.192 286.589 566.498 287.122 566.948 287.91 567.189 288.726 567.372 289.641 568.357 294.582 566.98 299.62 565.097 304.031 562.974 309.005 557.741 312.86 553 313.82 553.751 314.639 555.694 314.604 556.706 314.771 557.953 314.976 559.23 314.991 560.502 315 562.727 315.014 564.664 314.598 566.795 314.095 567.496 313.929 568.237 313.699 568.977 313.697 569.743 313.694 570.383 314.011 571.155 313.921 572.836 313.721 573.711 311.669 573.811 309.867 574.128 304.218 573.94 298.486 573.985 292.815 574 290.965 573.966 288.241 573.135 286.623 572.238 284.873 570.683 284.853 569.121 284.843 568.457 284.838 566.397 285.175 566.214 284.299 566.117 283.841 566.778 283.324 566.775 282.84 566.767 281.932 565.824 281.795 565.772 282.729L565.956 282Z" fill="#D10D03" fill-rule="evenodd" fill-opacity="0.4"/><path d="M550.661 281.319C550.928 282.513 551.35 282.677 550.46 283.786 549.648 284.796 548.663 285.821 548.071 287.033 546.411 290.428 546.337 294.815 547.161 298.468 547.627 300.531 548.307 302.604 549.32 304.42 550.426 306.401 551.949 307.607 553.648 308.917 554.94 309.915 556.481 310.836 557.975 311.365 558.693 311.62 560.73 311.584 561 312.42 560.492 312.413 560.039 312.668 559.54 312.739 558.665 312.865 557.721 312.689 556.839 312.72 555.336 312.773 553.889 313.01 552.364 313 550.102 312.985 548.007 312.372 545.797 312.237 543.973 312.125 542.857 311.487 542.47 309.339 541.95 306.448 542.247 303.242 542.263 300.264 542.278 297.291 542.367 294.296 542.125 291.365 541.978 289.578 541.748 287.204 542.866 285.771 544.097 284.196 545.824 284.564 547.509 284.485 548.127 284.457 549.131 284.421 549.428 283.651 549.82 282.638 548.751 282.49 548.605 281.635 548.571 281.438 548.505 281.246 548.555 281.012 549.372 280.97 550.028 281.025 550.735 281.438 550.742 281.512 550.724 281.881 550.75 281.73L550.661 281.319Z" fill="#D10D03" fill-rule="evenodd" fill-opacity="0.4"/><path d="M562.969 314.684C563.217 316.763 557.853 316.867 557 317.844 559.4 317.817 561.803 317.872 564.202 317.888 565.146 317.894 566.962 318.303 567.622 317.518 568.991 315.889 566.194 316.297 566.284 315.342 567.504 314.925 568.505 313.602 566.613 314.117 565.42 314.441 563.981 314.22 562.878 314.682L562.969 314.684Z" fill="#D10D03" fill-rule="evenodd" fill-opacity="0.4"/><path d="M544.752 285.239C543.131 285.444 542.707 287.438 542.427 289.093 542.049 291.309 541.69 294.936 542.433 297 542.442 295.012 542.848 292.668 543.423 290.82 543.985 289.018 544.815 288.366 546.026 287.344 546.712 286.767 547.597 285.793 546.438 285.152 545.711 284.749 544.918 285.254 544.269 285.435L544.752 285.239Z" fill="#8B27E2" fill-rule="evenodd"/><path d="M566.206 282C566.112 283.236 565.592 284.545 566.685 285.071 567.832 285.624 568.82 285.344 569.852 286.499 572.036 288.942 572.965 293.692 572.827 297 572.84 293.925 573.834 287.008 570.908 285.452 569.898 284.916 568.723 284.92 567.652 284.765 565.776 284.493 567.343 282.956 566.292 282.096 566.039 282.257 566.177 282.358 566.204 282.53L566.206 282Z" fill="#8B27E2" fill-rule="evenodd"/><path d="M568.941 304.281C568.928 306.902 567.089 309.014 564.833 309L550.061 308.9C547.806 308.884 545.987 306.749 546 304.126L546.058 292.719C546.07 290.098 547.909 287.985 550.166 288L564.939 288.099C567.194 288.115 569.013 290.252 569 292.874L568.941 304.281Z" fill="#FFD45A" fill-rule="evenodd"/><path d="M561.833 289.241C561.727 294.538 558.697 300.447 554.446 303.022 553.071 303.856 551.549 304.588 549.947 304.491 548.786 304.42 548.033 303.933 547.014 303.584 546.692 309.101 551.924 307.929 555.34 307.83 557.316 307.772 559.248 307.657 561.206 307.667 562.781 307.675 564.585 308.205 566.136 307.875 569.978 307.063 568.836 299.436 568.856 296.325 568.866 294.714 569.147 292.149 568.243 290.781 567.443 289.571 565.739 289.147 564.494 289.057 563.848 289.01 561.877 288.868 561.742 289.34L561.833 289.241Z" fill="#E88A11" fill-rule="evenodd" fill-opacity="0.2"/><path d="M553 289.027C552.016 289.087 550.914 290.931 550.4 291.72 549.569 292.997 549.083 294.528 548.629 295.976 547.949 298.138 547.441 300.753 547.373 303 546.837 301.651 547.168 299.266 547.109 297.78 547.039 296.004 546.943 294.173 547.043 292.378 547.211 289.385 550.642 288.867 552.808 289.025L553 289.027Z" fill="#FFDE8C" fill-rule="evenodd"/><path d="M564.693 289.253C565.98 296.26 561.029 305.57 555 307.761 556.247 308.128 557.823 307.808 559.136 307.867 560.438 307.924 561.732 307.986 563.049 307.997 563.963 308.005 565.161 308.033 565.987 307.576 567.049 306.99 567.27 305.432 567.486 304.232 568.043 301.132 567.981 297.814 567.997 294.643 568.007 292.749 568.092 289.591 565.99 289.051 565.559 288.94 564.848 288.998 564.691 289.358L564.693 289.253Z" fill="#E88A11" fill-rule="evenodd" fill-opacity="0.2"/><path d="M565.11 273.102C565.485 272.999 566.301 273.142 566.579 273.385 567.112 273.849 565.981 274.008 565.545 274.084 563.62 274.414 561.75 274.336 559.805 274.323 558.281 274.313 556.76 274.214 555.235 274.144 553.859 274.081 552.409 274.147 551.047 273.957 550.59 273.893 549.209 273.508 550.208 273.109 549.709 273.056 548.155 273.067 548.009 273.65 547.77 274.595 552.569 274.744 553.246 274.808 556.991 275.165 560.817 274.936 564.551 274.82 565.132 274.802 568.313 274.733 567.975 273.765 567.653 272.837 565.704 273.246 565.042 273L565.11 273.102Z" fill="#FF8000" fill-rule="evenodd"/><path d="M568.276 274C567.855 274.912 566.09 274.861 565.296 274.965 565.916 275.792 563.52 277.087 563.088 277.374 561.579 278.377 560.011 278.977 558.298 279.386 555.638 280.02 552.719 280.44 550 280.362 550.399 280.306 550.93 280.568 551.338 280.644 552.108 280.789 552.9 280.887 553.682 280.917 554.937 280.968 556.202 280.992 557.459 280.999 559.69 281.009 561.922 280.912 564.146 280.916 565.379 280.919 567.104 280.899 568.03 279.847 568.684 279.104 568.981 277.97 569 276.96 569.012 276.247 568.767 274.525 568.252 274.034 568.252 274.144 568.327 274.11 568.348 274.139L568.276 274Z" fill="#E88A11" fill-rule="evenodd" fill-opacity="0.4"/><path d="M551.111 274.65C550.552 274.915 550.247 275.819 550.219 276.486 550.166 277.753 551.184 278.59 552.013 279.161 553.462 280.157 555.368 280.322 557 280.512 555.114 280.492 553.234 280.967 551.346 280.98 550.343 280.987 549.215 281.105 548.261 280.672 547.606 280.376 547.063 279.611 547.017 278.763 546.963 277.795 547.036 276.389 547.258 275.457 547.424 274.759 547.897 274.102 548.529 274.019 549.234 273.925 550.504 274.188 551.139 274.559 551.189 274.599 551.077 274.467 551.083 274.479L551.111 274.65Z" fill="#E88A11" fill-rule="evenodd" fill-opacity="0.4"/><path d="M567.767 275C568.124 275.44 567.72 276.27 567.475 276.681 566.966 277.537 566.102 278.216 565.276 278.794 564.436 279.382 563.47 279.88 562.452 280.134 561.679 280.327 560.705 280.43 560 280.759 560.918 281.015 562.122 280.863 563.107 280.946 564 281.02 564.912 281.031 565.797 280.893 566.964 280.708 567.992 280.195 568.504 279.181 568.859 278.478 569.091 277.445 568.966 276.654 568.915 276.328 568.331 274.699 567.826 275.086 567.851 275.204 567.91 275.137 567.978 275.162L567.767 275Z" fill="#BC6200" fill-rule="evenodd" fill-opacity="0.4"/><path d="M567.713 274.654C566.88 274.584 565.82 275.096 564.975 275.218 563.972 275.364 562.949 275.384 561.943 275.434 560.424 275.508 558.906 275.508 557.387 275.47 554.889 275.409 552.185 275.39 549.762 274.813 549.259 274.693 548.419 274.536 548.208 274 548.064 274.367 547.78 274.504 547.531 274.771 547.129 275.202 547.167 275.829 547 276.361 547.607 275.984 548.115 275.324 548.933 275.566 549.525 275.742 550.025 276.1 550.653 276.233 551.486 276.41 552.347 276.4 553.192 276.458 554.598 276.554 556.025 276.495 557.433 276.427 558.173 276.392 558.893 276.258 559.633 276.314 559.881 276.334 560.343 276.296 560.554 276.45 560.669 276.535 560.716 276.694 560.775 276.743 560.992 276.923 561.115 277.031 561.543 276.992 562.038 276.947 562.45 276.712 562.877 276.477 563.849 275.94 564.682 276.25 565.739 276.21 566.745 276.171 568.07 275.784 567.997 274.601L567.713 274.654Z" fill="#BC6200" fill-rule="evenodd" fill-opacity="0.4"/><path d="M542.31 318.509C542.759 317.289 545.073 317.428 546.04 317.529 547.326 317.664 548.618 317.037 549.673 316.062 552.307 313.624 553.169 308.885 554.05 305.273 555.086 301.031 555.679 296.75 556.412 292.442 556.734 290.55 557.557 286.816 556.412 285.177 555.679 284.127 554.643 283.944 553.609 283.502 552.525 283.037 552.127 282.586 551.46 281.624 550.246 279.871 548.354 279.743 546.561 280.279 545.11 280.711 543.323 280.991 542.105 282.237 540.449 283.931 540.073 287.056 539.925 289.462 539.583 295.022 538.621 300.494 538.08 306.021 537.684 310.057 538.718 316.783 542.207 319L542.31 318.509Z" fill="#AAB7C1" fill-rule="evenodd" fill-opacity="0.4"/><path d="M546.825 280.695 541.402 280.659C542.376 279.921 543.019 278.678 543.026 277.263 543.037 274.982 541.395 273.123 539.359 273.11L522.446 273C520.408 272.987 518.747 274.826 518.735 277.105 518.728 278.521 519.359 279.773 520.324 280.523L515.363 280.49C512.489 280.472 510.145 283.065 510.129 286.283L510 311.292C509.983 314.509 512.301 317.133 515.174 317.152L516.783 317.162C517.565 317.81 518.821 318.394 520.421 318.873L519.584 318.868C518.47 318.86 517.562 319.747 517.556 320.847 517.55 321.948 518.449 322.845 519.563 322.853L542.187 323C543.301 323.007 544.209 322.121 544.215 321.021 544.22 319.92 543.321 319.022 542.209 319.016L541.372 319.01C542.978 318.551 544.241 317.985 545.027 317.347L546.637 317.357C549.51 317.376 551.855 314.782 551.871 311.564L552 286.555C552.018 283.338 549.7 280.714 546.825 280.695Z" fill="#D14A43" fill-rule="evenodd"/><path d="M545 271.589C544.987 274.042 544.43 277.015 542.15 277L522.632 276.942C520.352 276.929 516.987 277.322 517 274.87L517.019 271.415C517.032 268.963 518.892 266.986 521.171 267L540.896 267.123C543.175 267.139 545.013 269.139 545 271.589L545 271.589Z" fill="#E8A754" fill-rule="evenodd"/><path d="M543 267.573C542.996 268.401 537.62 269.038 530.992 268.998 524.365 268.959 518.995 268.254 519 267.427 519.005 266.599 524.381 265.962 531.009 266.002 537.638 266.042 543.005 266.746 543 267.573Z" fill="#EA810F" fill-rule="evenodd"/><path d="M538.712 277.221C538.134 278.925 537.32 280.084 537.292 282.037 537.255 284.735 536.694 286.903 535.743 289.407 533.705 294.775 531.092 300.186 527.07 304.096 524.329 306.762 520.72 308.416 517.086 308.773 515.057 308.972 511.286 308.882 510.241 306.448 509.559 308.082 510.448 311.409 511.376 312.746 512.863 314.889 515.131 314.738 517.109 315.896 519.277 317.167 521.626 317.4 524.124 317.558 527.207 317.754 530.261 317.979 533.355 317.999 538.079 318.029 543.374 317.618 547.342 314.629 550.224 312.458 550.746 307.32 551.203 303.87 551.606 300.819 551.476 297.783 551.629 294.693 551.803 291.182 552.951 285.068 550.066 282.503 547.581 280.294 544.213 280.967 541.149 280.778 541.1 279.729 542.792 278.424 541.843 277.4 541.304 276.819 539.115 276.932 538.594 277.348L538.712 277.221Z" fill="#D14A43" fill-rule="evenodd" fill-opacity="0.4"/><path d="M541.042 278C540.662 279.305 539.857 280.919 540.367 282.304 540.632 283.018 541.335 283.563 541.712 284.21 542.269 285.164 542.568 286.152 542.794 287.263 544.012 293.253 542.31 299.359 539.978 304.705 537.349 310.733 530.87 315.406 525 316.569 525.93 317.56 528.336 317.52 529.589 317.721 531.134 317.972 532.715 317.99 534.288 318 537.043 318.017 539.441 317.514 542.079 316.903 542.948 316.701 543.865 316.423 544.781 316.42 545.73 316.417 546.521 316.802 547.478 316.691 549.56 316.451 550.642 313.961 550.767 311.778 551.158 304.932 550.926 297.984 550.982 291.11 551.001 288.867 550.958 285.566 549.929 283.604 548.819 281.483 546.894 281.459 544.96 281.447 544.138 281.442 541.589 281.85 541.361 280.79 541.242 280.236 542.06 279.608 542.056 279.021 542.046 277.921 540.879 277.754 540.814 278.887L541.042 278Z" fill="#D14A43" fill-rule="evenodd" fill-opacity="0.4"/><path d="M521.939 277.397C522.276 278.891 522.81 279.095 521.685 280.481 520.659 281.744 519.415 283.025 518.666 284.54 516.569 288.785 516.476 294.269 517.517 298.834 518.105 301.414 518.965 304.006 520.245 306.275 521.642 308.753 523.566 310.259 525.713 311.897 527.346 313.144 529.291 314.296 531.178 314.957 532.085 315.275 534.658 315.231 535 316.275 534.358 316.267 533.787 316.585 533.155 316.675 532.05 316.831 530.857 316.611 529.743 316.65 527.844 316.718 526.018 317.013 524.09 317 521.233 316.981 518.587 316.216 515.796 316.047 513.491 315.907 512.081 315.109 511.593 312.425 510.936 308.812 511.312 304.803 511.332 301.08 511.351 297.364 511.464 293.621 511.158 289.958 510.972 287.722 510.682 284.754 512.095 282.965 513.649 280.997 515.831 281.456 517.959 281.357 518.741 281.321 520.008 281.277 520.385 280.316 520.878 279.05 519.53 278.864 519.344 277.795 519.301 277.55 519.219 277.309 519.281 277.014 520.314 276.963 521.142 277.032 522.036 277.549 522.044 277.642 522.023 278.101 522.054 277.913L521.939 277.397Z" fill="#D14A43" fill-rule="evenodd" fill-opacity="0.4"/><path d="M537.137 317.853C537.475 320.454 530.161 320.584 529 321.806 532.272 321.771 535.549 321.839 538.822 321.86 540.106 321.867 542.585 322.379 543.484 321.398 545.352 319.361 541.537 319.872 541.662 318.677 543.323 318.157 544.689 316.503 542.109 317.146 540.482 317.553 538.52 317.274 537.017 317.853L537.137 317.853Z" fill="#D14A43" fill-rule="evenodd" fill-opacity="0.4"/><path d="M514.853 281.317C512.584 281.59 511.99 284.25 511.597 286.457 511.07 289.412 510.567 294.248 511.604 297 511.618 294.349 512.185 291.224 512.991 288.76 513.778 286.356 514.94 285.488 516.637 284.126 517.596 283.356 518.837 282.057 517.213 281.202 516.195 280.666 515.085 281.339 514.177 281.58L514.853 281.317Z" fill="#EF6865" fill-rule="evenodd"/><path d="M541.265 278C541.143 279.482 540.475 281.054 541.881 281.687 543.356 282.349 544.627 282.014 545.952 283.397 548.76 286.33 549.956 292.03 549.777 296 549.795 292.309 551.073 284.009 547.31 282.142 546.012 281.499 544.501 281.503 543.124 281.317 540.712 280.991 542.727 279.147 541.376 278.116 541.05 278.308 541.229 278.429 541.263 278.635L541.265 278Z" fill="#EF6865" fill-rule="evenodd"/><path d="M544.928 305.382C544.912 308.502 542.592 311.018 539.748 311L521.122 310.881C518.277 310.863 515.984 308.319 516 305.198L516.072 291.618C516.088 288.497 518.408 285.981 521.253 286L539.879 286.118C542.724 286.137 545.017 288.681 545 291.802L544.928 305.382Z" fill="#FFE18D" fill-rule="evenodd"/><path d="M535.88 286.304C535.748 292.996 531.889 300.458 526.479 303.712 524.728 304.764 522.79 305.689 520.751 305.566 519.273 305.477 518.314 304.863 517.018 304.421 516.606 311.391 523.267 309.91 527.617 309.785 530.13 309.713 532.588 309.566 535.08 309.577 537.085 309.587 539.381 310.257 541.355 309.842 546.245 308.816 544.792 299.181 544.816 295.251 544.828 293.217 545.188 289.977 544.037 288.249 543.019 286.72 540.851 286.186 539.265 286.072 538.444 286.013 535.934 285.833 535.763 286.43L535.88 286.304Z" fill="#E8A754" fill-rule="evenodd" fill-opacity="0.2"/><path d="M525 286.035C523.851 286.112 522.565 288.481 521.965 289.497 520.996 291.137 520.428 293.105 519.899 294.967 519.108 297.749 518.513 301.111 518.435 304 517.808 302.266 518.196 299.199 518.128 297.289 518.046 295.006 517.933 292.653 518.051 290.342 518.246 286.495 522.251 285.829 524.776 286.033L525 286.035Z" fill="#FFE8B0" fill-rule="evenodd"/><path d="M539.929 287.307C541.513 295.79 535.419 307.059 528 309.71 529.535 310.155 531.474 309.768 533.09 309.839 534.692 309.909 536.285 309.984 537.905 309.996 539.028 310.005 540.505 310.04 541.522 309.488 542.829 308.777 543.1 306.893 543.366 305.438 544.052 301.686 543.975 297.668 543.996 293.831 544.008 291.538 544.113 287.715 541.526 287.06 540.995 286.927 540.121 286.999 539.929 287.434L539.929 287.307Z" fill="#E8A754" fill-rule="evenodd" fill-opacity="0.2"/><path d="M540.387 266.204C540.855 265.999 541.875 266.287 542.223 266.77 542.89 267.697 541.476 268.017 540.932 268.168 538.524 268.826 536.187 268.672 533.756 268.645 531.851 268.624 529.948 268.426 528.044 268.287 526.324 268.16 524.513 268.293 522.81 267.912 522.238 267.785 520.512 267.013 521.76 266.219 521.135 266.112 519.194 266.135 519.011 267.3 518.714 269.192 524.71 269.488 525.557 269.617 530.238 270.33 535.02 269.872 539.689 269.64 540.415 269.605 544.39 269.465 543.969 267.531 543.566 265.676 541.129 266.491 540.303 266L540.387 266.204Z" fill="#FF9831" fill-rule="evenodd"/><path d="M543.164 268C542.676 269.172 540.633 269.106 539.714 269.241 540.431 270.304 537.655 271.968 537.154 272.339 535.408 273.629 533.592 274.398 531.607 274.925 528.528 275.74 525.148 276.28 522 276.181 522.462 276.108 523.075 276.445 523.549 276.544 524.441 276.731 525.358 276.854 526.264 276.895 527.717 276.958 529.181 276.991 530.636 276.999 533.22 277.012 535.805 276.887 538.38 276.894 539.807 276.897 541.805 276.872 542.877 275.52 543.635 274.564 543.979 273.107 544 271.807 544.014 270.89 543.732 268.677 543.133 268.045 543.135 268.187 543.221 268.143 543.245 268.18L543.164 268Z" fill="#E8A754" fill-rule="evenodd" fill-opacity="0.4"/><path d="M522.933 269.743C522.261 270.047 521.896 271.078 521.862 271.841 521.799 273.29 523.02 274.247 524.015 274.897 525.753 276.037 528.042 276.223 530 276.441 527.735 276.42 525.48 276.961 523.214 276.977 522.012 276.986 520.658 277.12 519.513 276.626 518.728 276.288 518.075 275.415 518.02 274.445 517.956 273.337 518.043 271.732 518.309 270.666 518.509 269.869 519.076 269.12 519.834 269.022 520.68 268.914 522.205 269.216 522.966 269.639 523.027 269.686 522.893 269.534 522.9 269.548L522.933 269.743Z" fill="#E8A754" fill-rule="evenodd" fill-opacity="0.4"/><path d="M542.631 269C543.029 269.587 542.579 270.693 542.307 271.242 541.741 272.383 540.78 273.288 539.862 274.058 538.93 274.841 537.856 275.506 536.724 275.843 535.865 276.102 534.783 276.24 534 276.677 535.02 277.021 536.357 276.817 537.452 276.928 538.445 277.028 539.458 277.042 540.44 276.855 541.737 276.61 542.88 275.925 543.449 274.574 543.843 273.637 544.101 272.26 543.962 271.206 543.905 270.771 543.256 268.598 542.696 269.115 542.724 269.273 542.789 269.182 542.866 269.216L542.631 269Z" fill="#BC6506" fill-rule="evenodd" fill-opacity="0.4"/><path d="M542.641 268.873C541.609 268.779 540.296 269.462 539.252 269.626 538.01 269.82 536.743 269.848 535.497 269.913 533.618 270.013 531.738 270.013 529.858 269.962 526.765 269.88 523.417 269.855 520.418 269.085 519.796 268.924 518.755 268.717 518.495 268 518.316 268.49 517.965 268.672 517.657 269.028 517.159 269.602 517.206 270.438 517 271.148 517.751 270.646 518.38 269.766 519.392 270.089 520.126 270.323 520.745 270.8 521.522 270.979 522.554 271.215 523.619 271.2 524.665 271.277 526.406 271.407 528.173 271.328 529.916 271.237 530.833 271.189 531.724 271.011 532.64 271.086 532.947 271.11 533.519 271.059 533.781 271.267 533.922 271.379 533.981 271.592 534.055 271.658 534.323 271.899 534.475 272.041 535.005 271.99 535.617 271.929 536.129 271.616 536.656 271.302 537.859 270.587 538.89 271 540.2 270.946 541.445 270.895 543.084 270.379 542.997 268.801L542.641 268.873Z" fill="#BC6506" fill-rule="evenodd" fill-opacity="0.4"/></g></svg>