<svg width="74" height="97" xmlns="http://www.w3.org/2000/svg" xmlns:xlink="http://www.w3.org/1999/xlink" overflow="hidden"><g transform="translate(-397 -350)"><path d="M452.364 366.81C450.597 362.994 445.337 361.441 441.386 362.689 442.06 360.058 441.912 358.233 438.909 357.187 438.606 357.082 438.271 356.991 437.92 356.917 435.629 353.388 431.249 351 426.219 351 419.05 351 413.196 355.845 412.839 361.939 407.738 361.18 401.869 365.196 398.942 368.781 393.507 375.439 400.425 382.173 408.055 381.454 405.843 383.159 408.361 386.282 409.947 387.445 412.982 389.669 417.857 390.485 421.578 389.72 422.76 389.477 424.092 387.872 425.091 387.825 426.044 387.78 427.007 388.935 428.099 389.177 431.332 389.892 434.139 388.405 436.427 386.621 436.906 388.343 439.723 388.028 440.906 387.208 442.249 386.278 442.666 384.486 443.021 383.078 445.676 383.031 447.462 382.469 449.062 380.285 450.238 378.681 450.987 376.896 449.328 375.389 453.391 375.257 453.535 369.341 452.364 366.81Z" fill="#F79200" fill-rule="evenodd"/><path d="M442.427 414C443.08 417.348 447.16 420.552 444.679 423.515 447.126 423.579 446.203 423.562 447.004 425.324 447.47 426.349 447.816 427.498 449.195 427.88 451.363 428.484 453.057 426.358 454.781 425.553 456.288 429.398 449.684 441.677 445.171 438.472 443.733 437.451 442.912 434.444 442.184 432.935 441.447 431.409 440.744 429.913 440.29 428.269 439.613 425.809 440.381 423.415 440.036 421.358L442.427 414Z" fill="#067982" fill-rule="evenodd"/><path d="M436 412.007C436.001 414.212 431.988 415.998 427.037 416 422.089 415.998 417.344 414.131 418.075 412.011 418.766 410.007 422.03 410.006 426.98 410.005 431.929 410.005 435.999 409.805 436 412.007Z" fill="#D8A47D" fill-rule="evenodd"/><path d="M421 402 432 402 432 414 421 414Z" fill="#D8A47D" fill-rule="evenodd"/><path d="M435.48 396.028C435.098 395.862 435.427 395.718 434.958 396.223 434.949 390.644 432.616 385.851 426.314 386.004 420.498 386.146 418.102 390.619 418.081 396.161 417.667 395.686 417.977 395.833 417.608 395.96 416.946 396.191 416.802 397.501 417.288 398.888 417.775 400.274 418.708 401.21 419.37 400.98 419.413 400.965 419.452 400.947 419.489 400.924 420.734 405.189 423.624 409.003 426.791 409 429.949 409 432.487 405.208 433.561 400.955 434.198 401.013 435.064 400.189 435.593 398.967 436.177 397.621 436.127 396.301 435.48 396.028Z" fill="#EFD0B4" fill-rule="evenodd"/><path d="M442.992 415.244C443.285 412.375 435.189 411 435.189 411 435.03 411.5 435.237 411.263 434.68 411.713 430.538 415.057 424.097 415.061 419.941 411.747 419.408 411.326 419.466 411.566 419.299 411.101 419.299 411.101 410.8 412.267 411.015 415.184 410.922 415.273 411.285 416.366 411.321 416.43L416.87 428 437.363 427.952 442.309 416.993C442.444 416.491 442.991 415.475 442.991 415.475 442.992 415.456 442.99 415.437 442.986 415.415 442.988 415.357 442.985 415.301 442.992 415.244Z" fill="#067982" fill-rule="evenodd"/><path d="M424 381.998C424.225 382.1 424.884 382.454 425.144 382.346 425.394 382.241 425.276 381.796 425.291 381.539 425.369 380.077 426.449 378.116 428.262 378 428.124 378.459 427.639 378.836 427.527 379.377 427.414 379.916 427.397 380.491 427.683 380.979 428.28 381.994 429.413 382.641 428.845 383.936 428.136 385.563 426.1 385.131 425.216 383.934 424.88 383.477 424.038 382.71 424.136 382.125L424 381.998Z" fill="#725846" fill-rule="evenodd"/><path d="M438.073 392.469C437.907 392.356 437.276 392.19 437.221 392.016 437.091 391.612 438.04 391.505 438.331 391.402 439.931 390.834 438.311 389.678 437.128 389.639 437.285 389.287 437.835 388.987 438.101 388.645 438.559 388.06 438.854 387.323 438.915 386.615 438.976 385.892 438.916 384.933 438.597 384.253 438.191 384.403 438.149 384.91 438.011 385.241 437.721 385.945 437.361 386.493 436.621 386.927 435.933 387.331 434.578 387.511 435.39 386.532 436.01 385.79 436.418 385.805 435.122 385.684 434.13 385.59 434.759 385.321 435.141 384.795 436.334 383.15 433.446 384.238 433.118 383.921 432.869 383.68 433.081 382.841 433.072 382.552 433.049 381.941 432.837 381.416 432.519 380.869 432.262 380.425 431.431 379.013 430.767 379.002 430.705 379.894 430.73 380.563 430.125 381.345 429.846 381.702 429.608 381.958 429.396 382.091 428.737 381.953 428.795 380.878 428.795 380.44 428.795 379.62 428.723 378.694 429.118 377.938 429.416 377.374 430.151 376.957 429.026 377.004 427.459 377.072 425.708 377.734 424.631 378.713 423.789 379.479 423.676 380.14 423.726 381.099 423.263 380.83 422.746 380.335 422.532 379.815 422.531 379.813 422.532 379.813 422.531 379.812 422.56 379.786 422.417 379.646 422.453 379.63L422.515 379.452C422.512 379.375 422.509 379.294 422.506 379.212 421.842 379.212 420.98 380.61 420.711 381.047 420.38 381.588 420.156 382.112 420.119 382.722 420.102 383.011 420.296 383.855 420.04 384.09 419.703 384.401 416.843 383.265 417.999 384.931 418.368 385.463 418.991 385.741 417.997 385.818 416.698 385.917 417.106 385.91 417.707 386.663 418.499 387.654 417.146 387.451 416.468 387.034 415.738 386.587 415.391 386.034 415.116 385.325 414.988 384.993 414.958 384.483 414.553 384.327 414.218 385.002 414.137 385.96 414.183 386.685 414.227 387.392 414.504 388.135 414.948 388.727 415.207 389.072 415.749 389.383 415.9 389.737 414.714 389.753 413.068 390.884 414.655 391.48 414.944 391.588 415.89 391.71 415.752 392.113 415.693 392.286 415.056 392.441 414.889 392.551 414.604 392.738 414.167 393.13 414.102 393.457 413.991 394.011 414.244 393.87 414.822 393.921 415.444 393.976 415.962 394.151 416.386 394.543 416.759 394.888 417.171 395.343 417.499 395.774 417.732 396.243 418.031 396.712 418.249 397.163 418.519 397.726 418.707 398.311 418.903 398.893 419.089 399.44 419.245 400.072 419.585 400.559 419.903 401.014 420.395 401.265 420.418 400.563 420.484 398.577 419.073 396.75 419.543 394.67 419.773 393.655 420.571 393.031 421.569 392.694 421.993 392.578 422.46 392.485 423.003 392.454 423.185 392.442 423.354 392.426 423.517 392.409 424.745 392.468 425.588 393.071 426.219 394.059 426.891 392.975 428.709 392.501 430.028 392.616 431.762 392.764 432.852 394.028 433.294 395.393 433.725 396.723 433.166 398.1 432.893 399.414 432.838 399.681 432.484 401.041 433.088 400.433 433.601 399.915 433.928 398.867 434.232 398.232 434.595 397.471 434.934 396.712 435.166 395.94 435.524 395.436 436.06 394.852 436.529 394.434 436.96 394.049 437.483 393.883 438.107 393.838 438.685 393.797 438.937 393.942 438.838 393.386 438.78 393.06 438.353 392.661 438.073 392.469Z" fill="#725846" fill-rule="evenodd"/><path d="M420.088 397.059C419.866 397.205 420.125 397.874 420.223 398.066 420.408 398.432 420.627 398.745 420.902 399.047 421.151 399.323 421.45 399.525 421.768 399.7 422.054 399.857 422.329 399.872 422.642 399.933 423.249 400.054 424.18 400.069 424.567 399.478 424.871 399.012 425.142 398.205 424.917 397.664 424.736 397.222 424.475 397.263 424.056 397.223 423.527 397.169 422.994 397.213 422.462 397.208 421.979 397.203 421.476 397.159 421.006 397.083 420.672 397.03 420.321 396.926 420.007 397.083 419.989 397.127 420.01 397.144 420.023 397.165L420.088 397.059Z" fill="#B5E2DF" fill-rule="evenodd"/><path d="M425.519 396.551C424.717 396.387 423.726 396.48 422.919 396.473 422.123 396.468 421.427 396.33 420.676 396.189 420.176 396.097 418.837 395.593 419.016 396.744 419.101 396.793 419.104 396.723 419.144 396.703 419.229 398.695 421.178 400.631 422.688 400.912 424.251 401.203 425.474 400.829 425.817 398.933 425.945 398.231 426.276 396.706 425.519 396.551ZM424.921 398.791C424.672 400.04 423.778 400.287 422.635 400.093 421.533 399.905 420.283 398.926 419.936 397.387 419.907 397.399 420.01 397.376 419.947 397.345 419.816 396.587 420.795 396.918 421.162 396.979 421.712 397.073 422.219 397.164 422.8 397.169 423.391 397.172 424.114 397.113 424.701 397.221 425.254 397.322 425.014 398.328 424.921 398.791Z" fill="#7C0505" fill-rule="evenodd"/><path d="M423 398.031C423.331 398.204 423.548 398.579 423.606 398.91 423.666 399.231 423.544 399.421 423.43 399.706 423.229 400.208 424.339 399.958 424.577 399.755 424.916 399.465 425.016 398.976 424.998 398.578 424.981 398.208 424.677 398.082 424.278 398.079 424.066 398.078 423.085 397.962 423.042 398.013L423 398.031Z" fill="#B5E2DF" fill-rule="evenodd" fill-opacity="0.4"/><path d="M420.039 397.078C419.888 397.376 420.217 397.92 420.357 398.181 420.564 398.565 420.838 398.95 421.255 398.997 421.802 399.058 422.127 398.097 421.953 397.556 421.815 397.139 421.416 397.031 421.083 397.024 420.82 397.02 420.16 396.915 420.005 397.177 420.036 397.258 420.014 397.151 420.036 397.143L420.039 397.078Z" fill="#FFFFFF" fill-rule="evenodd" fill-opacity="0.4"/><path d="M433.916 397.065C434.131 397.218 433.858 397.894 433.756 398.087 433.563 398.456 433.336 398.77 433.056 399.074 432.803 399.35 432.5 399.549 432.178 399.72 431.891 399.877 431.616 399.886 431.303 399.943 430.696 400.055 429.768 400.055 429.399 399.447 429.108 398.969 428.858 398.144 429.093 397.597 429.285 397.151 429.542 397.198 429.961 397.162 430.488 397.118 431.019 397.171 431.549 397.176 432.029 397.18 432.529 397.144 433 397.074 433.333 397.024 433.686 396.928 433.995 397.091 434.01 397.137 433.989 397.151 433.975 397.174L433.916 397.065Z" fill="#B5E2DF" fill-rule="evenodd"/><path d="M428.152 399.285C428.455 400.831 429.667 401.153 431.231 400.942 432.742 400.737 434.728 399.194 434.854 397.577 434.893 397.594 434.894 397.651 434.979 397.615 435.182 396.681 433.839 397.071 433.336 397.136 432.582 397.238 431.888 397.34 431.094 397.332 430.289 397.324 429.304 397.235 428.5 397.354 427.743 397.468 428.04 398.713 428.152 399.285ZM429.301 397.912C429.888 397.832 430.609 397.892 431.198 397.898 431.778 397.904 432.284 397.837 432.837 397.772 433.202 397.726 434.186 397.473 434.039 398.086 433.976 398.11 434.078 398.132 434.049 398.121 433.672 399.366 432.406 400.144 431.303 400.278 430.158 400.416 429.272 400.204 429.048 399.184 428.966 398.807 428.748 397.986 429.301 397.912Z" fill="#7C0505" fill-rule="evenodd"/><path d="M431 398.033C430.667 398.202 430.444 398.576 430.374 398.908 430.309 399.228 430.423 399.421 430.528 399.709 430.713 400.215 429.62 399.95 429.39 399.741 429.063 399.446 428.976 398.953 429.005 398.554 429.03 398.182 429.337 398.06 429.731 398.064 429.943 398.065 430.919 397.963 430.96 398.014L431 398.033Z" fill="#B5E2DF" fill-rule="evenodd" fill-opacity="0.4"/><path d="M433.966 398.045C434.108 398.197 433.769 398.467 433.625 398.597 433.412 398.79 433.13 398.981 432.718 398.999 432.172 399.025 431.87 398.538 432.054 398.267 432.197 398.057 432.597 398.008 432.928 398.008 433.186 398.008 433.845 397.962 433.993 398.095 433.962 398.136 433.986 398.082 433.967 398.078L433.967 398.045Z" fill="#FFFFFF" fill-rule="evenodd" fill-opacity="0.4"/><path d="M426.049 398.915C426.036 398.502 426.693 398.38 427.129 398.418 427.617 398.461 427.735 398.742 427.989 399 427.99 398.86 427.907 398.695 427.873 398.555 427.843 398.422 428.007 398.488 428 398.354 427.849 398.284 427.52 398.042 427.328 398.019 427.114 397.994 426.858 397.99 426.648 398.03 426.163 398.121 426.013 398.48 426 398.81 426.047 398.804 426.02 398.786 426.033 398.76L426.049 398.915Z" fill="#7C0505" fill-rule="evenodd"/><path d="M438.324 411.502C438.032 412.235 436.753 412.989 436.066 413.391 434.887 414.079 433.73 414.598 432.392 414.975 429.936 415.667 427.535 415.732 425.015 415.371 423.317 415.126 421.482 414.555 420.055 413.652 419.118 413.061 418.349 412.197 417.659 411.37 417.272 410.908 417.203 410.928 416.614 411.162 416.086 411.372 415.52 411.547 415 411.73 415.916 413.412 417.806 414.757 419.451 415.75 420.609 416.449 421.961 417.002 423.288 417.349 424.696 417.713 425.915 417.992 427.351 417.998 428.651 418.003 429.868 418.011 431.146 417.82 431.704 417.737 432.428 417.424 432.972 417.262 433.495 417.106 434.01 416.886 434.514 416.69 436.008 416.105 437.447 415.418 438.774 414.552 439.32 414.197 439.765 413.842 440.242 413.424 440.521 413.18 441.198 412.906 440.944 412.585 440.729 412.314 439.843 412.165 439.515 412.039 439.116 411.889 438.643 411.773 438.275 411.574 438.315 411.558 438.352 411.539 438.387 411.519L438.324 411.502Z" fill="#990704" fill-rule="evenodd"/><path d="M442.797 414.87C442.446 415.033 442.218 415.318 441.921 415.536 441.296 415.991 440.519 416.326 439.822 416.703 438.434 417.45 436.917 418.105 435.374 418.617 432.789 419.476 429.518 419.986 426.709 419.892 422.964 419.765 419.31 418.747 416.477 416.795 414.911 415.714 413.996 414.393 412.913 413 412.13 413.263 411.51 413.716 411.163 414.373 410.733 415.184 411.214 416.468 411.909 417.103 413.438 418.51 415.503 419.938 417.638 420.687 419.902 421.484 422.573 421.697 424.994 421.909 428.84 422.243 433.121 421.638 436.672 420.474 437.749 420.124 438.793 419.679 439.846 419.294 440.724 418.975 441.203 418.658 441.676 417.965 442.345 416.984 442.646 415.83 442.819 414.732 442.878 414.72 442.942 414.697 443 414.688L442.797 414.87Z" fill="#F79200" fill-rule="evenodd"/><path d="M440 422.107C437.597 423.244 433.473 424.051 430.757 424.208 427.91 424.373 425.136 424.149 422.309 423.893 419.693 423.655 417.076 423.357 414.674 422.499 414.51 422.44 414.158 422.041 414 422 414.41 422.567 414.827 423.815 415.106 424.428 415.25 424.747 415.597 425.159 415.81 425.452 416.003 425.719 416.292 425.679 416.695 425.845 418.383 426.546 420.581 426.472 422.41 426.616 424.606 426.789 426.787 426.916 428.998 426.986 430.895 427.044 432.775 426.907 434.656 426.85 435.411 426.829 437.049 426.409 437.753 426.203 438.299 426.041 439.685 422.973 439.902 422.32 439.972 422.11 439.04 422.751 439.075 422.533L440 422.107Z" fill="#990704" fill-rule="evenodd"/><path d="M468.442 415.979C468.272 416.037 468.083 415.971 468.02 415.83L468.02 415.83C467.957 415.691 468.045 415.531 468.214 415.474L469.559 415.021C469.729 414.963 469.918 415.031 469.98 415.17L469.98 415.17C470.043 415.31 469.955 415.47 469.785 415.525L468.442 415.979Z" fill="#E2DABA" fill-rule="evenodd"/><path d="M449.915 423.917C449.223 424.15 448.459 423.877 448.204 423.306L448.083 423.031C447.828 422.46 448.181 421.807 448.872 421.574L465.085 416.084C465.775 415.849 466.539 416.124 466.794 416.693L466.918 416.969C467.172 417.539 466.818 418.193 466.128 418.427L449.915 423.917Z" fill="#02332A" fill-rule="evenodd"/><path d="M459.804 419.958C459.494 420.077 459.15 419.937 459.037 419.645L459.037 419.645C458.923 419.353 459.081 419.019 459.391 418.899L464.195 417.043C464.505 416.923 464.849 417.063 464.963 417.355L464.963 417.355C465.077 417.646 464.918 417.98 464.609 418.101L459.804 419.958Z" fill="#09594A" fill-rule="evenodd"/><path d="M468.963 416.025C468.901 415.878 468.842 415.727 468.777 415.579 468.691 415.409 468.611 415.234 468.529 415.059 467.541 414.847 465 415.271 465 415.271 465 415.271 465.085 416.01 465.366 416.718 465.822 417.869 466.181 418 466.181 418 466.181 418 468.387 416.605 469 416.133 468.985 416.098 468.972 416.062 468.963 416.025Z" fill="#054236" fill-rule="evenodd"/><path d="M462.715 419 462 418.057 462.281 418 463 418.945Z" fill="#054236" fill-rule="evenodd"/><path d="M468.982 416.617C468.671 416.726 468.394 416.749 468.067 416.791 467.706 416.839 467.275 416.902 466.957 416.724 466.609 416.532 466.59 416.295 466.748 416.005 466.671 415.987 466.053 416.019 466.011 416.074 465.972 416.128 466.048 416.429 466.052 416.503 466.065 416.648 466.127 416.79 466.184 416.927 466.298 417.19 466.41 417.445 466.567 417.681 466.63 417.776 466.69 417.866 466.782 417.946 466.906 418.053 466.92 417.983 467.065 417.889 467.449 417.646 467.865 417.429 468.243 417.166 468.364 417.08 469.084 416.748 468.992 416.602L468.982 416.617Z" fill="#054236" fill-rule="evenodd" fill-opacity="0.301961"/><path d="M467.944 415.092C467.849 415.188 467.602 415.221 467.467 415.277 467.268 415.355 467.08 415.448 466.892 415.587 466.643 415.765 466.404 416.092 466.493 416.56 466.637 417.328 467.139 417.239 467.516 416.991 467.379 417.061 467.248 417.268 467.126 417.397 466.99 417.54 466.864 417.7 466.736 417.863 466.621 418.01 466.596 418.068 466.512 417.888 466.453 417.759 466.416 417.62 466.372 417.474 466.198 416.894 466.071 416.281 466.013 415.653 466.002 415.519 465.979 415.45 466.047 415.346 466.11 415.247 466.205 415.249 466.287 415.233 466.518 415.19 466.749 415.145 466.98 415.093 467.163 415.056 467.349 415.016 467.529 415.002 467.684 414.989 467.845 415.048 468 415.037L467.944 415.092Z" fill="#054236" fill-rule="evenodd" fill-opacity="0.301961"/><path d="M464.653 417.009C464.768 417.011 464.867 417.21 464.854 417.32 464.832 417.514 464.574 417.694 464.425 417.798 463.947 418.139 463.349 418.349 462.793 418.533 462.422 418.655 461.803 418.894 461.426 418.708 461.132 418.562 461.279 418.363 461.308 418.139 460.974 418.25 460.649 418.409 460.319 418.539 460.015 418.657 459.668 418.752 459.38 418.906 459.095 419.056 458.912 419.425 459.043 419.716 459.228 420.129 459.788 420.007 460.138 419.875 461.184 419.477 462.214 419.039 463.273 418.682 463.675 418.548 464.049 418.373 464.425 418.184 464.676 418.058 464.912 417.927 464.985 417.642 465.049 417.389 464.908 417.073 464.634 417.003 464.649 417.026 464.655 416.999 464.681 417L464.653 417.009Z" fill="#054236" fill-rule="evenodd" fill-opacity="0.301961"/><path d="M463.935 417.064C463.829 416.868 463.052 417.179 462.884 417.247 462.601 417.361 462.291 417.497 462 417.584 462.093 417.699 462.144 417.86 462.205 418 462.155 417.881 462.472 417.715 462.562 417.658 462.779 417.518 463.011 417.414 463.251 417.318 463.431 417.246 463.633 417.177 463.83 417.173 463.869 417.172 463.974 417.197 463.995 417.166 464.023 417.123 463.927 417.056 463.898 417.043L463.935 417.064Z" fill="#098E74" fill-rule="evenodd"/><path d="M461.79 418.013C461.598 418.046 460.887 418.42 461.016 418.84 461.12 419.185 461.812 418.883 462 418.767 461.935 418.521 461.86 418.225 461.769 418L461.79 418.013Z" fill="#098E74" fill-rule="evenodd"/><path d="M449 422.07C449.233 422.127 449.338 422.414 449.436 422.587 449.541 422.773 449.621 422.974 449.705 423.17 449.805 423.404 449.988 423.787 449.718 424 449.814 423.975 449.906 423.952 450 423.913 449.984 423.526 449.829 423.199 449.693 422.825 449.627 422.645 449.56 422.461 449.46 422.29 449.414 422.212 449.35 422.131 449.272 422.073 449.218 422.032 449.069 421.943 449.05 422.052L449 422.07Z" fill="#FFFFFF" fill-rule="evenodd"/><path d="M447.763 424.96C447.49 425.095 447.17 424.879 447.048 424.474L447.048 424.474C446.926 424.069 447.046 423.633 447.318 423.499L448.238 423.04C448.51 422.905 448.829 423.122 448.953 423.527L448.953 423.527C449.075 423.931 448.953 424.368 448.682 424.503L447.763 424.96Z" fill="#000706" fill-rule="evenodd"/><path d="M465.933 418.067C465.674 418.063 465.278 418.27 465.004 418.372 464.395 418.601 463.785 418.828 463.176 419.058 462.111 419.457 461.04 419.871 459.934 420.139 458.989 420.365 458.071 420.615 457.108 420.739 456.509 420.817 455.956 420.926 455.401 420.686 455.205 420.602 455.006 420.502 454.822 420.399 454.744 420.353 454.409 420.058 454.367 420.049 454.131 419.993 449.834 421.525 449.322 421.887 449.074 422.062 448.906 422.322 449.058 422.553 449.117 422.642 449.347 422.712 449.435 422.837 449.516 422.954 449.574 423.163 449.581 423.288 449.598 423.634 449.282 423.808 449.658 423.953 449.976 424.076 450.479 423.928 450.795 423.86 451.544 423.695 452.298 423.338 453.022 423.067 454.566 422.488 456.074 421.741 457.633 421.176 459.144 420.626 460.736 420.178 462.256 419.609 462.743 419.426 466.098 418.254 465.998 418L465.933 418.067Z" fill="#02332A" fill-rule="evenodd" fill-opacity="0.501961"/><path d="M465.94 416.326C465.763 416.085 463.838 416.488 463.494 416.553 462.676 416.708 461.759 416.84 461 417 462.049 416.774 463.05 416.501 464.095 416.276 464.489 416.191 464.937 416.051 465.349 416.005 465.677 415.97 466.209 416.139 465.912 416.331 465.949 416.345 465.961 416.329 466 416.327L465.94 416.326Z" fill="#098E74" fill-rule="evenodd" fill-opacity="0.301961"/><path d="M467.892 416.029C467.738 415.909 467.476 416.191 467.316 416.325 467.193 416.431 466.814 416.845 467.111 416.983 467.273 417.059 467.456 416.856 467.619 416.854 467.745 416.854 467.881 416.95 468 416.849 467.975 416.593 467.937 416.048 467.872 416.003L467.892 416.029Z" fill="#098E74" fill-rule="evenodd" fill-opacity="0.301961"/><path d="M457.99 421C456.341 421.61 454.663 422.286 452.964 422.712 452.402 422.853 451.825 423.025 451.256 423.091 450.984 423.124 450.814 423.073 450.561 422.948 450.483 422.908 450.081 422.599 450.014 422.637 450.01 422.641 450.004 422.641 450 422.642 450.073 422.892 450.242 423.099 450.316 423.355 450.385 423.596 450.321 423.761 450.264 424 452.542 423.311 454.663 422.21 456.917 421.483 457.232 421.383 457.82 421.291 458 421.026L457.99 421Z" fill="#098E74" fill-rule="evenodd" fill-opacity="0.4"/><path d="M469.689 415.005C470.2 415.071 469.42 415.45 469.236 415.498 468.935 415.578 468.49 415.649 468.403 415.32 468.273 415.368 468.124 415.403 468 415.424 468.064 415.617 468.124 415.808 468.226 416 468.608 415.855 469.025 415.798 469.42 415.667 469.722 415.566 470.317 415.252 469.791 415L469.689 415.005Z" fill="#E2DABA" fill-rule="evenodd"/><path d="M467.942 415C467.816 415.113 466.931 415.433 467.004 416 467.164 415.996 468.153 416 467.98 415.067 467.958 415.056 467.939 415.067 467.917 415.081L467.942 415Z" fill="#098E74" fill-rule="evenodd"/><path d="M465.952 416.589C465.831 415.874 464.302 416.901 464 417 464.412 416.76 464.779 416.449 465.187 416.209 465.385 416.095 465.583 415.981 465.785 416.003 466.049 416.028 465.977 416.345 465.982 416.628 465.962 416.655 466.004 416.576 466 416.584L465.952 416.589Z" fill="#098E74" fill-rule="evenodd"/><path d="M454.379 421.054C453.401 420.126 451.348 418.188 450.087 419.372 448.542 420.826 450.95 421.767 451.812 422.665 450.874 422.261 450.216 421.465 449.204 421.498 448.687 422.777 449.44 423.1 449.566 424.117 449.716 425.324 449.49 425.262 449.161 426.559 448.72 428.295 449.108 430.557 451.291 429.876 453.572 429.163 458.374 422.176 454.6 420.814 454.555 420.632 454.627 420.404 454.57 420.24L454.379 421.054Z" fill="#D8A47D" fill-rule="evenodd"/><path d="M411.776 414.409C411.604 414.258 411.657 414.077 411.362 414 409.705 415.291 408.328 418.091 407.23 419.865 405.262 423.047 403.468 426.335 401.814 429.681 400.798 431.736 398.905 433.718 400.828 435.342 402.693 436.917 406.371 437.415 408.718 437.639 413.203 438.068 422.283 439.251 419.469 432.57 417.905 428.858 415.819 425.382 414.404 421.631 413.63 419.583 412.476 416.184 410.95 414.605L411.776 414.409Z" fill="#067982" fill-rule="evenodd"/><path d="M445.695 445.518C446.426 445.509 447.009 444.889 447 444.133L446.695 422.349C446.685 421.594 446.085 420.99 445.354 421L410.302 421.482C409.573 421.491 408.99 422.111 409 422.866L409.305 444.649C409.315 445.405 409.915 446.01 410.644 446L445.695 445.518Z" fill="#DDE8E6" fill-rule="evenodd"/><path d="M410.701 446 410.701 446C409.942 446.01 409.315 445.383 409.304 444.603L409 422.915C408.99 422.134 409.599 421.491 410.358 421.48L445.297 421C446.057 420.991 446.685 421.617 446.696 422.397L447 444.086C447.01 444.867 446.399 445.509 445.64 445.52L410.701 446ZM445.298 421.109 410.36 421.588C409.666 421.599 409.112 422.192 409.122 422.912L409.426 444.6C409.437 445.323 410.007 445.9 410.7 445.891L410.701 445.945 410.701 445.891 445.638 445.412C446.332 445.402 446.887 444.808 446.877 444.088L446.573 422.399C446.563 421.677 445.991 421.1 445.298 421.109Z" fill="#86A2A3" fill-rule="evenodd"/><path d="M411.449 437.861C412.638 435.656 415.277 434.153 417.517 432.8 420.655 430.904 424.08 429.442 427.481 427.974 430.108 426.839 432.835 426.035 435.641 425.372 437.016 425.047 438.587 424.544 440 424.536 438.658 423.631 434.967 424.268 433.299 424.222 430.574 424.147 427.84 424.187 425.094 424.222 422.394 424.257 419.696 424.136 417.018 424.064 415.827 424.031 412.813 423.743 412.029 424.736 411.502 425.408 411.456 427.143 411.379 427.964 411.252 429.282 411.215 430.602 411.143 431.921 411.077 433.167 411.055 434.422 411.006 435.681 410.988 436.072 410.96 438.799 411.74 437.769L411.449 437.861Z" fill="#FFFFFF" fill-rule="evenodd" fill-opacity="0.301961"/><path d="M414.222 429.471C416.438 428.049 419.714 425.893 422.49 426.004 422.547 427.975 418.364 428.868 418.466 430.802 419.808 430.657 421.005 429.614 422.269 429.182 423.343 428.815 423.402 429.068 423.249 430.016 424.21 430.249 426.265 428.814 427.144 428.434 428.541 427.83 429.94 427.235 431.435 426.884 432.389 426.661 434.443 426.088 435.423 426.48 437.245 427.208 434.229 428.633 433.547 429.012 431.231 430.297 429.168 431.919 426.915 433.289 425.01 434.448 423.135 435.674 421.181 436.76 420.709 437.021 418.725 438.369 418.081 437.903 417.245 437.301 419.467 434.178 419.55 433.332 417.721 433.052 414.063 436.401 413.093 433.323 412.718 432.132 413.533 430.165 414.514 429.469L414.222 429.471Z" fill="#FFFFFF" fill-rule="evenodd" fill-opacity="0.2"/><path d="M410 432.496C410.006 432.771 409.783 432.997 409.511 433 409.235 433.006 409.006 432.783 409 432.502 409 432.232 409.217 432.003 409.495 432 409.77 432 409.997 432.214 410 432.496Z" fill="#045656" fill-rule="evenodd"/><path d="M410 433.492C410 433.772 409.786 433.997 409.511 434 409.236 434 409.003 433.783 409 433.508 408.997 433.231 409.22 433.006 409.496 433 409.771 432.995 410 433.217 410 433.492Z" fill="#045656" fill-rule="evenodd"/><path d="M410 433.495C410.006 433.765 409.784 433.995 409.512 434 409.235 434.003 409.006 433.784 409 433.503 409 433.232 409.22 433.008 409.494 433 409.771 432.997 409.997 433.216 410 433.495Z" fill="#045656" fill-rule="evenodd"/><path d="M410 432.501C410.003 432.783 410.23 433.009 410.507 433 410.782 432.997 411.006 432.771 411 432.49 411 432.214 410.773 431.994 410.496 432 410.215 431.997 409.997 432.223 410 432.501Z" fill="#045656" fill-rule="evenodd"/><path d="M410 433.51C410.003 433.783 410.232 434.005 410.506 434 410.783 433.995 411 433.769 411 433.493 410.997 433.218 410.771 432.992 410.489 433 410.218 433.003 409.992 433.229 410 433.51Z" fill="#045656" fill-rule="evenodd"/><path d="M410 434.508C410.003 434.783 410.232 435.003 410.507 435 410.785 434.995 411.006 434.769 411 434.492 410.997 434.217 410.771 433.995 410.493 434 410.215 434.003 409.997 434.231 410 434.508Z" fill="#045656" fill-rule="evenodd"/><path d="M410 432.504C410.003 432.782 410.229 433.003 410.509 433 410.783 432.991 411.006 432.77 411 432.493 410.994 432.216 410.771 431.994 410.494 432 410.218 432.003 409.997 432.227 410 432.504Z" fill="#045656" fill-rule="evenodd"/><path d="M432 365.771C432 362.583 429.537 360 426.499 360 423.461 360 421 362.583 421 365.771 421 367.869 423.061 369.033 423.664 370.716 423.791 371.072 423.455 371.456 423.455 371.858 423.455 373.592 424.817 375 426.499 375 428.181 375 429.543 373.592 429.543 371.858 429.543 371.456 429.208 371.072 429.335 370.716 429.94 369.033 432 367.869 432 365.771Z" fill="#198192" fill-rule="evenodd"/><path d="M432 365.386C432 362.412 429.761 360 427 360 424.238 360 422 362.412 422 365.386 422 367.345 423.874 368.43 424.423 370.002 424.539 370.333 424.34 370.756 424.34 371.133 424.34 372.753 425.473 374 427 374 428.528 374 429.608 372.609 429.608 370.99 429.608 370.615 429.461 370.334 429.577 370.003 430.126 368.43 432 367.344 432 365.386Z" fill="#C5E6E4" fill-rule="evenodd"/><path d="M427 373.818C427 373.92 426.774 374 426.501 374L426.501 374C426.223 374 426 373.919 426 373.818L426 370.181C426 370.08 426.226 370 426.501 370L426.501 370C426.774 370 427 370.08 427 370.181L427 373.818Z" fill="#FFFFFF" fill-rule="evenodd"/><path d="M426.969 370.721C427.036 370.794 426.992 370.901 426.867 370.96L426.867 370.96C426.74 371.021 426.585 371.011 426.518 370.938L424.032 368.28C423.963 368.207 424.01 368.101 424.135 368.04L424.135 368.04C424.258 367.979 424.414 367.989 424.483 368.061L426.969 370.721Z" fill="#FFFFFF" fill-rule="evenodd"/><path d="M427 373.818C427 373.92 427.226 374 427.501 374L427.501 374C427.777 374 428 373.92 428 373.818L428 370.181C428 370.081 427.774 370 427.501 370L427.501 370C427.226 370 427 370.081 427 370.181L427 373.818Z" fill="#FFFFFF" fill-rule="evenodd"/><path d="M427.021 370.72C426.976 370.792 427.007 370.9 427.09 370.961L427.09 370.961C427.172 371.021 427.277 371.011 427.322 370.938L428.979 368.28C429.024 368.207 428.994 368.101 428.911 368.041L428.911 368.041C428.828 367.978 428.724 367.99 428.679 368.062L427.021 370.72Z" fill="#FFFFFF" fill-rule="evenodd"/><path d="M424.658 361.167C424.175 361.674 423.417 362.049 422.947 362.631 422.429 363.272 422.219 363.833 422.08 364.582 421.933 365.388 421.97 366.123 422.347 366.888 422.661 367.521 423.466 368.622 424.057 367.552 424.642 366.499 425.2 366.021 426.567 365.646 427.632 365.355 429.121 365.308 429.722 364.402 430.603 363.071 429.239 361.738 427.756 361.213 427.185 361.01 426.354 360.955 425.672 361.036 424.991 361.117 424.601 361.277 424.015 361.523L424.658 361.167Z" fill="#D3ECEC" fill-rule="evenodd" fill-opacity="0.701961"/><path d="M426.714 361.024C425.844 361.164 424.942 361.343 424.217 361.79 423.586 362.178 422.679 362.952 423.114 363.61 423.757 364.586 424.717 363.481 425.106 363.003 425.554 362.45 426.025 361.785 426.926 361.669 427.307 361.62 428.326 361.748 427.896 361.255 427.637 360.96 426.719 360.958 426.341 361.064L426.714 361.024Z" fill="#F4F5F5" fill-rule="evenodd" fill-opacity="0.729412"/><path d="M428 362.704C428.4 363.314 429.015 363.833 429.227 364.58 429.422 365.27 429.507 366.042 429.414 366.756 429.261 367.898 428.652 368.915 428.295 370 430.168 369.174 431.515 367.61 431.834 366.104 432.134 364.695 432.28 362.685 429.953 362.065 429.274 361.884 428.136 362.076 428.201 362.705L428 362.705Z" fill="#F4F5F5" fill-rule="evenodd" fill-opacity="0.729412"/><path d="M429 374.5C429 374.777 428.56 375 428.017 375L424.982 375C424.44 375 424 374.777 424 374.5L424 374.5C424 374.224 424.44 374 424.982 374L428.017 374C428.56 374 429 374.224 429 374.5L429 374.5Z" fill="#198192" fill-rule="evenodd"/><path d="M429 375.5C429 375.775 428.559 376 428.017 376L424.982 376C424.439 376 424 375.776 424 375.5L424 375.5C424 375.225 424.44 375 424.982 375L428.017 375C428.559 375.001 429 375.225 429 375.5L429 375.5Z" fill="#198192" fill-rule="evenodd"/><path d="M429 376.5C429 376.776 428.56 377 428.018 377L424.983 377C424.439 377 424 376.776 424 376.5L424 376.5C424 376.223 424.439 376 424.983 376L428.018 376C428.559 376 429 376.223 429 376.5L429 376.5Z" fill="#198192" fill-rule="evenodd"/><path d="M429.521 362.013C428.57 361.949 429.371 362.889 429.645 363.108 430.193 363.545 430.53 363.944 430.809 364.532 431.365 365.708 431.287 366.803 430.948 368 432.031 367.064 432.164 365.162 431.855 363.976 431.687 363.332 431.347 362.783 430.698 362.362 430.273 362.089 428.894 361.631 429.007 362.531L429.521 362.013Z" fill="#FFFFFF" fill-rule="evenodd"/><path d="M424.526 361.255C423.982 361.449 423.456 361.805 423.158 362.253 422.883 362.664 422.921 363.257 423.64 362.879 424.049 362.664 424.306 362.14 424.634 361.847 425.013 361.509 425.447 361.172 426 361.075 425.395 360.813 424.331 361.295 423.863 361.618L424.526 361.255Z" fill="#FFFFFF" fill-rule="evenodd"/><path d="M428 377C428 377.552 427.329 378 426.5 378 425.672 378 425 377.551 425 377 425 376.448 425.672 376 426.5 376 427.328 376 428 376.448 428 377Z" fill="#198192" fill-rule="evenodd"/><path d="M428.482 374C428.859 374.33 428.404 374.748 428.018 374.868 427.575 375.005 427.094 375.084 426.636 375.173 427.04 375.26 427.505 375.194 427.89 375.371 428.062 375.451 428.258 375.613 428.162 375.792 428.064 375.976 427.761 375.932 427.594 376.02 427.718 376.035 427.947 376.024 428.018 376.13 428.12 376.279 427.897 376.408 427.759 376.455 427.422 376.57 426.975 376.592 426.617 376.562 426.917 376.692 427.296 376.666 427.129 377.058 427.033 377.286 426.763 377.497 426.462 377.506 426.128 377.515 425.894 377.455 425.624 377.294 425.485 377.21 425.388 377.136 425.28 377.027 425.168 376.913 425.074 376.819 425.012 377.008 424.936 377.236 425.243 377.523 425.437 377.659 425.672 377.824 425.968 377.958 426.276 377.991 426.866 378.057 427.575 377.742 427.836 377.288 427.902 377.171 427.95 377.049 428.013 376.933 428.073 376.821 428.025 376.858 428.146 376.807 428.215 376.778 428.295 376.768 428.368 376.737 428.51 376.678 428.676 376.61 428.716 376.471 428.76 376.321 428.637 376.258 428.552 376.146 428.709 376.017 428.942 375.922 428.943 375.714 428.945 375.48 428.681 375.389 428.575 375.207 428.851 375.171 429.011 374.832 428.999 374.634 428.986 374.399 428.832 374.231 428.593 374.122 428.526 374.176 428.568 374.255 428.593 374.323L428.482 374Z" fill="#085E66" fill-rule="evenodd"/><path d="M424.084 369 424 368.936C424.052 368.886 424.122 368.875 424.192 368.865 424.227 368.86 424.266 368.854 424.304 368.844 424.479 368.793 424.661 368.677 424.821 368.576 424.855 368.555 424.886 368.535 424.916 368.517 425.052 368.431 425.178 368.336 425.286 368.236 425.229 368.162 425.185 368.078 425.153 367.985 425.075 367.74 425.123 367.505 425.284 367.354 425.374 367.268 425.534 367.185 425.676 367.208 425.735 367.219 425.816 367.252 425.862 367.351 425.93 367.504 425.703 367.903 425.654 367.975 425.593 368.065 425.519 368.155 425.432 368.242 425.51 368.323 425.607 368.381 425.713 368.408 425.997 368.479 426.255 368.382 426.421 368.289 426.507 368.242 426.588 368.184 426.66 368.12 426.583 368.018 426.534 367.898 426.514 367.767 426.51 367.742 426.434 367.178 426.739 367.035 426.859 366.978 426.94 367.001 426.987 367.029 427.153 367.129 427.142 367.439 427.124 367.551 427.093 367.746 426.973 367.953 426.803 368.126 426.899 368.227 427.027 368.298 427.173 368.328 427.384 368.371 427.593 368.318 427.757 368.186 427.622 367.987 427.6 367.749 427.692 367.497 427.699 367.482 427.826 367.141 428.028 367.123 428.108 367.116 428.178 367.159 428.237 367.249 428.411 367.516 428.055 368.008 427.983 368.103 427.957 368.136 427.929 368.168 427.901 368.196 428.044 368.362 428.275 368.471 428.56 368.507 428.734 368.53 429.298 368.586 429.56 368.437 429.576 368.422 429.594 368.411 429.616 368.4L430 368.228 429.68 368.48C429.666 368.491 429.65 368.5 429.635 368.509 429.634 368.511 429.634 368.511 429.634 368.513L429.632 368.511C429.345 368.684 428.782 368.635 428.543 368.605 428.234 368.565 427.982 368.448 427.82 368.268 427.632 368.414 427.391 368.472 427.147 368.424 426.981 368.388 426.838 368.311 426.728 368.2 426.652 368.265 426.571 368.324 426.482 368.373 426.219 368.52 425.936 368.566 425.682 368.501 425.559 368.47 425.449 368.404 425.357 368.314 425.246 368.414 425.12 368.508 424.982 368.594 424.954 368.612 424.922 368.633 424.889 368.652 424.722 368.759 424.533 368.88 424.342 368.934 424.295 368.948 424.25 368.954 424.212 368.961 424.146 368.969 424.109 368.976 424.084 369ZM425.626 367.301C425.547 367.301 425.439 367.348 425.366 367.418 425.231 367.544 425.192 367.745 425.26 367.957 425.285 368.031 425.319 368.1 425.362 368.16 425.438 368.082 425.503 368.005 425.556 367.924 425.646 367.788 425.796 367.471 425.756 367.385 425.735 367.338 425.703 367.311 425.655 367.303 425.646 367.301 425.636 367.301 425.626 367.301ZM428.042 367.219C428.04 367.219 428.038 367.219 428.037 367.219 427.956 367.227 427.85 367.385 427.798 367.526 427.719 367.741 427.732 367.941 427.836 368.111 427.852 368.092 427.87 368.07 427.886 368.049 428.035 367.854 428.254 367.479 428.136 367.295 428.115 367.26 428.08 367.219 428.042 367.219ZM426.878 367.096C426.858 367.096 426.829 367.101 426.793 367.12 426.615 367.202 426.595 367.553 426.625 367.754 426.641 367.86 426.679 367.958 426.737 368.043 426.883 367.889 426.986 367.708 427.013 367.536 427.037 367.394 427.018 367.165 426.924 367.108 426.916 367.105 426.904 367.096 426.878 367.096Z" fill="#085E66" fill-rule="evenodd"/><path d="M425.208 374C424.853 374.364 425.007 374.801 425.267 375.126 424.995 375.227 425.023 375.76 425.248 375.899 424.968 376.082 425.233 376.333 425.36 376.432 425.518 376.555 425.636 376.804 425.759 377 425.694 376.875 425.438 376.424 425.466 376.307 425.601 376.413 425.909 376.353 426 376.175 425.863 376.104 425.37 376.189 425.377 375.859 425.532 375.847 425.771 375.729 425.847 375.518 425.684 375.56 425.508 375.538 425.438 375.285 425.439 375.285 425.451 375.268 425.451 375.268 425.584 375.26 425.724 375.177 425.827 375.041 425.826 375.028 425.822 375.017 425.815 375.005 425.638 374.98 425.502 374.836 425.651 374.619 425.727 374.503 425.952 374.381 425.88 374.17 425.775 373.859 425.153 374.032 425.054 374.277L425.208 374Z" fill="#C5E6E4" fill-rule="evenodd"/><path d="M421.234 369.13C419.692 368.992 417.708 372.811 417 373.979 417.584 374.406 418.324 374.944 419.024 375 419.185 374.237 419.475 373.588 419.945 372.96 420.339 372.429 421.802 371.65 421.978 371.094 422.142 370.576 421.337 369.041 420.975 369L421.234 369.13Z" fill="#FFF243" fill-rule="evenodd"/><path d="M414.225 369C416.352 368.326 418.795 367.791 421 367.64 420.907 366.822 420.774 365.851 420.561 365 419.074 365.497 415.875 366.054 414.371 365.417 413.836 365.962 413.965 368.509 414.225 368.852L414.225 369Z" fill="#FFF243" fill-rule="evenodd"/><path d="M415.3 360.529C417.114 361.035 419.353 362.215 420.981 363 420.85 362.226 421.53 361.748 422 361.221 420.184 360.712 418.069 359.129 416.642 358 415.848 358.424 415.36 359.411 415 360.132L415.3 360.529Z" fill="#FFF243" fill-rule="evenodd"/><path d="M421 355.01C421.035 354.82 421.256 355.602 421.349 355.814 421.642 356.474 422.035 357.077 422.354 357.722 422.724 358.468 423.015 359.255 423.351 360 423.853 359.752 424.442 359.517 425 359.499 424.726 357.627 423.829 355.87 423.463 354.022 422.581 353.853 421.867 354.728 421.02 354.726 421.105 354.743 421.132 354.699 421.199 354.655L421 355.01Z" fill="#FFF243" fill-rule="evenodd"/><path d="M428.444 354.136C428.208 355.676 427.482 357.281 427 358.728 427.749 358.758 428.324 358.81 428.998 359 428.894 357.561 430.262 355.706 431 354.469 430.048 354.576 429.348 353.991 428.444 354L428.444 354.136Z" fill="#FFF243" fill-rule="evenodd"/><path d="M433.74 356.133C432.846 357.343 431.918 358.504 431 359.643 431.564 360.01 431.784 360.634 432.298 361 432.839 360.444 433.282 359.85 433.892 359.33 434.583 358.746 435.469 358.108 436 357.409 435.513 357.39 434.354 356.327 433.946 356L433.74 356.133Z" fill="#FFF243" fill-rule="evenodd"/><path d="M433 362.102C433.107 362.032 433.391 364.503 433.38 365 434.31 363.868 436.714 363.867 438 363.621 437.974 363.223 437.71 362.869 437.609 362.453 437.49 361.97 437.491 361.466 437.355 361 436.751 361.005 435.826 361.58 435.182 361.755 434.589 361.918 433.442 361.799 433 362.171L433 362.102Z" fill="#FFF243" fill-rule="evenodd"/><path d="M433.324 366C432.822 366.601 432.636 367.499 432 368.065 432.835 368.115 433.707 369.091 434.373 369.535 435.136 370.045 435.962 370.645 436.804 371 437.1 370.471 437.641 370.149 438 369.702 437.157 369.141 436.15 368.805 435.31 368.209 434.541 367.663 434.106 366.732 433.324 366.219L433.324 366Z" fill="#FFF243" fill-rule="evenodd"/><path d="M431 369.91C431.699 371.489 432.061 373.287 432.534 375 432.921 374.903 433.406 374.415 433.837 374.203 434.259 373.995 435.025 373.911 434.999 373.304 434.985 372.914 434.047 371.597 433.817 371.186 433.592 370.783 432.876 369.187 432.508 369.026 432.071 368.832 431.105 369.783 431.07 370.059L431 369.91Z" fill="#FFF243" fill-rule="evenodd"/></g></svg>