<svg width="711" height="323" xmlns="http://www.w3.org/2000/svg" xmlns:xlink="http://www.w3.org/1999/xlink" overflow="hidden"><g transform="translate(-27 57)"><text font-family="Berlin Sans FB,Berlin Sans FB_MSFontService,sans-serif" font-weight="400" font-size="153" transform="translate(187.241 139)">artfolio</text><path d="M31.5147 63.1132C29.0967 60.4118 29.3265 56.2617 32.0279 53.8437L61.5139 27.4508C64.2153 25.0328 68.3654 25.2626 70.7834 27.9639L161.045 128.804C163.463 131.505 163.233 135.656 160.532 138.074L131.046 164.466C128.344 166.884 124.194 166.655 121.776 163.953Z" stroke="#3AC6AB" stroke-width="3" stroke-miterlimit="8" fill="#FFFFFF" fill-rule="evenodd"/><path d="M61.5001 27.5001 159.564 138.885" stroke="#3AC6AB" stroke-width="3" stroke-miterlimit="8" fill="none" fill-rule="evenodd"/><path d="M63.6138 46.1099 67.2518 50.2815C67.7541 50.8576 67.6943 51.7317 67.1183 52.234L42.1444 74.0127 36.6874 67.7551 61.6613 45.9764C62.2373 45.4741 63.1115 45.5338 63.6138 46.1099Z" stroke="#3AC6AB" stroke-width="3" stroke-miterlimit="8" fill="#FFFFFF" fill-rule="evenodd"/><path d="M76.1465 60.4398 79.7845 64.6115C80.2868 65.1875 80.227 66.0617 79.651 66.564L54.6771 88.3427 49.2201 82.0851 74.194 60.3064C74.7701 59.8041 75.6442 59.8638 76.1465 60.4398Z" stroke="#3AC6AB" stroke-width="3" stroke-miterlimit="8" fill="#FFFFFF" fill-rule="evenodd"/><path d="M88.6793 74.7699 92.3173 78.9416C92.8196 79.5176 92.7598 80.3918 92.1838 80.8941L67.2099 102.673 61.7529 96.4151 86.7269 74.6365C87.3029 74.1342 88.177 74.1939 88.6793 74.7699Z" stroke="#3AC6AB" stroke-width="3" stroke-miterlimit="8" fill="#FFFFFF" fill-rule="evenodd"/><path d="M101.212 89.1 104.85 93.2717C105.352 93.8477 105.293 94.7218 104.717 95.2241L79.7426 117.003 74.2856 110.745 99.2596 88.9665C99.8356 88.4642 100.71 88.524 101.212 89.1Z" stroke="#3AC6AB" stroke-width="3" stroke-miterlimit="8" fill="#FFFFFF" fill-rule="evenodd"/><path d="M113.745 103.43 117.383 107.602C117.885 108.178 117.825 109.052 117.249 109.554L92.2753 131.333 86.8184 125.075 111.792 103.297C112.368 102.794 113.242 102.854 113.745 103.43Z" stroke="#3AC6AB" stroke-width="3" stroke-miterlimit="8" fill="#FFFFFF" fill-rule="evenodd"/><path d="M126.277 117.76 129.915 121.932C130.418 122.508 130.358 123.382 129.782 123.884L104.808 145.663 99.3511 139.405 124.325 117.627C124.901 117.124 125.775 117.184 126.277 117.76Z" stroke="#3AC6AB" stroke-width="3" stroke-miterlimit="8" fill="#FFFFFF" fill-rule="evenodd"/><path d="M138.81 132.09 142.448 136.262C142.951 136.838 142.891 137.712 142.315 138.214L117.341 159.993 111.884 153.735 136.858 131.957C137.434 131.454 138.308 131.514 138.81 132.09Z" stroke="#3AC6AB" stroke-width="3" stroke-miterlimit="8" fill="#FFFFFF" fill-rule="evenodd"/><path d="M118.999 42.8705C121.764 40.336 126.06 40.5229 128.594 43.288L146.95 63.3138C149.485 66.0789 149.298 70.375 146.533 72.9096L58.8584 153.273C56.0933 155.808 51.7972 155.621 49.2627 152.856L30.9067 132.83C28.3721 130.065 28.5591 125.769 31.3241 123.234Z" stroke="#3AC6AB" stroke-width="3" stroke-miterlimit="8" fill="#FFFFFF" fill-rule="evenodd"/><path d="M35.5001 121.5 61.9641 151.855" stroke="#3AC6AB" stroke-width="3" stroke-miterlimit="8" fill="none" fill-rule="evenodd"/><path d="M40.5001 118.5 66.9641 148.855" stroke="#3AC6AB" stroke-width="3" stroke-miterlimit="8" fill="none" fill-rule="evenodd"/><path d="M0 0 84.7593 78.3447" stroke="#3AC6AB" stroke-width="3" stroke-miterlimit="8" fill="none" fill-rule="evenodd" transform="matrix(1 0 0 -1 53.5001 130.845)"/><path d="M150.251 30.5745 164.009 28.2444 160.685 41.797Z" stroke="#3AC6AB" stroke-width="3" stroke-miterlimit="8" fill="#FFFFFF" fill-rule="evenodd"/><path d="M122.5 39.5001C126.993 37.1346 131.485 34.7692 136.485 33.2693 141.485 31.7692 152.5 30.5001 152.5 30.5001L152.5 30.5001" stroke="#3AC6AB" stroke-width="3" stroke-miterlimit="8" fill="none" fill-rule="evenodd"/><path d="M0 8.82131C4.65044 6.5028 9.301 4.18441 14.4768 2.71425 19.6527 1.24397 31.055 0 31.055 0L31.055 0" stroke="#3AC6AB" stroke-width="3" stroke-miterlimit="8" fill="none" fill-rule="evenodd" transform="matrix(0.134606 -0.990899 -0.990899 -0.134606 156.73 71.3268)"/><path d="M90.5001 28.5001 100.018 24.0176 104.5 14.5001 108.983 24.0176 118.5 28.5001 108.983 32.9825 104.5 42.5 100.018 32.9825Z" stroke="#3AC6AB" stroke-width="3" stroke-miterlimit="8" fill="#FFFFFF" fill-rule="evenodd"/><path d="M71.5001 161.5 81.0176 157.018 85.5001 147.5 89.9825 157.018 99.5001 161.5 89.9825 165.983 85.5001 175.5 81.0176 165.983Z" stroke="#3AC6AB" stroke-width="3" stroke-miterlimit="8" fill="#FFFFFF" fill-rule="evenodd"/></g></svg>