<svg width="451" height="434" xmlns="http://www.w3.org/2000/svg" xmlns:xlink="http://www.w3.org/1999/xlink" overflow="hidden"><defs><clipPath id="clip0"><rect x="440" y="138" width="451" height="434"/></clipPath></defs><g clip-path="url(#clip0)" transform="translate(-440 -138)"><path d="M726.448 570.809C734.34 570.149 742.892 567.604 748.653 561.955 753.176 557.523 756.374 550.453 752.831 544.512 750.453 540.52 743.005 537.304 747.488 532.151 750.103 529.144 753.022 527.621 754.297 523.593 755.864 518.619 754.777 512.925 751.387 509.08 750.334 508.093 747.948 506.506 746.822 505.976 740.772 503.344 734.108 501.591 727.825 504.525 724.632 506.023 722.637 508.543 720.945 511.544 718.113 516.569 715.657 519.764 709.746 521.175 701.953 523.037 694.84 523.834 689.347 530.3 684.575 535.918 682.848 543.433 684.772 550.539 689.312 567.281 711.232 572.071 726.448 570.809Z" fill="#0F519F" fill-rule="evenodd"/><path d="M878.497 389.903C875.313 387.482 870.79 388.703 867.444 390.044 863.009 391.824 859.108 394.616 854.856 396.753 853.552 397.407 852.213 398.014 850.814 398.466 848.779 399.127 846.697 397.394 846.481 395.378 846.19 392.687 847.854 389.525 849.226 387.341 852.254 382.506 856.946 379.033 860.894 375.002 863.335 372.514 867.128 368.724 865.249 364.901 863.315 360.97 857.542 360.977 853.844 361.004 847.874 361.051 841.851 362.184 836.354 364.517 835.617 364.827 836.144 366.048 836.901 365.805 842.648 363.958 848.387 362.771 854.466 362.946 856.581 363.013 861.138 362.899 862.484 365.009 863.186 366.115 862.599 368.69 862.071 369.682 861.645 370.491 860.888 371.166 860.266 371.826 859.299 372.851 858.285 373.829 857.251 374.787 851.051 380.552 842.222 387.793 843.655 397.409 845.075 406.963 857.764 398.636 861.977 396.208 865.513 394.172 874.537 388.38 877.506 393.498 880.021 397.827 874.315 404.596 872.314 408.224 868.872 414.468 867.324 424.812 875.714 427.9 877.539 428.567 878.269 425.715 876.512 425.013 871.976 423.219 871.827 417.151 873.254 413.24 874.964 408.547 878.433 404.704 880.137 399.998 881.357 396.639 881.661 392.31 878.497 389.903Z" fill="#F79BB4" fill-rule="evenodd"/><path d="M632.2 361.033C625.011 377.621 622.496 396.869 627.941 414.312 628.319 415.508 630.091 415.021 629.829 413.798 623.056 382.654 634.795 349.839 659.533 329.488 672.687 318.668 690.854 312.031 707.573 318.488 722.02 324.062 729.238 338.551 732.627 352.673 734.716 361.381 735.525 370.31 736.09 379.219 736.785 390.172 736.306 401.12 736.798 412.06 736.872 413.765 739.258 413.704 739.425 412.06 740.557 401.28 739.783 390.019 739.102 379.219 738.57 370.851 737.822 362.464 736.063 354.25 732.997 339.867 726.407 324.89 712.748 317.585 697.093 309.218 678.165 313.154 663.967 322.537 649.909 331.827 638.851 345.702 632.2 361.033Z" fill="#F79BB4" fill-rule="evenodd"/><path d="M716.326 414.597C719.516 402.995 719.86 390.705 717.314 378.942 715.139 368.88 711.167 356.342 701.26 351.645 681.832 342.439 661.441 358.853 654.16 376.459 649.115 388.647 648.034 402.261 648 415.351 648 416.226 649.273 416.206 649.333 415.351 650.746 395.047 652.921 371.694 670.518 358.678 677.785 353.3 687.109 350.212 696.034 352.52 707.201 355.413 711.464 366.444 714.123 376.781 717.26 388.983 717.041 401.743 713.798 413.891 713.355 415.546 715.875 416.246 716.326 414.597Z" fill="#F79BB4" fill-rule="evenodd"/><path d="M674.247 414.007C675.124 409.486 672.461 394.931 680.743 396.209 687.862 397.303 688.671 410.608 688.778 415.911 688.805 417.36 691.039 417.366 690.999 415.911 690.825 409.378 689.554 395.135 680.898 394.074 670.515 392.796 673.552 408.331 673.05 413.845 672.983 414.538 674.114 414.694 674.247 414.007Z" fill="#F79BB4" fill-rule="evenodd"/><path d="M680.375 382.005C674.099 382.153 670.065 387 667.869 392.547 664.853 400.157 663.861 408.776 666.625 416.594 666.869 417.293 667.928 417.024 667.73 416.285 665.21 406.685 667.506 382.96 681.658 384.244 687.591 384.789 692.373 389.3 694.701 394.631 697.299 400.573 697.048 406.893 697.941 413.172 698.113 414.382 699.918 414.019 699.965 412.897 700.468 400.6 695.7 381.636 680.375 382.005Z" fill="#F79BB4" fill-rule="evenodd"/><path d="M709.179 413.773C710.335 402.731 711.058 390.222 705.711 380.055 701.635 372.306 693.448 365.613 684.268 366.017 674.445 366.448 667.104 374.615 662.595 382.594 657.437 391.724 654.868 403.001 656.476 413.423 656.611 414.298 658.045 414.083 658.017 413.215 657.672 403.566 658.978 394.363 663.493 385.697 667.651 377.719 674.856 368.589 684.753 368.467 694.035 368.353 701.774 376.123 704.837 384.303 708.386 393.783 707.244 403.929 706.615 413.772 706.509 415.436 709.01 415.382 709.179 413.773Z" fill="#F79BB4" fill-rule="evenodd"/><path d="M726.281 414.645C727.382 399.325 727.423 383.505 724.944 368.312 722.937 356.037 717.432 342.815 705.497 336.958 693.622 331.134 679.538 334.5 669.244 341.916 658.795 349.44 650.912 360.462 645.806 372.091 640.052 385.219 637.653 399.879 639.747 414.087 639.876 414.953 641.368 414.753 641.314 413.873 639.794 389.937 647.488 365.287 665.455 348.521 674.742 339.852 687.941 333.927 700.761 337.978 713.541 342.016 719.674 355.125 721.91 367.212 724.775 382.672 724.511 399.033 723.424 414.645 723.295 416.458 726.152 416.445 726.281 414.645Z" fill="#F79BB4" fill-rule="evenodd"/><path d="M588.105 207.405C591.758 198.843 597.417 191.755 605.413 186.877 606.469 186.234 606.002 184.65 604.794 184.601 593.461 184.127 584.429 173.368 585.624 162.161 585.715 160.583 583.367 160.644 583.203 162.161 582.506 174.406 572.362 184.946 560.156 186.118 558.627 186.264 558.602 188.399 560.156 188.515 571.009 189.322 584.022 193.739 584.769 206.524 584.805 207.168 585.528 207.301 585.861 206.931 585.957 207.934 587.644 208.498 588.105 207.405Z" fill="#0F519F" fill-rule="evenodd"/><path d="M794.146 242.81C795.041 246.505 796.764 250.053 798.785 252.776 802.339 257.565 808.6 262.273 814.907 261.923 815.022 261.956 815.152 261.977 815.294 261.983 826.845 262.164 841.964 261.078 847.356 248.973 852.09 238.343 845.972 225.855 837.019 219.518 827.259 212.61 812.893 212.134 802.678 218.397 793.793 223.844 791.236 233.662 794.146 242.81ZM825.49 246.345C821.325 250.329 814.691 247.927 812.209 243.327 811.11 241.288 810.628 237.854 811.245 234.958 815.159 224.608 834.246 237.981 825.49 246.345Z" fill="#29A6D1" fill-rule="evenodd"/><path d="M687.642 443.861C687.424 443.654 686.979 443.734 687.001 444.101 687.479 452.448 691.522 461.73 696.796 468.691 697.022 469.037 697.246 469.384 697.479 469.732 698.36 471.006 698.92 471.827 700.464 471.974 702.677 472.188 705.696 471.026 707.875 470.593 710.512 470.06 713.168 469.579 715.792 468.979 717.076 468.692 718.374 468.571 718.844 467.237 719.384 465.716 718.366 463.413 718.1 461.953 717.587 459.077 717.178 456.181 716.891 453.279 716.632 450.69 716.461 448.094 716.365 445.498 716.317 444.197 716.645 442.128 715.799 440.941 714.883 439.647 713.483 440.027 712.042 440.14 709.713 440.32 707.377 440.727 705.068 441.047 699.303 441.828 693.559 442.642 687.855 443.769 687.773 443.787 687.703 443.82 687.642 443.861ZM688.38 445.161C688.435 445.588 688.496 446.009 688.564 446.429 688.427 446.016 688.284 445.601 688.147 445.188 688.223 445.181 688.304 445.168 688.38 445.161Z" fill="#F84630" fill-rule="evenodd"/><path d="M578.258 352.479C574.125 349.518 569.292 349.992 564.546 350.843 561.618 351.371 558.434 352.202 555.472 351.431 552.04 350.545 550.283 347.625 549.602 344.339 547.987 336.464 551.446 324.89 542.784 319.942 538.651 317.583 534.537 320.037 531.61 323.092 527.37 327.514 524.132 332.962 519.164 336.667 513.879 340.601 506.839 341.913 501.784 336.944 498.566 333.787 496.581 329.609 493.498 326.33 484.142 316.372 473.561 326.945 466.62 334.199 456.483 344.799 447.611 356.548 440.127 369.176 439.723 369.853 440.362 370.474 440.961 370.42 441.197 370.65 441.507 370.806 441.924 370.819 471.763 371.914 501.63 372.259 531.489 371.806 546.19 371.576 560.898 371.197 575.592 370.569 580.419 370.366 583.939 368.94 583.999 363.457 584.047 359.132 581.731 354.967 578.258 352.479Z" fill="#29A6D1" fill-rule="evenodd"/><path d="M637.719 266.534C635.544 265.884 631.455 265.502 629.735 263.992 625.767 260.505 631.08 253.526 632.78 250.038 634.607 246.296 636.487 242.394 637.123 238.237 638.1 231.92 635.684 225.677 630.07 222.392 624.67 219.227 617.985 219.334 612.403 221.942 608.924 223.565 605.899 226.047 603.356 228.916 600.405 232.255 598.571 237.19 595.239 240.061 588.172 246.136 576.328 237.686 568.09 237.78 562.395 237.847 555.992 239.725 552.812 244.821 549.366 250.34 551.193 256.904 555.282 261.504 557.819 264.368 561.024 266.306 564.51 267.794 568.772 269.625 575.519 270.255 579.145 273.138 581.005 274.62 580.831 272.998 580.638 276.202 580.49 278.516 580.069 278.67 578.463 280.038 576.635 281.587 574.682 282.988 572.721 284.37 569.71 286.495 566.631 288.534 563.767 290.854 558.213 295.347 553.502 301.133 552.732 308.483 551.072 324.195 565.874 336.72 580.958 331.987 588.667 329.566 593.391 323.725 595.967 316.276 597.607 311.548 598.517 306.304 601.568 302.275 608.079 298.157 617.595 299.425 624.421 303.442 631.628 307.68 636.499 315.686 644.517 318.529 658.851 323.612 670.963 308.29 668.734 294.939 667.382 286.852 662.37 279.904 655.893 275.083 652.407 272.488 648.565 270.537 644.55 268.914 642.309 268.009 640.027 267.231 637.719 266.534Z" fill="#2CBF8C" fill-rule="evenodd"/><path d="M664.243 276.34C661.552 269.328 656.045 263.742 649.504 260.182 641.668 255.918 620.473 255.804 627.223 242.637 629.053 239.067 631.605 236.351 632.715 232.375 633.727 228.751 633.84 224.86 633.032 221.189 631.501 214.237 626.363 209.816 619.279 209.11 611.895 208.373 604.164 211.399 598.879 216.519 595.85 219.453 594.101 223.504 591.003 226.327 585.919 230.96 578.785 229.871 572.628 228.642 565.59 227.237 557.251 225.323 551.151 230.38 546.553 234.191 544.694 240.88 546.973 246.44 549.755 253.227 557.001 256.635 563.636 258.551 567.914 259.786 576.331 261.555 571.977 268.827 570.837 270.729 567.943 272.603 566.298 274.084 562.251 277.726 557.706 280.837 553.757 284.57 552.398 285.855 551.269 287.239 550.336 288.683 549.603 289.543 548.99 290.521 548.517 291.561 548.473 291.64 548.419 291.717 548.379 291.797 548.126 292.298 547.885 292.869 547.802 293.433 547.321 293.277 546.774 293.419 546.664 294.058 544.379 307.363 553.497 321.545 567.459 322.892 574.365 323.559 581.445 321.096 586.574 316.459 592.496 311.104 593.362 303.44 597.271 296.872 605.136 283.656 618.595 294.183 626.642 301.181 632.397 306.187 638.9 310.502 646.887 309.378 662.553 307.171 669.555 290.178 664.243 276.34ZM653.887 304.405C636.091 314.797 626.763 292.082 611.503 288.296 605.732 286.864 600.067 288.5 596.384 293.24 591.773 299.177 591.284 307.341 586.194 313 580.036 319.851 569.382 322.359 560.942 318.57 553.091 315.046 548.359 307.039 548.246 298.676 549.059 289.928 556.168 284.984 562.755 279.673 565.877 277.155 568.871 274.471 571.823 271.758 573.471 270.244 575.218 268.738 575.503 266.389 576.093 261.523 571.306 258.696 567.354 257.451 559.598 255.007 548.433 252.168 547.837 242.14 547.576 237.76 549.836 232.932 553.744 230.754 558.617 228.039 564.356 228.952 569.548 230.036 575.537 231.286 582.235 233.034 588.171 230.567 594.233 228.049 596.293 221.55 600.974 217.444 608.065 211.224 623.087 207.052 629.156 216.996 631.663 221.106 631.837 226.419 630.813 230.991 629.833 235.364 627.078 238.442 624.934 242.213 616.832 256.464 639.249 257.652 646.982 261.376 654.707 265.096 660.928 271.736 663.096 280.126 665.474 289.324 662.299 299.494 653.887 304.405Z" fill-rule="evenodd"/><path d="M744.138 480.271C753.922 482.451 763.968 482.513 773.828 480.775 782.968 479.16 792.34 476.216 799.8 470.552 813.564 460.111 819.093 442.323 818.999 425.678 818.931 413.536 816.3 401.462 813.076 389.809 812.869 389.082 811.783 388.672 811.252 389.331 787.929 418.113 764.937 447.087 743.108 477.017 742.808 477.427 743.189 477.812 743.595 477.812L743.752 477.955C742.963 478.563 742.894 479.998 744.138 480.271Z" fill="#2CBF8C" fill-rule="evenodd"/><path d="M746.029 474.469C744.797 475.74 743.73 477.142 742.448 478.377 741.171 479.607 739.756 480.654 738.415 481.807 737.265 482.795 738.738 484.544 740.021 483.835 743.192 482.084 746.514 479.311 748.7 476.477 749.868 474.963 747.337 473.119 746.029 474.469Z" fill-rule="evenodd"/><path d="M759.203 476.529C757.938 478.13 757.261 480.104 756.426 481.953 755.597 483.787 754.747 485.613 754.074 487.509 753.591 488.872 755.595 489.554 756.334 488.45 757.462 486.763 758.421 484.976 759.404 483.204 760.315 481.562 761.47 479.93 761.953 478.11 762.336 476.664 760.266 475.182 759.203 476.529Z" fill-rule="evenodd"/><path d="M771.004 478.714C771.208 481.833 771.063 485.277 771.951 488.309 772.22 489.23 773.78 489.231 774.049 488.309 774.938 485.275 774.792 481.833 774.996 478.714 775.147 476.431 770.855 476.426 771.004 478.714Z" fill-rule="evenodd"/><path d="M790.505 471.067C789.823 469.611 786.745 469.548 787.017 471.485 787.289 473.418 787.974 475.27 788.296 477.201 788.673 479.459 788.589 481.745 788.924 483.999 789.083 485.074 790.785 485.457 791.182 484.269 792.462 480.443 792.242 474.775 790.505 471.067Z" fill-rule="evenodd"/><path d="M784.138 515.271C793.922 517.451 803.968 517.513 813.828 515.775 822.968 514.16 832.34 511.216 839.8 505.552 853.564 495.111 859.093 477.323 858.999 460.678 858.931 448.536 856.3 436.462 853.076 424.81 852.869 424.083 851.783 423.673 851.252 424.331 827.929 453.112 804.937 482.087 783.108 512.016 782.808 512.426 783.189 512.811 783.595 512.811L783.752 512.953C782.963 513.564 782.894 514.998 784.138 515.271Z" fill="#29A6D1" fill-rule="evenodd"/><path d="M786.379 510.405C784.952 511.695 783.701 513.164 782.322 514.503 780.941 515.841 779.471 517.1 778.203 518.541 777.618 519.206 778.398 520.435 779.248 519.844 780.816 518.753 782.233 517.481 783.696 516.268 785.27 514.964 786.99 513.813 788.524 512.467 789.966 511.203 787.802 509.117 786.379 510.405Z" fill-rule="evenodd"/><path d="M795.94 511.867C795.794 516.362 794.05 520.727 794 525.212 793.992 526.014 795.127 526.298 795.539 525.617 797.958 521.625 798.407 516.722 799.888 512.386 800.782 509.768 796.036 508.899 795.94 511.867Z" fill-rule="evenodd"/><path d="M815.472 510.715C815.204 508.057 811.404 508.699 812.08 511.196 813.22 515.407 813.214 519.654 813.518 523.971 813.595 525.076 815.225 525.47 815.476 524.248 816.39 519.788 815.923 515.199 815.472 510.715Z" fill-rule="evenodd"/><path d="M828.819 512.952C828.378 510.754 828.181 508.48 827.631 506.313 827.129 504.332 823.792 504.669 824.01 506.81 824.438 510.991 825.931 515.868 828.029 519.508 828.517 520.354 830.128 520.067 829.992 518.969 829.74 516.937 829.222 514.957 828.819 512.952Z" fill-rule="evenodd"/><path d="M664.016 480.138C673.532 472.273 674.421 462.147 667.328 452.075 660.241 442.002 648.504 436.466 636.538 434.781 625.299 433.205 611.819 433.687 601.629 439.297 592.671 444.223 588.398 453.832 592.664 463.455 597.76 474.944 609.907 479.801 618.4 488.19 626.159 495.847 625.581 504.174 623.562 514.166 622.197 520.917 621.348 527.493 624.073 534.029 625.844 538.277 628.663 541.921 632.129 544.719 632.122 545.457 632.459 546.195 633.274 546.692 641.39 551.704 659.373 557.294 666.674 548.001 673.398 539.438 668.148 523.716 663.35 515.482 661.768 512.778 659.897 510.235 657.791 507.919 655.267 505.14 651.154 502.531 650.064 498.766 647.588 490.203 658.659 484.566 664.016 480.138Z" fill="#2CBF8C" fill-rule="evenodd"/><path d="M619.508 452.757C614.509 446.469 608.191 440.98 602.51 435.315 597.255 430.072 592.114 424.383 586.036 420.106 585.483 419.716 584.722 420.49 585.103 421.049 589.301 427.217 594.882 432.473 599.979 437.875 605.497 443.724 610.751 450.223 616.829 455.466 618.71 457.09 621.028 454.668 619.508 452.757Z" fill-rule="evenodd"/><path d="M626.327 448.624C613.953 438.164 606.781 422.46 593.433 413.177 592.458 412.5 591.556 413.929 592.239 414.734 602.551 426.897 611.251 441.139 623.474 451.492 625.448 453.166 628.317 450.307 626.327 448.624Z" fill-rule="evenodd"/><path d="M634.626 445.952C625.382 432.388 614.657 417.652 601.854 407.24 601.007 406.551 599.447 407.46 600.199 408.515 604.742 414.893 610.176 420.683 615.08 426.79 620.632 433.705 625.815 440.876 630.986 448.075 632.544 450.244 636.168 448.213 634.626 445.952Z" fill-rule="evenodd"/><path d="M638.458 534.786C632.905 532.018 623.607 537.151 619.849 541.036 614.164 546.915 612.219 558.953 621.033 563.103 629.034 566.87 637.862 557.942 641.609 551.704 644.787 546.414 645.739 535.728 638.458 534.786ZM622.663 558.897C611.766 552.384 628.4 534.749 637.922 537.747 646.473 543.299 631.49 564.174 622.663 558.897Z" fill-rule="evenodd"/><path d="M663.757 547.604C660.618 543.437 652.32 541.906 650.868 548.404 648.62 552.519 648.643 559.28 649.668 562.605 651.485 568.502 659.026 572.946 663.937 567.605 668.495 562.647 667.572 552.666 663.757 547.604ZM660.752 564.829C656.063 568.717 652.936 561.701 652.839 557.749 652.772 555.015 652.982 550.541 654.861 548.056 657.653 546.429 661.032 549.71 662.137 552.765 663.388 556.222 663.851 562.259 660.752 564.829Z" fill-rule="evenodd"/><path d="M507.689 518.875C523.411 530.664 543.197 536.4 562.639 534.605 570.021 535.372 577.66 535.19 584.182 532.54 591.827 529.44 597.729 520.959 593.69 512.809 589.229 503.797 578.373 502.607 569.456 502.681 557.053 502.782 544.65 503.037 532.253 503.226 534.851 494.967 545.854 493.816 553.365 493.918 561.61 494.032 572.041 494.57 577.425 486.97 582.001 480.508 577.566 474.045 571.12 471.443 561.993 467.764 551.32 468.214 541.696 468.625 531.447 469.055 520.41 470.179 510.442 467.098 508.604 466.533 506.518 465.739 506.949 463.177 507.15 461.966 508.234 460.783 509.082 459.956 510.832 458.247 513.296 457.158 515.536 456.243 519.802 454.5 524.346 453.539 528.882 452.819 537.644 451.428 546.702 451.004 555.115 447.964 560.754 445.919 570.029 441.528 567.034 433.955 563.864 425.939 553.358 425.38 546.164 425.845 536.884 426.436 525.685 428.837 517.622 423.04L531.513 411.674C533.876 409.738 536.244 407.8 538.606 405.864 540.625 404.216 542.961 402.609 544.401 400.383 549.031 393.193 541.177 387.296 534.81 385.769 526.129 383.684 515.826 386.139 507.804 389.542 498.692 393.416 490.676 399.637 484.834 407.639 472.337 424.775 470.742 448.084 475.405 468.206 480.009 488.087 491.289 506.568 507.689 518.875Z" fill="#FACC43" fill-rule="evenodd"/><path d="M585.999 518.003C586.136 508.194 576.314 503.363 567.876 501.934 562.318 500.993 556.695 501.087 551.084 501.352 547.845 501.505 544.61 501.74 541.368 501.85 537.895 501.969 531.645 502.736 528.391 501.336 527.76 501.222 527.128 501.108 526.496 500.993 526.631 499.821 526.766 498.649 526.9 497.478 527.574 496.643 531.766 496.171 532.827 495.924 536.063 495.168 539.328 494.567 542.619 494.104 548.286 493.308 554.725 493.705 560.068 491.359 568.29 487.75 570.271 478.099 562.897 472.381 554.245 465.672 539.148 466.997 528.935 467.056 522.665 467.092 516.386 467.208 510.13 466.697 507.216 466.459 502.51 466.716 499.931 465.162 492.716 460.813 501.922 458.866 505.137 458.064 512 456.355 518.868 454.661 525.742 452.998 531.919 451.503 538.453 450.453 544.438 448.284 551.361 445.776 559.128 438.362 554.581 430.442 549.477 421.552 534.466 423.12 525.979 423.067 523.084 423.049 516.726 423.916 514.355 422.373 510.922 420.137 515.916 416.888 517.817 415.344 521.961 411.977 526.784 409.402 530.09 405.106 534.708 399.103 535.944 390.412 528.879 385.703 521.342 380.681 509.878 381.496 501.595 383.872 481.014 389.775 467.348 407.867 462.597 428.084 457.675 449.029 459.108 476.831 472.482 494.561 487.519 514.493 513.256 527.368 537.308 532.254 548.901 534.609 562.106 536.175 573.825 533.87 582.65 532.133 585.804 526.301 585.463 519.241 585.778 518.961 585.991 518.55 585.999 518.003ZM576.757 528.948C571.865 531.279 565.52 531.084 560.203 531.108 549.903 531.155 539.674 529.724 529.757 526.96 509.346 521.272 487.097 509.38 474.548 491.798 461.996 474.212 461.03 446.675 466.543 426.425 472.018 406.311 487.943 388.159 509.701 386.036 514.281 385.59 519.204 385.823 523.585 387.33 531.603 390.087 531.352 397.861 526.392 403.566 521.836 408.806 510.204 412.94 508.781 420.513 507.257 428.62 523.856 426.774 528.013 426.778 533.864 426.784 540.096 426.534 545.722 428.393 556.288 431.886 551.359 441.768 543.446 444.691 532.937 448.574 521.184 450.202 510.306 452.873 505.516 454.049 491.289 455.209 492.193 463.107 493.046 470.561 506.862 470.299 512.096 470.621 523.631 471.329 535.23 470.171 546.743 471.398 552.56 472.017 571.358 476.249 561.736 485.891 557.092 490.545 548.149 489.57 542.118 490.41 537.603 491.04 518.221 492.241 520.196 500.539 521.108 504.373 526.188 504.813 529.302 505.202 535.247 505.947 541.239 505.609 547.2 505.277 555.962 504.79 576.793 503.046 581.532 513.303 582.58 519.206 583.089 525.931 576.757 528.948Z" fill-rule="evenodd"/><path d="M668.155 224.977C672.653 224.763 677.224 223.085 680.447 219.884 685.347 215.026 686.12 207.455 689.408 201.648 691.953 197.151 694.994 192.132 701.049 194.017 704.91 195.22 707.38 199.076 710.099 201.802 714.174 205.886 719.068 208.98 725.083 207.77 736.381 205.492 739.643 195.053 739.986 184.895 741.839 176.288 741.96 166.465 733.233 161.646 723.217 156.119 717.51 168.048 708.884 169.813 702.688 171.082 696.948 160.043 693.745 155.913 690.402 151.603 686.878 147.367 682.447 144.112 673.693 137.663 662.589 137.283 653.419 143.156 632.507 156.555 630.426 187.248 642.02 207.316 647.417 216.651 656.574 225.518 668.155 224.977Z" fill="#FACC43" fill-rule="evenodd"/><path d="M649.101 158.921C648.616 158.31 647.793 158.123 647.104 158.283 644.211 156.163 639.771 154.996 637.046 155 630.808 155.008 624.367 160.536 626.373 166.971 628.29 173.119 637.362 174.986 643.015 173.533 649.614 171.835 653.559 164.551 649.101 158.921ZM642.276 169.083C639.386 170.033 635.048 169.53 632.587 167.74 627.917 164.346 632.822 159.487 637.046 159.286 639.553 159.168 644.439 160.095 646.5 162.386 646.76 165.288 645.518 168.017 642.276 169.083Z" fill-rule="evenodd"/><path d="M652.1 184.921C651.616 184.31 650.792 184.123 650.103 184.283 647.211 182.163 642.77 180.996 640.045 181 633.808 181.008 627.367 186.536 629.373 192.971 631.29 199.119 640.362 200.986 646.014 199.533 652.614 197.835 656.559 190.55 652.1 184.921ZM645.275 195.083C642.386 196.033 638.048 195.53 635.587 193.74 630.917 190.346 635.822 185.487 640.045 185.286 642.553 185.168 647.438 186.095 649.499 188.386 649.76 191.288 648.518 194.017 645.275 195.083Z" fill-rule="evenodd"/><path d="M677.101 171.128C676.616 170.484 675.793 170.288 675.104 170.455 672.212 168.224 667.771 166.996 665.046 167 658.808 167.008 652.367 172.828 654.373 179.601 656.29 186.073 665.362 188.038 671.015 186.508 677.614 184.722 681.559 177.054 677.101 171.128ZM670.276 181.825C667.386 182.825 663.048 182.296 660.587 180.412 655.917 176.838 660.822 171.724 665.046 171.513 667.553 171.388 672.439 172.364 674.5 174.776 674.76 177.831 673.518 180.703 670.276 181.825Z" fill-rule="evenodd"/><path d="M763.197 193.879C757.947 191.109 752.183 195.351 750.098 200.147 749.642 201.193 750.876 202.421 751.788 201.458 754.165 198.952 757.486 195.187 761.378 197.01 765.47 198.926 763.763 203.15 763.641 206.506 763.595 207.771 765.326 208.526 766.186 207.565 769.743 203.59 767.711 196.26 763.197 193.879Z" fill-rule="evenodd"/><path d="M785.197 204.879C779.947 202.109 774.183 206.351 772.098 211.146 771.642 212.193 772.876 213.421 773.788 212.458 776.165 209.952 779.485 206.187 783.378 208.01 787.47 209.926 785.763 214.15 785.641 217.506 785.595 218.771 787.324 219.526 788.185 218.565 791.743 214.59 789.711 207.261 785.197 204.879Z" fill-rule="evenodd"/><path d="M781.197 186.879C775.947 184.109 770.183 188.351 768.098 193.146 767.642 194.193 768.876 195.421 769.788 194.458 772.165 191.952 775.486 188.187 779.378 190.01 783.47 191.926 781.763 196.15 781.641 199.506 781.595 200.771 783.326 201.526 784.186 200.565 787.743 196.59 785.711 189.26 781.197 186.879Z" fill-rule="evenodd"/><path d="M860.285 266.038C859.303 266.071 858.287 266.174 857.258 266.32 856.946 265.133 856.622 263.953 856.287 262.798 855.941 261.606 854.051 261.784 854.107 263.1 854.159 264.328 854.226 265.584 854.311 266.845 852.415 267.244 850.538 267.738 848.808 268.218 847.57 268.562 847.821 270.499 849.11 270.502 850.863 270.506 852.752 270.485 854.638 270.375 854.776 271.507 854.939 272.629 855.169 273.719 855.582 275.681 858.895 275.286 858.653 273.238 858.527 272.176 858.34 271.109 858.126 270.043 859.028 269.918 859.911 269.764 860.753 269.564 862.671 269.106 862.269 265.97 860.285 266.038Z" fill-rule="evenodd"/><path d="M850.285 280.038C849.303 280.071 848.286 280.174 847.257 280.32 846.946 279.133 846.622 277.953 846.286 276.798 845.94 275.606 844.05 275.784 844.106 277.1 844.159 278.328 844.226 279.585 844.31 280.845 842.415 281.244 840.538 281.738 838.808 282.218 837.57 282.562 837.821 284.499 839.11 284.502 840.863 284.506 842.752 284.485 844.638 284.375 844.776 285.507 844.938 286.629 845.168 287.719 845.582 289.681 848.895 289.286 848.653 287.238 848.527 286.176 848.339 285.109 848.126 284.043 849.028 283.918 849.91 283.763 850.752 283.564 852.671 283.106 852.268 279.97 850.285 280.038Z" fill-rule="evenodd"/><path d="M872.285 283.038C871.303 283.071 870.287 283.174 869.258 283.32 868.946 282.133 868.622 280.953 868.287 279.798 867.941 278.606 866.051 278.784 866.107 280.1 866.159 281.328 866.226 282.585 866.311 283.845 864.415 284.244 862.538 284.738 860.808 285.218 859.57 285.561 859.821 287.499 861.11 287.502 862.863 287.506 864.752 287.485 866.638 287.375 866.776 288.507 866.939 289.629 867.169 290.719 867.582 292.681 870.895 292.286 870.653 290.238 870.527 289.176 870.339 288.109 870.126 287.043 871.028 286.918 871.91 286.763 872.753 286.564 874.671 286.106 874.269 282.97 872.285 283.038Z" fill-rule="evenodd"/><path d="M758.193 349.227C767.904 362.67 785.685 368.636 801.826 367.947 820.471 367.149 838.926 357.79 846.303 340.023 853.3 323.181 846.026 305.468 832.057 294.722 824.54 288.935 815.949 286.173 806.866 283.806 797.19 281.292 785.948 278.201 780.515 268.996 774.969 259.596 780.319 248.312 777.647 238.263 775.784 231.276 770.575 225.9 764.293 222.521 748.934 214.241 729.372 216.292 713.521 222.005 696.522 228.12 678.329 240.609 671.319 257.806 668.052 265.805 667.951 275.539 672.864 282.928 677.534 289.947 685.739 292.777 693.864 293.299 704.91 294.01 715.795 290.316 726.849 291.589 732.456 292.233 737.808 294.324 742.464 297.456 742.565 297.563 742.693 297.663 742.856 297.73 742.869 297.737 742.883 297.744 742.896 297.75 745.251 299.379 747.417 301.27 749.34 303.382 752.721 308.974 752.639 316.791 752.336 323.16 751.891 332.566 752.505 341.356 758.193 349.227ZM703.608 268.754C698.318 262.8 700.457 253.99 705.457 248.613 710.221 243.49 717.259 240.474 723.96 238.825 737.389 235.526 754.367 239.535 758.888 254.185 761 261.004 757.688 267.554 758.146 274.405 758.497 279.675 761.48 283.946 765.576 287.13 770.34 290.825 776.063 293.058 781.541 295.477 788.688 298.642 795.84 301.78 802.98 304.971 813.487 309.665 829.17 317.622 827.799 331.34 827.05 338.815 820.802 344.768 814.087 347.471 810.092 349.08 805.861 349.736 801.583 349.884 792.096 348.591 783.241 342.49 778.849 334.015 775.461 327.485 775.886 320.231 774.954 313.15 774.185 307.351 772.113 301.941 768.679 297.18 761.358 287.017 749.872 281.103 737.854 278.22 731.619 276.718 725.283 276.27 718.973 275.257 713.542 274.385 707.414 273.031 703.608 268.754Z" fill="#F84630" fill-rule="evenodd"/><path d="M817.255 300.89C810.121 296.606 802.445 293.924 794.612 291.242 783.615 287.478 774.12 281.279 776.3 268.306 777.781 259.489 778.421 251.463 774.685 243.024 771.866 236.658 767.269 232.149 760.857 229.41 736.874 219.165 689.63 226.006 686.164 258.001 684.52 273.17 695.446 282.564 709.506 285.001 718.524 286.563 728.045 285.854 736.695 289.214 744.804 292.362 750.932 298.858 755.426 306.102 764.275 320.37 765.371 340.737 779.646 351.15 789.1 358.045 800.48 359.242 811.341 356.917 824.198 354.899 839.893 350.268 840.944 334.943 841.961 320.114 828.888 307.876 817.255 300.89ZM833.326 344.997C827.038 351.781 817.28 353.343 808.587 354.762 808.222 354.822 807.979 354.991 807.832 355.212 798.066 356.122 788.313 354.31 780.237 347.71 769.271 338.748 767.55 322.923 761.506 310.802 756.555 300.875 749.401 291.408 738.939 286.874 725.23 280.932 706.856 286.242 695.172 275.598 682.451 264.01 691.245 245.14 703.254 237.297 716.213 228.835 733.834 226.326 748.902 229.152 757.26 230.719 765.682 233.66 770.291 241.263 775.333 249.581 774.879 258.345 773.281 267.478 771.105 279.922 778.015 288.058 789.286 292.612 805.367 299.109 822.592 303.673 832.836 319.032 838.082 326.896 840.357 337.413 833.326 344.997Z" fill-rule="evenodd"/><path d="M890.753 327.104C888.807 315.593 876.844 311.503 866.734 309.043 865.688 308.789 864.802 309.694 865.039 310.704 867.771 322.37 870.003 334.102 871.931 345.92 871.957 346.084 872.073 346.174 872.209 346.208 872.315 346.644 872.659 347.008 873.274 347 884.119 346.856 892.573 337.869 890.753 327.104ZM873.273 344.739C873.06 344.754 872.887 344.82 872.735 344.91 872.094 333.906 870.516 322.978 868.177 312.2 875.105 313.996 882.734 316.489 886.349 322.913 891.945 332.858 884.201 343.991 873.273 344.739Z" fill-rule="evenodd"/><path d="M611.772 334.046C611.192 335.274 610.931 336.632 610.572 337.932 610.239 339.136 609.869 340.551 610.046 341.791 610.194 342.821 611.859 343.588 612.501 342.393 613.043 341.382 613.32 340.268 613.751 339.215 614.234 338.036 615.029 337.191 615.696 336.121 617.165 333.757 612.893 331.674 611.772 334.046Z" fill-rule="evenodd"/><path d="M619.142 341.596C618.078 342.629 617.43 344.068 616.718 345.319 616.033 346.524 615.252 347.9 615.023 349.245 614.758 350.803 616.823 351.692 617.875 350.328 618.671 349.295 619.232 348.104 619.986 347.04 620.765 345.942 621.883 345.12 622.661 344.042 624.042 342.125 620.874 339.916 619.142 341.596Z" fill-rule="evenodd"/><path d="M607.423 348.5C606.974 350.385 606.373 352.25 606.031 354.166 605.742 355.783 607.546 356.73 608.337 355.296 609.243 353.653 609.933 351.836 610.743 350.127 612.025 347.429 608.13 345.54 607.423 348.5Z" fill-rule="evenodd"/><path d="M603.346 338.947C602.682 340.02 602.496 341.373 602.119 342.572 601.737 343.787 601.287 345.002 601.032 346.249 600.722 347.754 602.764 348.722 603.626 347.32 604.292 346.236 604.792 345.046 605.344 343.904 605.883 342.786 606.712 341.647 606.957 340.437 607.38 338.341 604.553 336.996 603.346 338.947Z" fill-rule="evenodd"/><path d="M598.619 354.543C597.348 355.612 596.671 357.631 596.326 359.171 595.999 360.635 595.637 362.468 596.77 363.666 597.189 364.109 598.077 364.113 598.494 363.666 599.37 362.728 599.316 361.454 599.726 360.297 600.193 358.98 601.198 358.064 601.786 356.847 602.719 354.913 600.401 353.047 598.619 354.543Z" fill-rule="evenodd"/><path d="M613.818 356.507C612.75 357.674 612.405 359.225 611.821 360.665 611.217 362.16 610.486 363.658 610.059 365.21 609.608 366.853 611.844 367.666 612.767 366.33 613.691 364.994 614.373 363.467 615.135 362.036 615.89 360.618 616.775 359.395 616.987 357.794 617.196 356.216 614.825 355.407 613.818 356.507Z" fill-rule="evenodd"/><path d="M603.685 362.643C601.843 365.039 600.869 369.49 601.014 372.554 601.096 374.268 603.251 374.532 603.79 372.949 604.274 371.528 604.558 370.052 605.115 368.65 605.658 367.279 606.529 366.054 606.929 364.633 607.453 362.777 604.939 361.014 603.685 362.643Z" fill-rule="evenodd"/><path d="M609.731 374.824C609.009 375.797 608.865 377.309 608.569 378.482 608.278 379.635 607.786 380.87 608.102 382.055 608.292 382.767 609.236 383.303 609.877 382.807 610.891 382.021 611.231 380.801 611.718 379.623 612.227 378.391 612.995 377.105 613 375.746 613.008 373.764 610.721 373.488 609.731 374.824Z" fill-rule="evenodd"/><path d="M599.828 380.982C598.845 383.244 598.824 386.558 599.314 388.989 599.643 390.624 601.653 390.114 601.765 388.615 601.844 387.546 601.884 386.51 602.1 385.457 602.311 384.425 602.763 383.49 602.96 382.47 603.353 380.443 600.727 378.918 599.828 380.982Z" fill-rule="evenodd"/><path d="M592.195 372.259C591.044 374.873 590.219 377.953 590.004 380.77 589.89 382.273 592.247 382.414 592.724 381.11 593.661 378.551 594.582 376.121 595.778 373.654 596.932 371.276 593.267 369.819 592.195 372.259Z" fill-rule="evenodd"/><path d="M510.544 301.987C507.201 298.892 499.523 299.276 498.137 304.104 497.115 305.691 496.711 307.725 497.219 309.496 498.619 314.39 504.651 316.475 509.237 313.872 513.742 311.317 514.233 305.403 510.544 301.987ZM507.476 310.414C505.328 311.96 502.502 311.392 501.214 309.17 500.483 307.91 500.531 306.393 501.197 305.247 502.95 304.021 504.985 302.883 507.15 304.215 509.436 305.622 509.63 308.863 507.476 310.414Z" fill-rule="evenodd"/><path d="M521.697 280.12C518.563 276.818 511.365 277.228 510.066 282.377 509.107 284.071 508.729 286.24 509.205 288.129 510.517 293.349 516.173 295.573 520.472 292.797 524.696 290.071 525.156 283.763 521.697 280.12ZM518.821 289.107C516.807 290.756 514.158 290.149 512.95 287.78 512.266 286.437 512.31 284.817 512.935 283.595 514.578 282.288 516.486 281.074 518.515 282.495 520.659 283.996 520.841 287.453 518.821 289.107Z" fill-rule="evenodd"/><path d="M530.697 297.12C527.563 293.818 520.365 294.228 519.066 299.377 518.107 301.071 517.729 303.24 518.205 305.129 519.517 310.349 525.173 312.573 529.472 309.797 533.696 307.072 534.156 300.764 530.697 297.12ZM527.821 306.108C525.807 307.757 523.158 307.151 521.95 304.781 521.266 303.438 521.31 301.819 521.935 300.596 523.578 299.288 525.486 298.075 527.515 299.496 529.659 300.997 529.841 304.454 527.821 306.108Z" fill-rule="evenodd"/><path d="M540.976 221.465C541.338 216.758 537.539 212.827 534.234 209.97 527.495 204.13 517.086 200.801 510.325 208.48 503.187 216.589 506.174 227.632 509.409 236.702 510.858 240.762 512.211 244.613 507.756 247.469 505.065 249.191 501.558 250.02 498.512 250.855 492.531 252.488 486.355 253.55 480.732 256.271 471.777 260.599 464.935 269.45 464.084 279.454 463.232 289.524 468.875 301.344 479.147 304.429 483.094 305.613 487.699 305.088 490.299 301.6 492.628 298.492 492.663 294.568 490.011 291.83 488.702 288.79 486.761 285.789 484.823 283.191 484.457 280.092 484.807 276.923 485.808 274.446 488.816 267.051 500.338 270.87 506.284 271.163 515.013 271.587 524.679 268.947 527.75 259.892 531.232 249.59 525.14 238.061 534.74 230.111 537.561 227.78 540.67 225.398 540.976 221.465Z" fill="#F84630" fill-rule="evenodd"/><path d="M534.952 229.104C528.109 231.525 526.585 239.003 526.933 245.537 527.24 251.29 528.744 258.092 524.332 262.746 520.369 266.927 514.294 267.966 508.818 268.236 501.985 268.574 489.726 266.178 485.627 273.505 481.903 280.162 485.049 289.061 490.252 293.8 490.862 294.356 491.853 293.653 491.417 292.901 489.199 289.078 487.695 284.589 488.033 280.116 488.595 272.687 495.339 272.744 501.155 272.681 508.341 272.603 515.727 272.996 522.32 269.601 527.869 266.744 531.295 261.837 531.778 255.573 532.367 247.919 528.386 237.381 536.247 232.176 537.748 231.183 536.844 228.434 534.952 229.104Z" fill-rule="evenodd"/></g></svg>