<svg width="233" height="244" xmlns="http://www.w3.org/2000/svg" xmlns:xlink="http://www.w3.org/1999/xlink" overflow="hidden"><g transform="translate(-533 -13)"><path d="M73.7268 22.9572C82.5716 18.7018 112.355-0.861398 112.355-0.861398 112.355-0.861398 186.838 129.107 187.448 140.399 188.46 159.148 139.079 181.151 137.505 182.038 122.908 190.271 88.3058 219.465 75.143 196.512 64.2267 177.472 53.0059 158.542 42.0712 139.102 29.7977 117.285 15.8912 94.4869 3.95076 72.5194-0.368585 64.5714-0.536964 62.211-0.536964 62.211-0.536964 62.211 58.4282 30.3171 73.7268 22.9572" fill="#F04359" fill-rule="evenodd" transform="matrix(1 0 0 -1 564 256)"/><path d="M71.6453 17.6132C79.9895 13.6071 106.386-0.868851 106.386-0.868851 106.386-0.868851 120.573 21.8623 124.519 28.1734 141.054 54.6226 154.717 83.096 170.185 110.061 175.617 119.53 182.594 129.159 183.43 140.336 184.819 158.892 138.196 179.525 136.714 180.367 122.971 188.175 90.6118 216.257 77.535 193.263 66.6885 174.196 55.5552 155.23 44.6827 135.767 32.4803 113.924-0.539226 58.2324-0.539226 58.2324-0.539226 58.2324 19.7649 46.8745 29.489 41.3199 43.4873 33.3248 57.2138 24.5432 71.6453 17.6132" fill="#FFFFFF" fill-rule="evenodd" transform="matrix(1 0 0 -1 568 250)"/><path d="M113.021-0.880248 197.453 152.481C197.453 152.481 140.361 183.266 138.789 184.153 124.21 192.376 84.5137 214.12 84.5137 214.12 84.5137 214.12 54.3931 160.683 43.471 141.266 31.2132 119.474-0.547324 62.3683-0.547324 62.3683-0.547324 62.3683 19.4978 51.9911 29.8151 46.1427 44.6661 37.7231 113.021-0.880248 113.021-0.880248" fill="#F04359" fill-rule="evenodd" transform="matrix(1 0 0 -1 567 249)"/><path d="M4.0058 73.2478 118.508 10.0725 116.308 6.10505 5.87348 68.3055 3.7343 64.6764 114.587 2.93004 112.652-0.75228-0.491948 62.8524 4.0058 73.2478" fill="#DD263C" fill-rule="evenodd" transform="matrix(1 0 0 -1 564 256)"/><path d="M-0.605327 1.72678 2.87638-0.690272 7.39478 6.42615 4.01743 8.30983-0.605327 1.72678" fill="#DD263C" fill-rule="evenodd" transform="matrix(1 0 0 -1 674 253)"/><path d="M16.2068 68.1986-0.515316 39.1045 69.5096-0.80148 86.4848 28.4838 16.2068 68.1986" fill="#DD263C" fill-rule="evenodd" transform="matrix(1 0 0 -1 599 222)"/><path d="M55.6234-0.81279-0.51798 30.644 0.340689 32.1873 56.482 0.729855 55.6234-0.81279" fill="#F04359" fill-rule="evenodd" transform="matrix(1 0 0 -1 617 196)"/><path d="M56.6059-0.79916-0.520478 30.6583 0.353257 32.2008 57.4796 0.74338 56.6059-0.79916" fill="#F04359" fill-rule="evenodd" transform="matrix(1 0 0 -1 612 204)"/><path d="M56.6118-0.786997-0.515162 30.6698 0.358678 32.213 57.4849 0.755543 56.6118-0.786997" fill="#F04359" fill-rule="evenodd" transform="matrix(1 0 0 -1 608 211)"/><path d="M90.2762 5.59484C100.851 5.28639 138.753-0.912765 138.753-0.912765 138.753-0.912765 155.142 159.864 150.794 171.259 143.574 190.181 85.3047 190.174 83.3661 190.359 65.3835 192.062 18.5143 205.639 15.6133 177.232 13.2075 153.679 10.4547 130.099 8.20541 106.141 5.6807 79.2531 1.97712 50.6816-0.153442 23.7913-0.923901 14.0635-0.0550628 11.6633-0.0550628 11.6633-0.0550628 11.6633 71.9862 6.12973 90.2762 5.59484" fill="#4DC3C2" fill-rule="evenodd" transform="matrix(1 0 0 -1 534 221)"/><path d="M88.7383 2.0172C98.7483 1.73813 131.206-0.924172 131.206-0.924172 131.206-0.924172 135.246 27.7817 136.374 35.7546 141.102 69.1671 142.1 103.314 145.546 136.766 146.756 148.513 149.423 161.099 145.339 172.51 138.56 191.446 83.398 191.275 81.5635 191.453 64.5456 193.105 20.2158 206.578 17.3875 178.104 15.042 154.491 12.3677 130.85 10.1694 106.834 7.70201 79.8791-0.475382 10.3172-0.475382 10.3172-0.475382 10.3172 24.5883 8.04985 36.6439 6.84997 53.9967 5.123 71.426 2.49976 88.7383 2.0172" fill="#FFFFFF" fill-rule="evenodd" transform="matrix(1 0 0 -1 537 216)"/><path d="M139.533-0.927972 155.524 186.955C155.524 186.955 85.5845 192.206 83.6418 192.391 65.6221 194.089 16.8449 198.072 16.8449 198.072 16.8449 198.072 10.579 132.301 8.32495 108.412 5.79513 81.6004-0.476096 11.4998-0.476096 11.4998-0.476096 11.4998 23.8902 10.0805 36.6545 8.85004 55.0283 7.07871 139.533-0.927972 139.533-0.927972" fill="#4DC3C2" fill-rule="evenodd" transform="matrix(1 0 0 -1 534 212)"/><path d="M-0.464667 24.2272 139.535 12.5277 139.097 7.62904 3.51894 20.1688 2.99416 15.6308 138.786 3.72636 138.485-0.772884-0.366257 11.9539-0.464667 24.2272" fill="#329291" fill-rule="evenodd" transform="matrix(1 0 0 -1 534 221)"/><path d="M-0.52576 0.206715 3.51582-0.724156 4.47434 7.81111 0.746022 8.27594-0.52576 0.206715" fill="#329291" fill-rule="evenodd" transform="matrix(1 0 0 -1 669 218)"/><path d="M3.3126 44.1572-0.473982 7.72336 86.5733-0.842813 90.526 35.8948 3.3126 44.1572" fill="#329291" fill-rule="evenodd" transform="matrix(1 0 0 -1 564 191)"/><path d="M69.3528-0.829532-0.473995 5.312-0.300837 7.17047 69.526 1.02966 69.3528-0.829532" fill="#4DC3C2" fill-rule="evenodd" transform="matrix(1 0 0 -1 574 163)"/><path d="M68.3641-0.812709-0.465352 5.3281-0.293939 7.18729 68.5348 1.04576 68.3641-0.812709" fill="#4DC3C2" fill-rule="evenodd" transform="matrix(1 0 0 -1 573 173)"/><path d="M69.3558-0.798041-0.471045 5.34349-0.297885 7.20196 69.5291 1.06053 69.3558-0.798041" fill="#4DC3C2" fill-rule="evenodd" transform="matrix(1 0 0 -1 572 182)"/></g></svg>