<svg width="152" height="198" xmlns="http://www.w3.org/2000/svg" xmlns:xlink="http://www.w3.org/1999/xlink" overflow="hidden"><defs><clipPath id="clip0"><rect x="491" y="517" width="152" height="198"/></clipPath></defs><g clip-path="url(#clip0)" transform="translate(-491 -517)"><path d="M-0.344211 25.5308C-0.344211 25.5308 1.63593 27.294 3.63967 22.204L11.6558 2.03513 6.25659-0.173825-0.344211 25.5308" fill="#D23153" fill-rule="evenodd" transform="matrix(1 0 0 -1 504 559)"/><path d="M5.33154-0.172891 0.0749935 11.8397C0.0749935 11.8397-1.10479 14.0739 0.500795 16.8527L12.9625 29.8271 21.6573 6.4224 5.33154-0.172891" fill="#F14C74" fill-rule="evenodd" transform="matrix(1 0 0 -1 491 563)"/><path d="M43.6367-0.123167 36.7079 16.5277 33.3384 17.6831C33.3384 17.6831 21.4014 15.1956 16.3168 28.1079L9.85204 43.6315 5.68389 43.8768-0.363293 22.3766 25.8103 1.099 43.6367-0.123167" fill="#100F0D" fill-rule="evenodd" transform="matrix(1 0 0 -1 507 599)"/><path d="M22.092 115 57.1131 23.7832C57.1131 23.7832 60.2796 13.4789 50.4069 9.34796 40.5336 5.20999 46.7758 7.82085 46.7758 7.82085L35.5966 3.13776C35.5966 3.13776 20.589-6.72622 14.1355 8.5641L-0.403445 125.007 22.092 115" fill="#D23153" fill-rule="evenodd" transform="matrix(1 0 0 -1 529 714)"/><path d="M6.96165-0.106717 54.6485 20.0273 48.0343 35.8249C48.0343 35.8249 35.0455 30.9214 29.5928 42.5618L20.3407 61.8934 2.15061 54.2131 10.2126 34.9602C10.2126 34.9602 15.7437 24.5149-0.351566 15.9761L6.96165-0.106717" fill="#242527" fill-rule="evenodd" transform="matrix(1 0 0 -1 492 617)"/><path d="M47.2815 115.013 82.1387 23.7888C82.1387 23.7888 85.2912 13.4882 75.464 9.35011 65.6368 5.212 71.8498 7.82977 71.8498 7.82977L60.7236 3.14629C60.7236 3.14629 45.7863-6.72553 39.3622 8.57309L-0.379813 94.9474 47.2815 115.013" fill="#F14C74" fill-rule="evenodd" transform="matrix(1 0 0 -1 500 712)"/><path d="M33.0428 103.007 65.9108 18.771C65.9108 18.771 69.0466 9.32057 62.1556 6.41505 55.2646 3.50745 59.6217 5.34607 59.6217 5.34607L51.8195 2.05004C51.8195 2.05004 41.6307-5.56281 35.6942 8.60509L-0.377306 88.9034 33.0428 103.007" fill="#D23153" fill-rule="evenodd" transform="matrix(1 0 0 -1 507 703)"/><path d="M1.1957 26.7088C1.1957 26.7088 3.28921 27.8106 3.53765 22.2685L4.58477 0.285516-0.415316-0.20203 1.1957 26.7088" fill="#F58414" fill-rule="evenodd" transform="matrix(1 0 0 -1 612 545)"/><path d="M0.648651-0.199918-0.440698 12.6525C-0.440698 12.6525-0.826374 15.1028 1.48936 17.2471L16.8206 25.8001 17.5352 1.21386 0.648651-0.199918" fill="#F4C10D" fill-rule="evenodd" transform="matrix(1 0 0 -1 596 544)"/><path d="M34.5156-0.136057 33.0136 17.631 30.1595 19.7533C30.1595 19.7533 18.0362 21.0954 17.1463 34.7841L15.7417 51.3495 11.8493 52.8639-0.484441 34.5411 17.9197 6.5023 34.5156-0.136057" fill="#100F0D" fill-rule="evenodd" transform="matrix(1 0 0 -1 603 595)"/><path d="M40.4272 111.502 45.5092 13.6804C45.5092 13.6804 45.3269 2.8754 34.5584 1.97964 23.7906 1.07726 30.5981 1.64476 30.5981 1.64476L18.4063 0.6329C18.4063 0.6329 0.919237-4.15296-0.490881 12.4321L21.9698 127.992 40.4272 111.502" fill="#F58414" fill-rule="evenodd" transform="matrix(1 0 0 -1 597 707)"/><path d="M1.55331-0.133988 53.5277 4.16119 52.0832 20.982C52.0832 20.982 38.1073 20.3566 36.4882 32.928L33.6109 53.866 13.7853 52.2272 15.5458 31.7266C15.5458 31.7266 17.6106 20.2508-0.472384 17.1686L1.55331-0.133988" fill="#242527" fill-rule="evenodd" transform="matrix(1 0 0 -1 581 596)"/><path d="M51.4685 112.001 56.5232 13.7492C56.5232 13.7492 56.342 2.89543 45.6319 1.99573 34.9212 1.09634 41.6928 1.66602 41.6928 1.66602L29.5658 0.642959C29.5658 0.642959 12.1727-4.15688 10.7701 12.4955L-0.476758 107.624 51.4685 112.001" fill="#F4C10D" fill-rule="evenodd" transform="matrix(1 0 0 -1 583 704)"/><path d="M36.1139 101.995 41.5226 11.9849C41.5226 11.9849 41.5982 2.05746 34.0537 1.42958 26.5085 0.801809 31.2788 1.19865 31.2788 1.19865L22.7366 0.48813C22.7366 0.48813 10.5469-3.58678 9.24466 11.6835L-0.477542 98.95 36.1139 101.995" fill="#F58414" fill-rule="evenodd" transform="matrix(1 0 0 -1 591 695)"/></g></svg>