<svg width="210" height="225" xmlns="http://www.w3.org/2000/svg" xmlns:xlink="http://www.w3.org/1999/xlink" overflow="hidden"><defs><clipPath id="clip0"><rect x="26" y="21" width="210" height="225"/></clipPath></defs><g clip-path="url(#clip0)" transform="translate(-26 -21)"><path d="M202.733 141.086C191.873 170.112 167.95 194.277 140.168 207.402 96.4018 228.077 45.9249 218.487 14.6648 181.376 4.49904 169.307-1.91769 153.648 0.265088 137.676 4.74302 104.905 34.2511 109.357 57.535 96.6691 68.69 90.5909 79.8793 79.3385 78.8108 65.6303 77.7923 52.5621 65.0216 42.7399 66.4279 29.2739 70.4596-9.34191 128.789-4.29606 152.774 8.33723 197.743 32.0239 220.634 93.2373 202.733 141.086" fill="#BEBCBA" fill-rule="evenodd" transform="matrix(1 0 0 -1 26 245)"/><path d="M202.733 140.43C191.873 169.323 167.95 193.376 140.168 206.446 96.4018 227.025 45.9249 217.48 14.6648 180.535 4.49904 168.521-1.91769 152.934 0.265088 137.035 4.74302 104.415 34.2511 108.846 57.535 96.2168 68.69 90.1664 79.8793 78.9648 78.8108 65.3201 77.7923 52.3118 65.0216 42.5339 66.4279 29.1302 70.4596-9.30941 128.789-4.28603 152.774 8.28877 197.743 31.8676 220.634 92.8006 202.733 140.43" fill="#ECECEA" fill-rule="evenodd" transform="matrix(1 0 0 -1 26 239)"/><path d="M0.152929 16.5878C1.5853 6.6336 9.96142-2.12482 22.6317-0.871139 32.3705 0.0926969 39.835 11.7173 39.9333 21.2029 40.0855 35.9626 21.1252 45.2309 9.07137 36.8188 1.74343 31.7048-0.889092 23.8296 0.152929 16.5878" fill="#3FB83D" fill-rule="evenodd" transform="matrix(1 0 0 -1 39 103)"/><path d="M0.0933644 16.5376C1.49031 6.58432 9.65632-2.17345 22.0107-0.920504 31.5062 0.043435 38.7842 11.6679 38.8793 21.1536 39.0284 35.9145 20.5414 45.1807 8.7891 36.7702 1.64419 31.6574-0.922349 23.7795 0.0933644 16.5376" fill="#4FABE4" fill-rule="evenodd" transform="matrix(1 0 0 -1 82 75)"/><path d="M0.0287034 16.5461C1.42502 6.59269 9.59172-2.16508 21.9459-0.912029 31.4415 0.0519101 38.7193 11.6763 38.8144 21.162 38.9629 35.923 20.4767 45.1891 8.72377 36.7785 1.57962 31.6659-0.987626 23.7879 0.0287034 16.5461" fill="#F14E22" fill-rule="evenodd" transform="matrix(1 0 0 -1 131 80)"/><path d="M-0.0238066 16.6007C1.40831 6.64696 9.78441-2.11112 22.4547-0.858031 32.1938 0.105943 39.6582 11.7307 39.7565 21.216 39.9087 35.9756 20.9485 45.2441 8.89432 36.8318 1.56688 31.7176-1.0662 23.8428-0.0238066 16.6007" fill="#EE2737" fill-rule="evenodd" transform="matrix(1 0 0 -1 170 111)"/><path d="M-0.0420708 16.6872C1.35424 6.73341 9.52094-2.02467 21.8745-0.771582 31.3701 0.192392 38.6479 11.8172 38.7437 21.3025 38.8921 36.062 20.406 45.3305 8.6531 36.9182 1.50885 31.8041-1.0584 23.9292-0.0420708 16.6872" fill="#F4C10D" fill-rule="evenodd" transform="matrix(1 0 0 -1 185 160)"/><path d="M-0.0166857 16.7676C1.41605 6.81384 9.79204-1.94416 22.4622-0.691173 32.201 0.272698 39.6654 11.8976 39.7637 21.3829 39.9159 36.1425 20.9554 45.411 8.90185 36.9987 1.57387 31.8845-1.05842 24.0097-0.0166857 16.7676" fill="#9837A0" fill-rule="evenodd" transform="matrix(1 0 0 -1 165 206)"/><path d="M0.0477198 16.8035C1.48059 6.84894 9.85673-1.90911 22.5271-0.655368 32.2661 0.308508 39.7306 11.9329 39.8283 21.4188 39.9812 36.1778 21.0202 45.4472 8.96653 37.0341 1.63841 31.9199-0.993931 24.045 0.0477198 16.8035" fill="#312736" fill-rule="evenodd" transform="matrix(1 0 0 -1 117 226)"/><path d="M31.213 74.015C46.6996 74.9738 63.4512 67.7188 72.195 54.199 83.7476 36.3363 76.0443 20.2909 62.9863 6.22762 53.1924-4.32054 39.7514-3.165 35.0165 9.71263 29.9308 23.5442 23.8634 31.9568 11.897 40.6799 5.54068 45.3142-3.83468 48.7053 1.35346 58.747 3.9438 63.7595 11.9237 68.9997 17.1439 71.0037 21.5195 72.6841 26.328 73.7121 31.213 74.015" fill="#CFCECB" fill-rule="evenodd" transform="matrix(1 0 0 -1 86 168)"/><path d="M0.2234 15.7843C0.795487 14.1194 5.47188 12.8959 6.88725 12.0332 11.6253 9.14678 14.1838 5.22415 12.5799-0.272979 16.8393-3.75017 17.3873 6.9256 16.646 8.87359 14.8363 13.627 11.7893 16.0535 7.07417 17.8387 4.48746 18.8177-1.47605 20.7364 0.2234 15.7843" fill="#7ECB2A" fill-rule="evenodd" transform="matrix(1 0 0 -1 59 87)"/><path d="M8.28041 1.88139C9.58853-4.04623 11.3682 0.453333 12.3089 3.55429 13.9216 8.86957 12.0077 12.3395 6.75532 15.1676 4.11569 16.5917-2.14064 16.5381 0.501882 11.7845 1.19691 10.5343 4.69523 9.83895 5.97194 8.56868 8.19901 6.34964 7.6842 4.58518 8.28041 1.88139" fill="#6CC9EE" fill-rule="evenodd" transform="matrix(1 0 0 -1 104 57)"/><path d="M5.53789-0.89884C1.84867 0.0749734 6.8397 7.57663 6.81779 10.4118 6.78144 15.0441 3.09495 19.4462-0.100836 22.7533-0.903735 23.582 3.34678 25.7461 3.81545 25.972 10.2132 23.2533 12.8882 16.9034 12.7962 10.2824 12.7489 6.87673 10.5214-2.2145 5.53789-0.89884" fill="#F57557" fill-rule="evenodd" transform="matrix(1 0 0 -1 154 71)"/><path d="M6.19391 7.55613C5.43612 5.17235 0.694619-5.47114-0.218461 1.15251-0.586482 3.82086 2.05097 5.50576 2.70302 7.89371 3.5395 10.9573 2.42305 12.041 1.34875 14.6189 0.497391 16.6615-2.19501 23.3033 2.28952 23.0019 7.28798 22.6602 7.21211 10.7598 6.19391 7.55613" fill="#F04768" fill-rule="evenodd" transform="matrix(1 0 0 -1 199 101)"/><path d="M0.331738-0.866823C-2.15381 1.86831 3.83218 9.14517 3.91314 12.952 3.96843 15.5515 0.196931 30.5493 6.54499 20.9735 11.1331 14.0531 8.2187 2.29714 0.331738-0.866823" fill="#FBD960" fill-rule="evenodd" transform="matrix(1 0 0 -1 213 152)"/><path d="M9.52534 8.77707C9.00767 6.35085 4.74969-3.84668 0.164012 0.0902214-1.80059 1.77642 3.80091 9.25671 4.48142 11.864 5.95409 17.5069 2.98353 19.5245 1.18949 24.6045 9.39469 31.8108 10.3023 12.4229 9.52534 8.77707" fill="#B95EB5" fill-rule="evenodd" transform="matrix(1 0 0 -1 190 198)"/><path d="M10.0365 3.9373C8.29207 1.53385-0.352179-3.89893-0.181801 1.64204-0.133869 3.1964 3.57602 5.38894 4.4625 6.66668 6.39741 9.4563 5.9831 10.9498 5.96922 13.8565 5.9594 15.8436 6.3988 19.9425 9.14236 20.2137 15.8468 20.8683 11.6328 6.13605 10.0365 3.9373" fill="#453B4A" fill-rule="evenodd" transform="matrix(1 0 0 -1 140 218)"/><path d="M24.2733 21.1804C22.3568 13.3273 15.5417 2.83085 9.39621 0.0582343 6.47227-1.2615 1.43642-1.7093 0.0777046 1.90409-1.5172 6.1467 4.61924 9.21962 6.98186 12.0413 11.9736 18.0036 14.455 25.2715 13.6395 32.8284 12.9222 39.4726 8.12453 42.1884 5.12532 47.4705 2.17658 52.6674 7.80417 54.3576 11.6995 52.1394 20.824 46.9424 25.1986 34.7435 24.7905 24.589 24.7483 23.5412 24.5695 22.3923 24.2733 21.1804" fill="#A0A09F" fill-rule="evenodd" transform="matrix(1 0 0 -1 134 159)"/></g></svg>