<svg width="110" height="231" xmlns="http://www.w3.org/2000/svg" xmlns:xlink="http://www.w3.org/1999/xlink" overflow="hidden"><g transform="translate(-1066 -377)"><path d="M1094 415 1109.26 389.611 1131.31 389 1151 412.098 1150.98 412.098C1149.71 411.691 1148.33 411.312 1146.84 410.934 1134.99 407.986 1116.54 406.496 1094.07 414.999L1094 415Z" fill="#CFCFCF" fill-rule="evenodd"/><path d="M1067 578.983C1068.52 578.219 1070.58 577.168 1073.06 575.903 1073.3 575.784 1073.55 575.664 1073.8 575.545L1073.8 575.523C1074.13 575.356 1074.47 575.188 1074.8 575.021 1075.14 574.853 1075.47 574.685 1075.8 574.498 1077.22 573.78 1078.74 573.017 1080.32 572.206 1081.49 571.606 1082.71 570.986 1083.97 570.344 1084.3 570.176 1084.64 569.987 1084.97 569.818 1085.31 569.65 1085.64 569.485 1085.98 569.317L1085.98 569.295C1088.88 567.815 1091.95 566.24 1095.1 564.641 1095.43 564.451 1095.77 564.283 1096.1 564.117 1096.44 563.949 1096.77 563.781 1097.11 563.593 1100.24 562.017 1103.44 560.37 1106.56 558.773 1106.9 558.582 1107.24 558.415 1107.57 558.248 1107.91 558.079 1108.24 557.892 1108.57 557.724 1111.52 556.22 1114.43 554.719 1117.2 553.286L1119.21 552.283C1121.05 551.328 1122.84 550.4 1124.51 549.539 1126.45 548.538 1128.29 547.607 1129.98 546.724 1130.32 546.557 1130.66 546.391 1130.99 546.222 1131.33 546.054 1131.67 545.887 1132 545.723 1137.58 542.836 1141.14 541 1141.14 541 1143.95 542.731 1147.11 550.578 1149.33 557.114 1149.55 557.831 1149.8 558.525 1150 559.197L1140.43 563.93 1138.39 564.935 1128.78 569.67 1127.77 570.174 1126.74 570.677 1117.06 575.458 1116.03 575.96 1115.02 576.461 1106.1 580.84 1105.09 581.342 1104.07 581.845 1095.08 586.268 1093.04 587.274 1084.79 591.339 1083.78 591.841 1082.78 592.344 1079.54 593.943 1079.4 594.018 1075.38 596 1067 578.983Z" fill="#FFFFFF" fill-rule="evenodd"/><path d="M1094 415 1109.02 389.46 1125.28 389C1125.11 389.053 1124.93 389.084 1124.75 389.134 1111.3 392.389 1108.12 402.046 1108.12 402.046 1140.31 406.349 1146 410.91 1146 410.91 1134.34 407.944 1116.19 406.446 1094.07 414.999L1094 415Z" fill="#8F8F8F" fill-rule="evenodd"/><path d="M1097.38 482.419 1090.02 463.705 1090.41 454.655C1141.15 445.928 1162.73 455.568 1162.73 455.568 1163.95 478.313 1165.74 504.312 1168 513.876 1168 513.876 1158.5 550.89 1167.18 563 1166.49 562.884 1152.22 560.504 1149.12 556.419 1146.88 549.868 1143.68 542.005 1140.84 540.27 1140.84 540.27 1136.82 542.323 1130.58 545.503 1128.59 546.51 1126.4 547.632 1124.03 548.828 1124.03 548.828 1094.74 552.04 1092.27 550.564 1092.27 550.564 1095.31 546.951 1095.1 544.555 1094.9 542.163 1086 529.991 1086 529.991L1097.38 482.419Z" fill="#CFCFCF" fill-rule="evenodd"/><path d="M1120.95 594.98C1127.68 592.345 1175 588.968 1175 588.968L1151.71 566.337C1151.71 566.337 1150.85 563.139 1149.52 559L1149.5 559 1138.89 564.261 1127.26 570.024 1115.51 575.835 1104.57 581.24 1093.54 586.693 1083.25 591.785 1079 593.896C1088.35 602.449 1120.95 594.98 1120.95 594.98ZM1149.89 572.764 1165.18 585.602C1150.29 584.033 1136.23 585.778 1122.74 589.708L1149.89 572.764Z" fill="#CFCFCF" fill-rule="evenodd"/><path d="M1149 557C1152.04 561.085 1166.06 563.466 1166.74 563.582 1166.77 563.582 1166.77 563.582 1166.77 563.582 1167.14 564.115 1167.54 564.602 1167.98 565.02L1174.83 582.776 1175 589 1151.87 566.412C1151.87 566.412 1151.01 563.22 1149.69 559.089L1149.67 559.089C1149.47 558.415 1149.22 557.719 1149 557Z" fill="#979797" fill-rule="evenodd"/><path d="M1075 596.099 1079.01 594.076 1079.15 594C1088.47 602.69 1121 595.101 1121 595.101 1114.28 597.776 1080.22 607 1080.22 607L1075 596.099Z" fill="#979797" fill-rule="evenodd"/><path d="M1091 454.088 1092.09 429.13C1092.09 429.13 1114.11 404.989 1161.24 415.774 1161.27 415.796 1161.27 415.796 1161.29 415.795 1161.29 415.795 1161.69 427.887 1162.44 443.68 1162.49 444.854 1162.55 446.075 1162.61 447.293 1162.75 449.802 1162.86 452.376 1163 455 1163 454.999 1141.52 445.371 1091 454.088Z" fill="#FFCE2C" fill-rule="evenodd"/><path d="M1109.3 390C1124.32 389.857 1130.8 389.36 1130.8 389.36 1131.56 388.268 1133.14 385.95 1130.66 383.668 1130.66 383.668 1125.23 381.802 1109.15 384.308 1107.48 386.422 1107.71 388.293 1109.3 390Z" fill="#8F8F8F" fill-rule="evenodd"/><path d="M1130.82 383.452C1132.46 381.705 1132.37 380.08 1130.67 378.574 1130.67 378.574 1125.19 376.972 1108.93 379.122 1107.72 380.653 1107.61 382.269 1109.07 384L1130.82 383.452Z" fill="#616161" fill-rule="evenodd"/><path d="M1123 590 1150.51 573 1166 585.88C1150.91 584.307 1136.67 586.057 1123 590Z" fill="#FFFFFF" fill-rule="evenodd"/><path d="M1130 546.043C1130.32 545.868 1130.64 545.695 1130.96 545.52 1131.29 545.345 1131.61 545.172 1131.93 545L1131.95 545.02 1140 563.954 1138.05 565 1138.03 564.978 1130 546.043Z" fill="#CFCFCF" fill-rule="evenodd"/><path d="M1082.54 542.219 1078.55 517.8 1087 475.585 1086.47 455.855C1088.05 455.542 1089.63 455.269 1091.15 455L1090.76 464.058 1097.96 482.79 1086.84 530.405C1086.84 530.405 1095.54 542.588 1095.73 544.983 1095.94 547.381 1092.97 550.997 1092.97 550.997 1095.38 552.475 1124 549.26 1124 549.26 1122.04 550.291 1119.94 551.39 1117.77 552.516 1114.42 554.264 1110.86 556.106 1107.26 557.997 1103.51 559.958 1099.66 561.946 1095.93 563.885 1092.11 565.873 1088.4 567.81 1084.93 569.605 1083.35 570.445 1081.8 571.234 1080.34 572 1080.34 572 1078.7 562.726 1078.06 556.079 1077.4 549.432 1082.54 542.219 1082.54 542.219Z" fill="#979797" fill-rule="evenodd"/><path d="M1073 575.057 1073 575.035C1073.34 574.865 1073.67 574.696 1074.01 574.528 1074.34 574.359 1074.68 574.189 1075.01 574L1084 590.964 1084 590.987 1083 591.493 1081.99 592 1073 575.057Z" fill="#CFCFCF" fill-rule="evenodd"/><path d="M1092.99 587 1084 570.03C1084.33 569.862 1084.66 569.672 1084.99 569.503 1085.33 569.334 1085.66 569.169 1085.99 569L1095 585.969 1095 585.992 1092.99 587Z" fill="#CFCFCF" fill-rule="evenodd"/><path d="M1117 553.037C1117 553.059 1117.02 553.059 1117.02 553.083L1126.89 571 1127.96 570.481 1129 569.96C1129 569.939 1128.98 569.939 1128.98 569.914L1119.09 552 1117 553.037Z" fill="#CFCFCF" fill-rule="evenodd"/><path d="M1106 558.064C1106.35 557.87 1106.7 557.701 1107.05 557.531 1107.41 557.36 1107.75 557.17 1108.11 557 1108.11 557.023 1108.13 557.023 1108.13 557.046L1117 574.982 1115.92 575.492 1114.86 576 1114.84 575.978 1106 558.064Z" fill="#CFCFCF" fill-rule="evenodd"/><path d="M1095 564.09C1095.34 563.893 1095.67 563.718 1096.01 563.546 1096.34 563.37 1096.68 563.195 1097.01 563L1106 580.928 1106 580.953 1104.99 581.476 1103.97 582 1095 564.09Z" fill="#CFCFCF" fill-rule="evenodd"/><path d="M1091.07 454.109C1141.54 445.587 1163 455 1163 455 1162.86 452.435 1162.75 449.92 1162.61 447.465 1162.55 446.274 1162.5 445.081 1162.44 443.933 1162.44 443.933 1135.37 432.81 1086 443.969L1086.31 454.944C1087.92 454.638 1089.53 454.371 1091.07 454.109Z" fill="#FFF1CE" fill-rule="evenodd"/><path d="M1086.01 455 1085 417.909C1087.99 416.511 1090.93 415.295 1093.79 414.24 1116.24 405.927 1134.66 407.383 1146.49 410.266 1147.98 410.636 1149.36 411.005 1150.62 411.404L1150.64 411.404C1156.92 413.323 1160.59 415.408 1161 415.645 1113.88 404.809 1091.87 429.065 1091.87 429.065L1090.78 454.141C1089.23 454.412 1087.62 454.685 1086.01 455Z" fill="#FFA810" fill-rule="evenodd"/><path d="M1156.42 458.181C1156.42 458.181 1149.46 454.909 1133.74 456.381L1138.44 512.01 1132 538.683 1146.87 530.578 1155.18 544C1154.43 532.603 1155.9 522.354 1159 512.95L1156.42 458.181Z" fill="#FFFFFF" fill-rule="evenodd"/></g></svg>