<svg width="110" height="110" xmlns="http://www.w3.org/2000/svg" xmlns:xlink="http://www.w3.org/1999/xlink" overflow="hidden"><g transform="translate(-579 -197)"><path d="M688 252C688 281.823 663.6 306 633.5 306 603.401 306 579 281.823 579 252 579 222.177 603.401 198 633.5 198 663.6 198 688 222.177 688 252Z" fill="#E27978" fill-rule="evenodd"/><path d="M635.5 225 609 237 635.5 249 662 237Z" fill="#AFDDE0" fill-rule="evenodd"/><path d="M635.5 248.981 609 237 609 272.019 635.5 284 662 272.019 662 237Z" fill="#25505B" fill-rule="evenodd"/><path d="M636.5 284.5 636.5 214.5" stroke="#66CAC3" stroke-width="1.34499" stroke-miterlimit="8" fill="none" fill-rule="evenodd"/><path d="M641 218.06 640.015 219 635.501 214.023 630.985 219 630 218.06 635.501 212Z" fill="#66CAC3" fill-rule="evenodd"/><path d="M636.5 284.5 670.5 268.5" stroke="#66CAC3" stroke-width="1.34499" stroke-miterlimit="8" fill="none" fill-rule="evenodd"/><path d="M668.059 275 666.825 274.501 669.24 268.297 663 266.293 663.399 265 671 267.444Z" fill="#66CAC3" fill-rule="evenodd"/><path d="M636.5 284.5 601.5 267.5" stroke="#66CAC3" stroke-width="1.34499" stroke-miterlimit="8" fill="none" fill-rule="evenodd"/><path d="M607.614 264 608 265.303 601.748 267.249 604.095 273.513 602.857 274 600 266.371Z" fill="#66CAC3" fill-rule="evenodd"/></g></svg>