<svg width="110" height="110" xmlns="http://www.w3.org/2000/svg" xmlns:xlink="http://www.w3.org/1999/xlink" overflow="hidden"><g transform="translate(-310 -198)"><path d="M419 252.5C419 282.6 394.823 307 365 307 335.177 307 311 282.6 311 252.5 311 222.4 335.177 198 365 198 394.823 198 419 222.401 419 252.5Z" fill="#FFF06C" fill-rule="evenodd"/><path d="M384.999 275.5C384.999 281.852 379.789 287 373.363 287L356.636 287C350.21 287 345 281.852 345 275.5L345 229.5C345 223.148 350.21 218 356.636 218L373.364 218C379.789 218 385 223.148 385 229.5L385 275.5Z" fill="#F2675D" fill-rule="evenodd"/><path d="M365 218.001 373.364 218C379.789 218 385 223.148 385 229.5L385 275.499C385 281.851 379.789 286.999 373.364 286.999L365 287 365 218.001Z" fill="#AA5B5A" fill-rule="evenodd"/><path d="M385 252 385 275.333C385 281.777 379.789 287 373.364 287L356.636 287C350.21 287 345 281.777 345 275.333L345 252 385 252Z" fill="#4990C8" fill-rule="evenodd"/><path d="M365 252 385 252.001 385 275.333C385 281.777 379.789 286.999 373.364 286.999L365 287 365 252Z" fill="#4181B3" fill-rule="evenodd"/></g></svg>